<svg xmlns="http://www.w3.org/2000/svg" xmlns:xlink="http://www.w3.org/1999/xlink" contentStyleType="text/css" height="1827px" preserveAspectRatio="none" style="width:865px;height:1827px;background:#FFFFFF;" version="1.1" viewBox="0 0 865 1827" width="865px" zoomAndPan="magnify"><title>Bully Election Protocol</title><defs/><g><text fill="#000000" font-family="Verdana" font-size="22" font-weight="bold" lengthAdjust="spacing" textLength="246.5108" x="307.8643" y="38.5181">Bully Election Protocol</text><line style="stroke:#000000;stroke-width:1.0;" x1="121" x2="121" y1="109.0999" y2="1770.2827"/><line style="stroke:#000000;stroke-width:1.0;" x1="435.1052" x2="435.1052" y1="109.0999" y2="1770.2827"/><line style="stroke:#000000;stroke-width:1.0;" x1="582.5924" x2="582.5924" y1="109.0999" y2="1770.2827"/><rect fill="#FFFFFF" height="52.1358" rx="2.5" ry="2.5" style="stroke:#000000;stroke-width:1.0;" width="80.8497" x="81" y="55.9641"/><text fill="#000000" font-family="Verdana" font-size="14" lengthAdjust="spacing" textLength="56.0418" x="93.404" y="77.93">Device A</text><text fill="#000000" font-family="Verdana" font-size="14" lengthAdjust="spacing" textLength="66.8497" x="88" y="96.998">UUID: 123</text><rect fill="#FFFFFF" height="52.1358" rx="2.5" ry="2.5" style="stroke:#000000;stroke-width:1.0;" width="80.8497" x="81" y="1769.2827"/><text fill="#000000" font-family="Verdana" font-size="14" lengthAdjust="spacing" textLength="56.0418" x="93.404" y="1791.2486">Device A</text><text fill="#000000" font-family="Verdana" font-size="14" lengthAdjust="spacing" textLength="66.8497" x="88" y="1810.3166">UUID: 123</text><rect fill="#FFFFFF" height="52.1358" rx="2.5" ry="2.5" style="stroke:#000000;stroke-width:1.0;" width="80.8497" x="395.1052" y="55.9641"/><text fill="#000000" font-family="Verdana" font-size="14" lengthAdjust="spacing" textLength="56.1958" x="407.4322" y="77.93">Device B</text><text fill="#000000" font-family="Verdana" font-size="14" lengthAdjust="spacing" textLength="66.8497" x="402.1052" y="96.998">UUID: 456</text><rect fill="#FFFFFF" height="52.1358" rx="2.5" ry="2.5" style="stroke:#000000;stroke-width:1.0;" width="80.8497" x="395.1052" y="1769.2827"/><text fill="#000000" font-family="Verdana" font-size="14" lengthAdjust="spacing" textLength="56.1958" x="407.4322" y="1791.2486">Device B</text><text fill="#000000" font-family="Verdana" font-size="14" lengthAdjust="spacing" textLength="66.8497" x="402.1052" y="1810.3166">UUID: 456</text><rect fill="#FFFFFF" height="52.1358" rx="2.5" ry="2.5" style="stroke:#000000;stroke-width:1.0;" width="80.8497" x="542.5924" y="55.9641"/><text fill="#000000" font-family="Verdana" font-size="14" lengthAdjust="spacing" textLength="55.9438" x="555.0454" y="77.93">Device C</text><text fill="#000000" font-family="Verdana" font-size="14" lengthAdjust="spacing" textLength="66.8497" x="549.5924" y="96.998">UUID: 789</text><rect fill="#FFFFFF" height="52.1358" rx="2.5" ry="2.5" style="stroke:#000000;stroke-width:1.0;" width="80.8497" x="542.5924" y="1769.2827"/><text fill="#000000" font-family="Verdana" font-size="14" lengthAdjust="spacing" textLength="55.9438" x="555.0454" y="1791.2486">Device C</text><text fill="#000000" font-family="Verdana" font-size="14" lengthAdjust="spacing" textLength="66.8497" x="549.5924" y="1810.3166">UUID: 789</text><path d="M73,124.0999 L73,151.0999 L630,151.0999 L630,134.0999 L620,124.0999 L73,124.0999 " fill="#FFFFFF" style="stroke:#000000;stroke-width:1.0;"/><path d="M620,124.0999 L620,134.0999 L630,134.0999 L620,124.0999 " fill="#FFFFFF" style="stroke:#000000;stroke-width:1.0;"/><text fill="#000000" font-family="Verdana" font-size="13" lengthAdjust="spacing" textLength="289.1202" x="202.6609" y="142.9969">Device C has highest UUID, Device A has lowest</text><rect fill="#FFFFFF" height="3" style="stroke:#FFFFFF;stroke-width:1.0;" width="853.2395" x="5" y="178.659"/><line style="stroke:#000000;stroke-width:0.5;" x1="5" x2="858.2395" y1="178.659" y2="178.659"/><line style="stroke:#000000;stroke-width:0.5;" x1="5" x2="858.2395" y1="181.659" y2="181.659"/><rect fill="#FFFFFF" height="25.706" style="stroke:#000000;stroke-width:1.0;" width="115.0491" x="374.0952" y="166.806"/><text fill="#000000" font-family="Verdana" font-size="13" font-weight="bold" lengthAdjust="spacing" textLength="97.6691" x="380.0952" y="184.703">Network Setup</text><path d="M126,207.512 L126,252.512 L402,252.512 L402,217.512 L392,207.512 L126,207.512 " fill="#FFFFFF" style="stroke:#000000;stroke-width:1.0;"/><path d="M392,207.512 L392,217.512 L402,217.512 L392,207.512 " fill="#FFFFFF" style="stroke:#000000;stroke-width:1.0;"/><text fill="#000000" font-family="Verdana" font-size="13" lengthAdjust="spacing" textLength="255.8272" x="132" y="226.409">Each device maintains an election list with</text><text fill="#000000" font-family="Verdana" font-size="13" lengthAdjust="spacing" textLength="185.2112" x="132" y="244.115">pairs of (deviceAddress, UUID)</text><rect fill="#FFFFFF" height="3" style="stroke:#FFFFFF;stroke-width:1.0;" width="853.2395" x="5" y="279.777"/><line style="stroke:#000000;stroke-width:0.5;" x1="5" x2="858.2395" y1="279.777" y2="279.777"/><line style="stroke:#000000;stroke-width:0.5;" x1="5" x2="858.2395" y1="282.777" y2="282.777"/><rect fill="#FFFFFF" height="25.706" style="stroke:#000000;stroke-width:1.0;" width="289.3532" x="286.9432" y="267.924"/><text fill="#000000" font-family="Verdana" font-size="13" font-weight="bold" lengthAdjust="spacing" textLength="271.9732" x="292.9432" y="285.821">Election Start (Coordinator Loss Detected)</text><path d="M10,308.63 L10,353.63 L233,353.63 L233,318.63 L223,308.63 L10,308.63 " fill="#FFFFFF" style="stroke:#000000;stroke-width:1.0;"/><path d="M223,308.63 L223,318.63 L233,318.63 L223,308.63 " fill="#FFFFFF" style="stroke:#000000;stroke-width:1.0;"/><text fill="#000000" font-family="Verdana" font-size="13" lengthAdjust="spacing" textLength="202.3062" x="16" y="327.527">Device A detects coordinator loss</text><text fill="#000000" font-family="Verdana" font-size="13" lengthAdjust="spacing" textLength="112.7881" x="16" y="345.233">and starts election</text><line style="stroke:#000000;stroke-width:1.0;" x1="121.4249" x2="163.4249" y1="382.7481" y2="382.7481"/><line style="stroke:#000000;stroke-width:1.0;" x1="163.4249" x2="163.4249" y1="382.7481" y2="395.7481"/><line style="stroke:#000000;stroke-width:1.0;" x1="122.4249" x2="163.4249" y1="395.7481" y2="395.7481"/><polygon fill="#000000" points="132.4249,391.7481,122.4249,395.7481,132.4249,399.7481,128.4249,395.7481" style="stroke:#000000;stroke-width:1.0;"/><text fill="#000000" font-family="Verdana" font-size="13" lengthAdjust="spacing" textLength="300.1052" x="128.4249" y="376.9391">addElectionListMember(deviceAddresses, UUIDs)</text><line style="stroke:#000000;stroke-width:1.0;" x1="121.4249" x2="163.4249" y1="427.4541" y2="427.4541"/><line style="stroke:#000000;stroke-width:1.0;" x1="163.4249" x2="163.4249" y1="427.4541" y2="440.4541"/><line style="stroke:#000000;stroke-width:1.0;" x1="122.4249" x2="163.4249" y1="440.4541" y2="440.4541"/><polygon fill="#000000" points="132.4249,436.4541,122.4249,440.4541,132.4249,444.4541,128.4249,440.4541" style="stroke:#000000;stroke-width:1.0;"/><text fill="#000000" font-family="Verdana" font-size="13" lengthAdjust="spacing" textLength="119.6131" x="128.4249" y="421.6451">startElectionTimer()</text><polygon fill="#000000" points="423.5301,468.1601,433.5301,472.1601,423.5301,476.1601,427.5301,472.1601" style="stroke:#000000;stroke-width:1.0;"/><line style="stroke:#000000;stroke-width:1.0;" x1="121.4249" x2="429.5301" y1="472.1601" y2="472.1601"/><text fill="#000000" font-family="Verdana" font-size="13" lengthAdjust="spacing" textLength="123.4872" x="128.4249" y="466.3511">ELECTION_REQUEST</text><polygon fill="#000000" points="571.0172,499.8661,581.0172,503.8661,571.0172,507.8661,575.0172,503.8661" style="stroke:#000000;stroke-width:1.0;"/><line style="stroke:#000000;stroke-width:1.0;" x1="121.4249" x2="577.0172" y1="503.8661" y2="503.8661"/><text fill="#000000" font-family="Verdana" font-size="13" lengthAdjust="spacing" textLength="123.4872" x="128.4249" y="498.0571">ELECTION_REQUEST</text><path d="M440,516.8661 L440,561.8661 L622,561.8661 L622,526.8661 L612,516.8661 L440,516.8661 " fill="#FFFFFF" style="stroke:#000000;stroke-width:1.0;"/><path d="M612,516.8661 L612,526.8661 L622,526.8661 L612,516.8661 " fill="#FFFFFF" style="stroke:#000000;stroke-width:1.0;"/><text fill="#000000" font-family="Verdana" font-size="13" lengthAdjust="spacing" textLength="161.6161" x="446" y="535.7631">B receives election from A,</text><text fill="#000000" font-family="Verdana" font-size="13" lengthAdjust="spacing" textLength="102.9861" x="446" y="553.4691">compares UUIDs</text><line style="stroke:#000000;stroke-width:1.0;" x1="435.5301" x2="477.5301" y1="590.9842" y2="590.9842"/><line style="stroke:#000000;stroke-width:1.0;" x1="477.5301" x2="477.5301" y1="590.9842" y2="603.9842"/><line style="stroke:#000000;stroke-width:1.0;" x1="436.5301" x2="477.5301" y1="603.9842" y2="603.9842"/><polygon fill="#000000" points="446.5301,599.9842,436.5301,603.9842,446.5301,607.9842,442.5301,603.9842" style="stroke:#000000;stroke-width:1.0;"/><text fill="#000000" font-family="Verdana" font-size="13" lengthAdjust="spacing" textLength="118.3391" x="442.5301" y="585.1752">getDevicesToElect()</text><polygon fill="#000000" points="571.0172,631.6902,581.0172,635.6902,571.0172,639.6902,575.0172,635.6902" style="stroke:#000000;stroke-width:1.0;"/><line style="stroke:#000000;stroke-width:1.0;" x1="435.5301" x2="577.0172" y1="635.6902" y2="635.6902"/><text fill="#000000" font-family="Verdana" font-size="13" lengthAdjust="spacing" textLength="123.4872" x="442.5301" y="629.8812">ELECTION_REQUEST</text><path d="M588,648.6902 L588,693.6902 L789,693.6902 L789,658.6902 L779,648.6902 L588,648.6902 " fill="#FFFFFF" style="stroke:#000000;stroke-width:1.0;"/><path d="M779,648.6902 L779,658.6902 L789,658.6902 L779,648.6902 " fill="#FFFFFF" style="stroke:#000000;stroke-width:1.0;"/><text fill="#000000" font-family="Verdana" font-size="13" lengthAdjust="spacing" textLength="180.6221" x="594" y="667.5872">C receives election messages,</text><text fill="#000000" font-family="Verdana" font-size="13" lengthAdjust="spacing" textLength="102.9861" x="594" y="685.2932">compares UUIDs</text><line style="stroke:#000000;stroke-width:1.0;" x1="583.0172" x2="625.0172" y1="722.8082" y2="722.8082"/><line style="stroke:#000000;stroke-width:1.0;" x1="625.0172" x2="625.0172" y1="722.8082" y2="735.8082"/><line style="stroke:#000000;stroke-width:1.0;" x1="584.0172" x2="625.0172" y1="735.8082" y2="735.8082"/><polygon fill="#000000" points="594.0172,731.8082,584.0172,735.8082,594.0172,739.8082,590.0172,735.8082" style="stroke:#000000;stroke-width:1.0;"/><text fill="#000000" font-family="Verdana" font-size="13" lengthAdjust="spacing" textLength="261.2223" x="590.0172" y="716.9992">getDevicesToElect() (empty - highest UUID)</text><polygon fill="#000000" points="132.4249,763.5142,122.4249,767.5142,132.4249,771.5142,128.4249,767.5142" style="stroke:#000000;stroke-width:1.0;"/><line style="stroke:#000000;stroke-width:1.0;stroke-dasharray:2.0,2.0;" x1="126.4249" x2="582.0172" y1="767.5142" y2="767.5142"/><text fill="#000000" font-family="Verdana" font-size="13" lengthAdjust="spacing" textLength="91.4941" x="138.4249" y="761.7052">ELECTION_ACK</text><polygon fill="#000000" points="446.5301,795.2203,436.5301,799.2203,446.5301,803.2203,442.5301,799.2203" style="stroke:#000000;stroke-width:1.0;"/><line style="stroke:#000000;stroke-width:1.0;stroke-dasharray:2.0,2.0;" x1="440.5301" x2="582.0172" y1="799.2203" y2="799.2203"/><text fill="#000000" font-family="Verdana" font-size="13" lengthAdjust="spacing" textLength="91.4941" x="452.5301" y="793.4113">ELECTION_ACK</text><path d="M12,812.2203 L12,857.2203 L229,857.2203 L229,822.2203 L219,812.2203 L12,812.2203 " fill="#FFFFFF" style="stroke:#000000;stroke-width:1.0;"/><path d="M219,812.2203 L219,822.2203 L229,822.2203 L219,812.2203 " fill="#FFFFFF" style="stroke:#000000;stroke-width:1.0;"/><text fill="#000000" font-family="Verdana" font-size="13" lengthAdjust="spacing" textLength="196.0792" x="18" y="831.1173">A receives OK from higher UUID</text><text fill="#000000" font-family="Verdana" font-size="13" lengthAdjust="spacing" textLength="156.0002" x="18" y="848.8233">so stops its election timer</text><line style="stroke:#000000;stroke-width:1.0;" x1="121.4249" x2="163.4249" y1="886.3383" y2="886.3383"/><line style="stroke:#000000;stroke-width:1.0;" x1="163.4249" x2="163.4249" y1="886.3383" y2="899.3383"/><line style="stroke:#000000;stroke-width:1.0;" x1="122.4249" x2="163.4249" y1="899.3383" y2="899.3383"/><polygon fill="#000000" points="132.4249,895.3383,122.4249,899.3383,132.4249,903.3383,128.4249,899.3383" style="stroke:#000000;stroke-width:1.0;"/><text fill="#000000" font-family="Verdana" font-size="13" lengthAdjust="spacing" textLength="118.1181" x="128.4249" y="880.5293">stopElectionTimer()</text><path d="M326,912.3383 L326,957.3383 L543,957.3383 L543,922.3383 L533,912.3383 L326,912.3383 " fill="#FFFFFF" style="stroke:#000000;stroke-width:1.0;"/><path d="M533,912.3383 L533,922.3383 L543,922.3383 L533,912.3383 " fill="#FFFFFF" style="stroke:#000000;stroke-width:1.0;"/><text fill="#000000" font-family="Verdana" font-size="13" lengthAdjust="spacing" textLength="196.2222" x="332" y="931.2353">B receives OK from higher UUID</text><text fill="#000000" font-family="Verdana" font-size="13" lengthAdjust="spacing" textLength="156.0002" x="332" y="948.9413">so stops its election timer</text><line style="stroke:#000000;stroke-width:1.0;" x1="435.5301" x2="477.5301" y1="986.4564" y2="986.4564"/><line style="stroke:#000000;stroke-width:1.0;" x1="477.5301" x2="477.5301" y1="986.4564" y2="999.4564"/><line style="stroke:#000000;stroke-width:1.0;" x1="436.5301" x2="477.5301" y1="999.4564" y2="999.4564"/><polygon fill="#000000" points="446.5301,995.4564,436.5301,999.4564,446.5301,1003.4564,442.5301,999.4564" style="stroke:#000000;stroke-width:1.0;"/><text fill="#000000" font-family="Verdana" font-size="13" lengthAdjust="spacing" textLength="118.1181" x="442.5301" y="980.6474">stopElectionTimer()</text><rect fill="#FFFFFF" height="3" style="stroke:#FFFFFF;stroke-width:1.0;" width="853.2395" x="5" y="1029.3094"/><line style="stroke:#000000;stroke-width:0.5;" x1="5" x2="858.2395" y1="1029.3094" y2="1029.3094"/><line style="stroke:#000000;stroke-width:0.5;" x1="5" x2="858.2395" y1="1032.3094" y2="1032.3094"/><rect fill="#FFFFFF" height="25.706" style="stroke:#000000;stroke-width:1.0;" width="125.5401" x="368.8497" y="1017.4564"/><text fill="#000000" font-family="Verdana" font-size="13" font-weight="bold" lengthAdjust="spacing" textLength="108.1601" x="374.8497" y="1035.3534">Timer Expiration</text><path d="M497,1058.1624 L497,1103.1624 L667,1103.1624 L667,1068.1624 L657,1058.1624 L497,1058.1624 " fill="#FFFFFF" style="stroke:#000000;stroke-width:1.0;"/><path d="M657,1058.1624 L657,1068.1624 L667,1068.1624 L657,1058.1624 " fill="#FFFFFF" style="stroke:#000000;stroke-width:1.0;"/><text fill="#000000" font-family="Verdana" font-size="13" lengthAdjust="spacing" textLength="149.4741" x="503" y="1077.0594">No higher UUID devices,</text><text fill="#000000" font-family="Verdana" font-size="13" lengthAdjust="spacing" textLength="80.7691" x="503" y="1094.7654">timer expires</text><line style="stroke:#000000;stroke-width:1.0;" x1="583.0172" x2="625.0172" y1="1132.2804" y2="1132.2804"/><line style="stroke:#000000;stroke-width:1.0;" x1="625.0172" x2="625.0172" y1="1132.2804" y2="1145.2804"/><line style="stroke:#000000;stroke-width:1.0;" x1="584.0172" x2="625.0172" y1="1145.2804" y2="1145.2804"/><polygon fill="#000000" points="594.0172,1141.2804,584.0172,1145.2804,594.0172,1149.2804,590.0172,1145.2804" style="stroke:#000000;stroke-width:1.0;"/><text fill="#000000" font-family="Verdana" font-size="13" lengthAdjust="spacing" textLength="130.6371" x="590.0172" y="1126.4714">becomeCoordinator()</text><polygon fill="#000000" points="132.4249,1172.9864,122.4249,1176.9864,132.4249,1180.9864,128.4249,1176.9864" style="stroke:#000000;stroke-width:1.0;"/><line style="stroke:#000000;stroke-width:1.0;" x1="126.4249" x2="582.0172" y1="1176.9864" y2="1176.9864"/><text fill="#000000" font-family="Verdana" font-size="13" lengthAdjust="spacing" textLength="106.4311" x="138.4249" y="1171.1774">CONFIGURATION</text><polygon fill="#000000" points="446.5301,1204.6925,436.5301,1208.6925,446.5301,1212.6925,442.5301,1208.6925" style="stroke:#000000;stroke-width:1.0;"/><line style="stroke:#000000;stroke-width:1.0;" x1="440.5301" x2="582.0172" y1="1208.6925" y2="1208.6925"/><text fill="#000000" font-family="Verdana" font-size="13" lengthAdjust="spacing" textLength="106.4311" x="452.5301" y="1202.8835">CONFIGURATION</text><path d="M73,1221.6925 L73,1248.6925 L630,1248.6925 L630,1231.6925 L620,1221.6925 L73,1221.6925 " fill="#FFFFFF" style="stroke:#000000;stroke-width:1.0;"/><path d="M620,1221.6925 L620,1231.6925 L630,1231.6925 L620,1221.6925 " fill="#FFFFFF" style="stroke:#000000;stroke-width:1.0;"/><text fill="#000000" font-family="Verdana" font-size="13" lengthAdjust="spacing" textLength="209.2352" x="242.6035" y="1240.5895">Device C becomes the coordinator</text><rect fill="#FFFFFF" height="3" style="stroke:#FFFFFF;stroke-width:1.0;" width="853.2395" x="5" y="1276.2515"/><line style="stroke:#000000;stroke-width:0.5;" x1="5" x2="858.2395" y1="1276.2515" y2="1276.2515"/><line style="stroke:#000000;stroke-width:0.5;" x1="5" x2="858.2395" y1="1279.2515" y2="1279.2515"/><rect fill="#FFFFFF" height="25.706" style="stroke:#000000;stroke-width:1.0;" width="125.1761" x="369.0317" y="1264.3985"/><text fill="#000000" font-family="Verdana" font-size="13" font-weight="bold" lengthAdjust="spacing" textLength="107.7961" x="375.0317" y="1282.2955">Failure Recovery</text><path d="M526,1305.1045 L526,1332.1045 L639,1332.1045 L639,1315.1045 L629,1305.1045 L526,1305.1045 " fill="#FFFFFF" style="stroke:#000000;stroke-width:1.0;"/><path d="M629,1305.1045 L629,1315.1045 L639,1315.1045 L629,1305.1045 " fill="#FFFFFF" style="stroke:#000000;stroke-width:1.0;"/><text fill="#000000" font-family="Verdana" font-size="13" lengthAdjust="spacing" textLength="92.287" x="532" y="1324.0015">If Device C fails</text><line style="stroke:#000000;stroke-width:1.0;" x1="121.4249" x2="163.4249" y1="1361.5165" y2="1361.5165"/><line style="stroke:#000000;stroke-width:1.0;" x1="163.4249" x2="163.4249" y1="1361.5165" y2="1374.5165"/><line style="stroke:#000000;stroke-width:1.0;" x1="122.4249" x2="163.4249" y1="1374.5165" y2="1374.5165"/><polygon fill="#000000" points="132.4249,1370.5165,122.4249,1374.5165,132.4249,1378.5165,128.4249,1374.5165" style="stroke:#000000;stroke-width:1.0;"/><text fill="#000000" font-family="Verdana" font-size="13" lengthAdjust="spacing" textLength="119.6131" x="128.4249" y="1355.7075">startElectionTimer()</text><line style="stroke:#000000;stroke-width:1.0;" x1="435.5301" x2="477.5301" y1="1406.2225" y2="1406.2225"/><line style="stroke:#000000;stroke-width:1.0;" x1="477.5301" x2="477.5301" y1="1406.2225" y2="1419.2225"/><line style="stroke:#000000;stroke-width:1.0;" x1="436.5301" x2="477.5301" y1="1419.2225" y2="1419.2225"/><polygon fill="#000000" points="446.5301,1415.2225,436.5301,1419.2225,446.5301,1423.2225,442.5301,1419.2225" style="stroke:#000000;stroke-width:1.0;"/><text fill="#000000" font-family="Verdana" font-size="13" lengthAdjust="spacing" textLength="119.6131" x="442.5301" y="1400.4135">startElectionTimer()</text><polygon fill="#000000" points="423.5301,1446.9286,433.5301,1450.9286,423.5301,1454.9286,427.5301,1450.9286" style="stroke:#000000;stroke-width:1.0;"/><line style="stroke:#000000;stroke-width:1.0;" x1="121.4249" x2="429.5301" y1="1450.9286" y2="1450.9286"/><text fill="#000000" font-family="Verdana" font-size="13" lengthAdjust="spacing" textLength="123.4872" x="128.4249" y="1445.1196">ELECTION_REQUEST</text><polygon fill="#000000" points="132.4249,1478.6346,122.4249,1482.6346,132.4249,1486.6346,128.4249,1482.6346" style="stroke:#000000;stroke-width:1.0;"/><line style="stroke:#000000;stroke-width:1.0;" x1="126.4249" x2="434.5301" y1="1482.6346" y2="1482.6346"/><text fill="#000000" font-family="Verdana" font-size="13" lengthAdjust="spacing" textLength="91.4941" x="138.4249" y="1476.8256">ELECTION_ACK</text><path d="M49,1495.6346 L49,1540.6346 L193,1540.6346 L193,1505.6346 L183,1495.6346 L49,1495.6346 " fill="#FFFFFF" style="stroke:#000000;stroke-width:1.0;"/><path d="M183,1495.6346 L183,1505.6346 L193,1505.6346 L183,1495.6346 " fill="#FFFFFF" style="stroke:#000000;stroke-width:1.0;"/><text fill="#000000" font-family="Verdana" font-size="13" lengthAdjust="spacing" textLength="123.6561" x="55" y="1514.5316">A stops timer due to</text><text fill="#000000" font-family="Verdana" font-size="13" lengthAdjust="spacing" textLength="97.3831" x="55" y="1532.2376">B's higher UUID</text><line style="stroke:#000000;stroke-width:1.0;" x1="121.4249" x2="163.4249" y1="1569.7526" y2="1569.7526"/><line style="stroke:#000000;stroke-width:1.0;" x1="163.4249" x2="163.4249" y1="1569.7526" y2="1582.7526"/><line style="stroke:#000000;stroke-width:1.0;" x1="122.4249" x2="163.4249" y1="1582.7526" y2="1582.7526"/><polygon fill="#000000" points="132.4249,1578.7526,122.4249,1582.7526,132.4249,1586.7526,128.4249,1582.7526" style="stroke:#000000;stroke-width:1.0;"/><text fill="#000000" font-family="Verdana" font-size="13" lengthAdjust="spacing" textLength="118.1181" x="128.4249" y="1563.9436">stopElectionTimer()</text><path d="M318,1595.7526 L318,1640.7526 L552,1640.7526 L552,1605.7526 L542,1595.7526 L318,1595.7526 " fill="#FFFFFF" style="stroke:#000000;stroke-width:1.0;"/><path d="M542,1595.7526 L542,1605.7526 L552,1605.7526 L542,1595.7526 " fill="#FFFFFF" style="stroke:#000000;stroke-width:1.0;"/><text fill="#000000" font-family="Verdana" font-size="13" lengthAdjust="spacing" textLength="105.2351" x="324" y="1614.6496">B's timer expires,</text><text fill="#000000" font-family="Verdana" font-size="13" lengthAdjust="spacing" textLength="213.6682" x="324" y="1632.3557">no higher UUID devices responded</text><line style="stroke:#000000;stroke-width:1.0;" x1="435.5301" x2="477.5301" y1="1669.8707" y2="1669.8707"/><line style="stroke:#000000;stroke-width:1.0;" x1="477.5301" x2="477.5301" y1="1669.8707" y2="1682.8707"/><line style="stroke:#000000;stroke-width:1.0;" x1="436.5301" x2="477.5301" y1="1682.8707" y2="1682.8707"/><polygon fill="#000000" points="446.5301,1678.8707,436.5301,1682.8707,446.5301,1686.8707,442.5301,1682.8707" style="stroke:#000000;stroke-width:1.0;"/><text fill="#000000" font-family="Verdana" font-size="13" lengthAdjust="spacing" textLength="130.6371" x="442.5301" y="1664.0617">becomeCoordinator()</text><polygon fill="#000000" points="132.4249,1710.5767,122.4249,1714.5767,132.4249,1718.5767,128.4249,1714.5767" style="stroke:#000000;stroke-width:1.0;"/><line style="stroke:#000000;stroke-width:1.0;" x1="126.4249" x2="434.5301" y1="1714.5767" y2="1714.5767"/><text fill="#000000" font-family="Verdana" font-size="13" lengthAdjust="spacing" textLength="106.4311" x="138.4249" y="1708.7677">CONFIGURATION</text><path d="M73,1727.5767 L73,1754.5767 L482,1754.5767 L482,1737.5767 L472,1727.5767 L73,1727.5767 " fill="#FFFFFF" style="stroke:#000000;stroke-width:1.0;"/><path d="M472,1727.5767 L472,1737.5767 L482,1737.5767 L472,1727.5767 " fill="#FFFFFF" style="stroke:#000000;stroke-width:1.0;"/><text fill="#000000" font-family="Verdana" font-size="13" lengthAdjust="spacing" textLength="238.4332" x="154.2609" y="1746.4737">Device B becomes the new coordinator</text><!--SRC=[bLJRZjem47tFLqptPK5Y7tflaQWKPzaABOMMonjIvKq6i9hOaMsW_7qdpXtIgZmW8S-SEJFdpEILtME2aCPSICyA6oEmGnoVOHnZQ8MIy5qhgq8LUrxAjHMXIBcqSFU8Hn4Y-1kvNayUX_3wpTixu0RypZHMfhrx_y6biSwqe4px-EcpImiyJogBe8wemHz0C8Go5VOKtulT7es533KeGxuBnUf44SyRZM26zgJqBrYYFQGm6kKrDM4jg2tuGnZpS0zH3az82ai_0rm2bZB4WcXEmkutCkL2cmpOon5-56aqPk2ww3l6IhsbfJ6X5oYb8o6vLHgcoXXgrL86HlsgdNp4OJr4v58CX0riJDYDv382anKsLN-U3mzVCZYFef9yIYr_m-G5TRjHB5er_GhbgfMubKW8GeEuA2DrfkDWDPdFVYx6FzRZvIeF11s12sK9oq1ZYEA8TQ-mrIeXDpSoL0cj0OLSEnuh-7PeSnNCIhccg1dsdvIK4dHG9ZGttz7aLwH1KRY357gOfFOC3wqz8s48a-jMTUC7pyKhktXjk-lNlSsVSo5SRUrARwHHv8LA3OY6kM0pHnfcgVJAgvgbBVhDBAK9dIoqsku_Z7-dGdC7Qoqm2JbJJRBYgZBXNNt038crxYz8Xc3ZG8WdA2ODvhEdoTVrmi_Kp5_PvUlVFn1vPGFqYMiUaPlYYOlue14Mb4FGyzKKasrTQ4l9vj-tKgjsqo4nwDYZout9hShLYmu8LcqakpTDbM_PZVkoLk44EICxBQCbCgcI4KRLU5rciKwpshQmoXRMiaNYgMND7m00]--></g></svg>