<svg xmlns="http://www.w3.org/2000/svg" xmlns:xlink="http://www.w3.org/1999/xlink" contentStyleType="text/css" height="1007px" preserveAspectRatio="none" style="width:848px;height:1007px;background:#FFFFFF;" version="1.1" viewBox="0 0 848 1007" width="848px" zoomAndPan="magnify"><defs/><g><rect fill="#FFFFFF" height="283.6481" style="stroke:#000000;stroke-width:1.0;" width="684.4093" x="25" y="539.8341"/><rect fill="#FFFFFF" height="96.118" style="stroke:#000000;stroke-width:1.0;" width="391.341" x="35" y="720.3642"/><line style="stroke:#000000;stroke-width:1.0;" x1="70" x2="70" y1="85.0679" y2="923.8943"/><line style="stroke:#000000;stroke-width:1.0;" x1="389.6592" x2="389.6592" y1="85.0679" y2="923.8943"/><line style="stroke:#000000;stroke-width:1.0;" x1="675.2555" x2="675.2555" y1="85.0679" y2="923.8943"/><text fill="#000000" font-family="Verdana" font-size="14" lengthAdjust="spacing" textLength="45.6818" x="45" y="80.9659">Client1</text><ellipse cx="70.8409" cy="14" fill="#FFFFFF" rx="8" ry="8" style="stroke:#000000;stroke-width:1.0;"/><path d="M70.8409,22 L70.8409,49 M57.8409,30 L83.8409,30 M70.8409,49 L57.8409,64 M70.8409,49 L83.8409,64 " fill="none" style="stroke:#000000;stroke-width:1.0;"/><text fill="#000000" font-family="Verdana" font-size="14" lengthAdjust="spacing" textLength="45.6818" x="45" y="937.8602">Client1</text><ellipse cx="70.8409" cy="950.9622" fill="#FFFFFF" rx="8" ry="8" style="stroke:#000000;stroke-width:1.0;"/><path d="M70.8409,958.9622 L70.8409,985.9622 M57.8409,966.9622 L83.8409,966.9622 M70.8409,985.9622 L57.8409,1000.9622 M70.8409,985.9622 L83.8409,1000.9622 " fill="none" style="stroke:#000000;stroke-width:1.0;"/><text fill="#000000" font-family="Verdana" font-size="14" lengthAdjust="spacing" textLength="45.6818" x="364.6592" y="80.9659">Client2</text><ellipse cx="390.5001" cy="14" fill="#FFFFFF" rx="8" ry="8" style="stroke:#000000;stroke-width:1.0;"/><path d="M390.5001,22 L390.5001,49 M377.5001,30 L403.5001,30 M390.5001,49 L377.5001,64 M390.5001,49 L403.5001,64 " fill="none" style="stroke:#000000;stroke-width:1.0;"/><text fill="#000000" font-family="Verdana" font-size="14" lengthAdjust="spacing" textLength="45.6818" x="364.6592" y="937.8602">Client2</text><ellipse cx="390.5001" cy="950.9622" fill="#FFFFFF" rx="8" ry="8" style="stroke:#000000;stroke-width:1.0;"/><path d="M390.5001,958.9622 L390.5001,985.9622 M377.5001,966.9622 L403.5001,966.9622 M390.5001,985.9622 L377.5001,1000.9622 M390.5001,985.9622 L403.5001,1000.9622 " fill="none" style="stroke:#000000;stroke-width:1.0;"/><text fill="#000000" font-family="Verdana" font-size="14" lengthAdjust="spacing" textLength="42.1538" x="651.2555" y="80.9659">Server</text><ellipse cx="675.3324" cy="14" fill="#FFFFFF" rx="8" ry="8" style="stroke:#000000;stroke-width:1.0;"/><path d="M675.3324,22 L675.3324,49 M662.3324,30 L688.3324,30 M675.3324,49 L662.3324,64 M675.3324,49 L688.3324,64 " fill="none" style="stroke:#000000;stroke-width:1.0;"/><text fill="#000000" font-family="Verdana" font-size="14" lengthAdjust="spacing" textLength="42.1538" x="651.2555" y="937.8602">Server</text><ellipse cx="675.3324" cy="950.9622" fill="#FFFFFF" rx="8" ry="8" style="stroke:#000000;stroke-width:1.0;"/><path d="M675.3324,958.9622 L675.3324,985.9622 M662.3324,966.9622 L688.3324,966.9622 M675.3324,985.9622 L662.3324,1000.9622 M675.3324,985.9622 L688.3324,1000.9622 " fill="none" style="stroke:#000000;stroke-width:1.0;"/><rect fill="#FFFFFF" height="3" style="stroke:#FFFFFF;stroke-width:1.0;" width="836.1595" x="5" y="116.9209"/><line style="stroke:#000000;stroke-width:0.5;" x1="5" x2="841.1595" y1="116.9209" y2="116.9209"/><line style="stroke:#000000;stroke-width:0.5;" x1="5" x2="841.1595" y1="119.9209" y2="119.9209"/><rect fill="#FFFFFF" height="25.706" style="stroke:#000000;stroke-width:1.0;" width="111.4611" x="367.3492" y="105.0679"/><text fill="#000000" font-family="Verdana" font-size="13" font-weight="bold" lengthAdjust="spacing" textLength="94.0811" x="373.3492" y="122.9649">Server Startup</text><line style="stroke:#000000;stroke-width:1.0;" x1="675.3324" x2="717.3324" y1="164.4799" y2="164.4799"/><line style="stroke:#000000;stroke-width:1.0;" x1="717.3324" x2="717.3324" y1="164.4799" y2="177.4799"/><line style="stroke:#000000;stroke-width:1.0;" x1="676.3324" x2="717.3324" y1="177.4799" y2="177.4799"/><polygon fill="#000000" points="686.3324,173.4799,676.3324,177.4799,686.3324,181.4799,682.3324,177.4799" style="stroke:#000000;stroke-width:1.0;"/><text fill="#000000" font-family="Verdana" font-size="13" lengthAdjust="spacing" textLength="135.5381" x="682.3324" y="158.6709">startBluetoothServer()</text><line style="stroke:#000000;stroke-width:1.0;" x1="675.3324" x2="717.3324" y1="209.186" y2="209.186"/><line style="stroke:#000000;stroke-width:1.0;" x1="717.3324" x2="717.3324" y1="209.186" y2="222.186"/><line style="stroke:#000000;stroke-width:1.0;" x1="676.3324" x2="717.3324" y1="222.186" y2="222.186"/><polygon fill="#000000" points="686.3324,218.186,676.3324,222.186,686.3324,226.186,682.3324,222.186" style="stroke:#000000;stroke-width:1.0;"/><text fill="#000000" font-family="Verdana" font-size="13" lengthAdjust="spacing" textLength="151.8271" x="682.3324" y="203.377">Instantiate ServerThread</text><line style="stroke:#000000;stroke-width:1.0;" x1="675.3324" x2="717.3324" y1="253.892" y2="253.892"/><line style="stroke:#000000;stroke-width:1.0;" x1="717.3324" x2="717.3324" y1="253.892" y2="266.892"/><line style="stroke:#000000;stroke-width:1.0;" x1="676.3324" x2="717.3324" y1="266.892" y2="266.892"/><polygon fill="#000000" points="686.3324,262.892,676.3324,266.892,686.3324,270.892,682.3324,266.892" style="stroke:#000000;stroke-width:1.0;"/><text fill="#000000" font-family="Verdana" font-size="13" lengthAdjust="spacing" textLength="105.5991" x="682.3324" y="248.083">Set MasterDevice</text><rect fill="#FFFFFF" height="3" style="stroke:#FFFFFF;stroke-width:1.0;" width="836.1595" x="5" y="296.745"/><line style="stroke:#000000;stroke-width:0.5;" x1="5" x2="841.1595" y1="296.745" y2="296.745"/><line style="stroke:#000000;stroke-width:0.5;" x1="5" x2="841.1595" y1="299.745" y2="299.745"/><rect fill="#FFFFFF" height="25.706" style="stroke:#000000;stroke-width:1.0;" width="202.4221" x="321.8687" y="284.892"/><text fill="#000000" font-family="Verdana" font-size="13" font-weight="bold" lengthAdjust="spacing" textLength="185.0421" x="327.8687" y="302.789">Client2 Connection to Server</text><polygon fill="#000000" points="663.3324,340.304,673.3324,344.304,663.3324,348.304,667.3324,344.304" style="stroke:#000000;stroke-width:1.0;"/><line style="stroke:#000000;stroke-width:1.0;" x1="390.5001" x2="669.3324" y1="344.304" y2="344.304"/><text fill="#000000" font-family="Verdana" font-size="13" lengthAdjust="spacing" textLength="111.2801" x="397.5001" y="338.495">Socket connection</text><polygon fill="#000000" points="401.5001,398.716,391.5001,402.716,401.5001,406.716,397.5001,402.716" style="stroke:#000000;stroke-width:1.0;"/><line style="stroke:#000000;stroke-width:1.0;" x1="395.5001" x2="674.3324" y1="402.716" y2="402.716"/><text fill="#000000" font-family="Verdana" font-size="13" lengthAdjust="spacing" textLength="260.8323" x="407.5001" y="396.907">CONFIGURATION (Empty MAC address list)</text><line style="stroke:#000000;stroke-width:1.0;" x1="390.5001" x2="432.5001" y1="434.4221" y2="434.4221"/><line style="stroke:#000000;stroke-width:1.0;" x1="432.5001" x2="432.5001" y1="434.4221" y2="447.4221"/><line style="stroke:#000000;stroke-width:1.0;" x1="391.5001" x2="432.5001" y1="447.4221" y2="447.4221"/><polygon fill="#000000" points="401.5001,443.4221,391.5001,447.4221,401.5001,451.4221,397.5001,447.4221" style="stroke:#000000;stroke-width:1.0;"/><text fill="#000000" font-family="Verdana" font-size="13" lengthAdjust="spacing" textLength="155.9221" x="397.5001" y="428.6131">Set MasterDevice (Server)</text><rect fill="#FFFFFF" height="3" style="stroke:#FFFFFF;stroke-width:1.0;" width="836.1595" x="5" y="477.2751"/><line style="stroke:#000000;stroke-width:0.5;" x1="5" x2="841.1595" y1="477.2751" y2="477.2751"/><line style="stroke:#000000;stroke-width:0.5;" x1="5" x2="841.1595" y1="480.2751" y2="480.2751"/><rect fill="#FFFFFF" height="25.706" style="stroke:#000000;stroke-width:1.0;" width="202.4221" x="321.8687" y="465.4221"/><text fill="#000000" font-family="Verdana" font-size="13" font-weight="bold" lengthAdjust="spacing" textLength="185.0421" x="327.8687" y="483.3191">Client1 Connection to Server</text><polygon fill="#000000" points="663.3324,520.8341,673.3324,524.8341,663.3324,528.8341,667.3324,524.8341" style="stroke:#000000;stroke-width:1.0;"/><line style="stroke:#000000;stroke-width:1.0;" x1="70.8409" x2="669.3324" y1="524.8341" y2="524.8341"/><text fill="#000000" font-family="Verdana" font-size="13" lengthAdjust="spacing" textLength="111.2801" x="77.8409" y="519.0251">Socket connection</text><path d="M25,539.8341 L87.459,539.8341 L87.459,549.5401 L77.459,559.5401 L25,559.5401 L25,539.8341 " fill="#FFFFFF" style="stroke:#000000;stroke-width:1.0;"/><rect fill="none" height="283.6481" style="stroke:#000000;stroke-width:1.0;" width="684.4093" x="25" y="539.8341"/><text fill="#000000" font-family="Verdana" font-size="13" font-weight="bold" lengthAdjust="spacing" textLength="17.459" x="40" y="554.7311">alt</text><text fill="#000000" font-family="Verdana" font-size="11" font-weight="bold" lengthAdjust="spacing" textLength="129.0071" x="102.459" y="553.593">[Connection successful]</text><polygon fill="#000000" points="81.8409,579.2461,71.8409,583.2461,81.8409,587.2461,77.8409,583.2461" style="stroke:#000000;stroke-width:1.0;"/><line style="stroke:#000000;stroke-width:1.0;" x1="75.8409" x2="674.3324" y1="583.2461" y2="583.2461"/><text fill="#000000" font-family="Verdana" font-size="13" lengthAdjust="spacing" textLength="285.8962" x="87.8409" y="577.4371">CONFIGURATION (MAC address connected list)</text><line style="stroke:#000000;stroke-width:1.0;" x1="70.8409" x2="112.8409" y1="614.9521" y2="614.9521"/><line style="stroke:#000000;stroke-width:1.0;" x1="112.8409" x2="112.8409" y1="614.9521" y2="627.9521"/><line style="stroke:#000000;stroke-width:1.0;" x1="71.8409" x2="112.8409" y1="627.9521" y2="627.9521"/><polygon fill="#000000" points="81.8409,623.9521,71.8409,627.9521,81.8409,631.9521,77.8409,627.9521" style="stroke:#000000;stroke-width:1.0;"/><text fill="#000000" font-family="Verdana" font-size="13" lengthAdjust="spacing" textLength="155.9221" x="77.8409" y="609.1431">Set MasterDevice (Server)</text><rect fill="#FFFFFF" height="3" style="stroke:#FFFFFF;stroke-width:1.0;" width="836.1595" x="5" y="657.8052"/><line style="stroke:#000000;stroke-width:0.5;" x1="5" x2="841.1595" y1="657.8052" y2="657.8052"/><line style="stroke:#000000;stroke-width:0.5;" x1="5" x2="841.1595" y1="660.8052" y2="660.8052"/><rect fill="#FFFFFF" height="25.706" style="stroke:#000000;stroke-width:1.0;" width="206.2051" x="319.9772" y="645.9521"/><text fill="#000000" font-family="Verdana" font-size="13" font-weight="bold" lengthAdjust="spacing" textLength="188.8251" x="325.9772" y="663.8492">Client1 Connection to Client2</text><polygon fill="#000000" points="378.5001,701.3642,388.5001,705.3642,378.5001,709.3642,382.5001,705.3642" style="stroke:#000000;stroke-width:1.0;"/><line style="stroke:#000000;stroke-width:1.0;" x1="70.8409" x2="384.5001" y1="705.3642" y2="705.3642"/><text fill="#000000" font-family="Verdana" font-size="13" lengthAdjust="spacing" textLength="111.2801" x="77.8409" y="699.5552">Socket connection</text><path d="M35,720.3642 L97.459,720.3642 L97.459,730.0702 L87.459,740.0702 L35,740.0702 L35,720.3642 " fill="#FFFFFF" style="stroke:#000000;stroke-width:1.0;"/><rect fill="none" height="96.118" style="stroke:#000000;stroke-width:1.0;" width="391.341" x="35" y="720.3642"/><text fill="#000000" font-family="Verdana" font-size="13" font-weight="bold" lengthAdjust="spacing" textLength="17.459" x="50" y="735.2612">alt</text><text fill="#000000" font-family="Verdana" font-size="11" font-weight="bold" lengthAdjust="spacing" textLength="129.0071" x="112.459" y="734.1231">[Connection successful]</text><polygon fill="#000000" points="81.8409,759.7762,71.8409,763.7762,81.8409,767.7762,77.8409,763.7762" style="stroke:#000000;stroke-width:1.0;"/><line style="stroke:#000000;stroke-width:1.0;" x1="75.8409" x2="389.5001" y1="763.7762" y2="763.7762"/><text fill="#000000" font-family="Verdana" font-size="13" lengthAdjust="spacing" textLength="295.6592" x="87.8409" y="757.9672">INFO_SHARING (Server address, readiness state)</text><line style="stroke:#000000;stroke-width:1.0;" x1="70.8409" x2="112.8409" y1="795.4822" y2="795.4822"/><line style="stroke:#000000;stroke-width:1.0;" x1="112.8409" x2="112.8409" y1="795.4822" y2="808.4822"/><line style="stroke:#000000;stroke-width:1.0;" x1="71.8409" x2="112.8409" y1="808.4822" y2="808.4822"/><polygon fill="#000000" points="81.8409,804.4822,71.8409,808.4822,81.8409,812.4822,77.8409,808.4822" style="stroke:#000000;stroke-width:1.0;"/><text fill="#000000" font-family="Verdana" font-size="13" lengthAdjust="spacing" textLength="120.6661" x="77.8409" y="789.6732">Update device state</text><rect fill="#FFFFFF" height="3" style="stroke:#FFFFFF;stroke-width:1.0;" width="836.1595" x="5" y="852.3352"/><line style="stroke:#000000;stroke-width:0.5;" x1="5" x2="841.1595" y1="852.3352" y2="852.3352"/><line style="stroke:#000000;stroke-width:0.5;" x1="5" x2="841.1595" y1="855.3352" y2="855.3352"/><rect fill="#FFFFFF" height="25.706" style="stroke:#000000;stroke-width:1.0;" width="181.5051" x="332.3272" y="840.4822"/><text fill="#000000" font-family="Verdana" font-size="13" font-weight="bold" lengthAdjust="spacing" textLength="164.1251" x="338.3272" y="858.3792">Fully Connected Network</text><path d="M235,881.1882 L235,908.1882 L544,908.1882 L544,891.1882 L534,881.1882 L235,881.1882 " fill="#FFFFFF" style="stroke:#000000;stroke-width:1.0;"/><path d="M534,881.1882 L534,891.1882 L544,891.1882 L534,881.1882 " fill="#FFFFFF" style="stroke:#000000;stroke-width:1.0;"/><text fill="#000000" font-family="Verdana" font-size="13" lengthAdjust="spacing" textLength="288.4703" x="241" y="900.0853">The fully connected network is now established</text><!--SRC=[hPBDRi8m48JlVehjZKZj8JqYfHAbXUP0a0YSApTU50jZHyu6nDlNIHn82gYgL9_yipCxtyeFbECUeL1SQiPuHiR2L4dK50vEp_wKeZsWPIoA_1PIufQg0gA8-Pkd5_ysXh9-V5KLaZ6KjxUZu4PXh5sf9ia9_TqwjyZ5ZT8K2HQy9BHlU90PDc5yIfWQhJ4ZQJIGwIAwQDrxtyTaEsULdHMCA-eRb5MMOLbkAyN0hKiIRpQ6wJAPnVFDQhAEbmcCtlS5dM0ncG8NmZefA5bIq6z-blwaW57h7_Hmmbzmml_42Qzm-Y3U5iK0AHp8xoFL_UvITTCPObq6zKUkgs6xP74oMtwc7vDLdCoxL1tQ8zJ_JEgQqlr1mg1dCmJS5AB-dwAbQuePQi4QGRjpbBDAgLCNq0qiGJeQkwlvj75oKpS_uwrpX6sZk8nOUuKiGPiZeElqvSQUe_W6]--></g></svg>