<svg xmlns="http://www.w3.org/2000/svg" xmlns:xlink="http://www.w3.org/1999/xlink" contentStyleType="text/css" height="1000px" preserveAspectRatio="none" style="width:945px;height:1000px;background:#FFFFFF;" version="1.1" viewBox="0 0 945 1000" width="945px" zoomAndPan="magnify"><defs/><g><rect fill="#FFFFFF" height="276.6481" style="stroke:#000000;stroke-width:1.0;" width="792.4093" x="24" y="539.8341"/><rect fill="#FFFFFF" height="96.118" style="stroke:#000000;stroke-width:1.0;" width="674.4093" x="132" y="713.3642"/><line style="stroke:#000000;stroke-width:1.0;" x1="167" x2="167" y1="85.0679" y2="916.8943"/><line style="stroke:#000000;stroke-width:1.0;" x1="486.6592" x2="486.6592" y1="85.0679" y2="916.8943"/><line style="stroke:#000000;stroke-width:1.0;" x1="772.2555" x2="772.2555" y1="85.0679" y2="916.8943"/><text fill="#000000" font-family="Verdana" font-size="14" lengthAdjust="spacing" textLength="45.6818" x="142" y="80.9659">Client1</text><ellipse cx="167.8409" cy="14" fill="#FFFFFF" rx="8" ry="8" style="stroke:#000000;stroke-width:1.0;"/><path d="M167.8409,22 L167.8409,49 M154.8409,30 L180.8409,30 M167.8409,49 L154.8409,64 M167.8409,49 L180.8409,64 " fill="none" style="stroke:#000000;stroke-width:1.0;"/><text fill="#000000" font-family="Verdana" font-size="14" lengthAdjust="spacing" textLength="45.6818" x="142" y="930.8602">Client1</text><ellipse cx="167.8409" cy="943.9622" fill="#FFFFFF" rx="8" ry="8" style="stroke:#000000;stroke-width:1.0;"/><path d="M167.8409,951.9622 L167.8409,978.9622 M154.8409,959.9622 L180.8409,959.9622 M167.8409,978.9622 L154.8409,993.9622 M167.8409,978.9622 L180.8409,993.9622 " fill="none" style="stroke:#000000;stroke-width:1.0;"/><text fill="#000000" font-family="Verdana" font-size="14" lengthAdjust="spacing" textLength="45.6818" x="461.6592" y="80.9659">Client2</text><ellipse cx="487.5001" cy="14" fill="#FFFFFF" rx="8" ry="8" style="stroke:#000000;stroke-width:1.0;"/><path d="M487.5001,22 L487.5001,49 M474.5001,30 L500.5001,30 M487.5001,49 L474.5001,64 M487.5001,49 L500.5001,64 " fill="none" style="stroke:#000000;stroke-width:1.0;"/><text fill="#000000" font-family="Verdana" font-size="14" lengthAdjust="spacing" textLength="45.6818" x="461.6592" y="930.8602">Client2</text><ellipse cx="487.5001" cy="943.9622" fill="#FFFFFF" rx="8" ry="8" style="stroke:#000000;stroke-width:1.0;"/><path d="M487.5001,951.9622 L487.5001,978.9622 M474.5001,959.9622 L500.5001,959.9622 M487.5001,978.9622 L474.5001,993.9622 M487.5001,978.9622 L500.5001,993.9622 " fill="none" style="stroke:#000000;stroke-width:1.0;"/><text fill="#000000" font-family="Verdana" font-size="14" lengthAdjust="spacing" textLength="42.1538" x="748.2555" y="80.9659">Server</text><ellipse cx="772.3324" cy="14" fill="#FFFFFF" rx="8" ry="8" style="stroke:#000000;stroke-width:1.0;"/><path d="M772.3324,22 L772.3324,49 M759.3324,30 L785.3324,30 M772.3324,49 L759.3324,64 M772.3324,49 L785.3324,64 " fill="none" style="stroke:#000000;stroke-width:1.0;"/><text fill="#000000" font-family="Verdana" font-size="14" lengthAdjust="spacing" textLength="42.1538" x="748.2555" y="930.8602">Server</text><ellipse cx="772.3324" cy="943.9622" fill="#FFFFFF" rx="8" ry="8" style="stroke:#000000;stroke-width:1.0;"/><path d="M772.3324,951.9622 L772.3324,978.9622 M759.3324,959.9622 L785.3324,959.9622 M772.3324,978.9622 L759.3324,993.9622 M772.3324,978.9622 L785.3324,993.9622 " fill="none" style="stroke:#000000;stroke-width:1.0;"/><rect fill="#FFFFFF" height="3" style="stroke:#FFFFFF;stroke-width:1.0;" width="933.1595" x="5" y="116.9209"/><line style="stroke:#000000;stroke-width:0.5;" x1="5" x2="938.1595" y1="116.9209" y2="116.9209"/><line style="stroke:#000000;stroke-width:0.5;" x1="5" x2="938.1595" y1="119.9209" y2="119.9209"/><rect fill="#FFFFFF" height="25.706" style="stroke:#000000;stroke-width:1.0;" width="111.4611" x="415.8492" y="105.0679"/><text fill="#000000" font-family="Verdana" font-size="13" font-weight="bold" lengthAdjust="spacing" textLength="94.0811" x="421.8492" y="122.9649">Server Startup</text><line style="stroke:#000000;stroke-width:1.0;" x1="772.3324" x2="814.3324" y1="164.4799" y2="164.4799"/><line style="stroke:#000000;stroke-width:1.0;" x1="814.3324" x2="814.3324" y1="164.4799" y2="177.4799"/><line style="stroke:#000000;stroke-width:1.0;" x1="773.3324" x2="814.3324" y1="177.4799" y2="177.4799"/><polygon fill="#000000" points="783.3324,173.4799,773.3324,177.4799,783.3324,181.4799,779.3324,177.4799" style="stroke:#000000;stroke-width:1.0;"/><text fill="#000000" font-family="Verdana" font-size="13" lengthAdjust="spacing" textLength="135.5381" x="779.3324" y="158.6709">startBluetoothServer()</text><line style="stroke:#000000;stroke-width:1.0;" x1="772.3324" x2="814.3324" y1="209.186" y2="209.186"/><line style="stroke:#000000;stroke-width:1.0;" x1="814.3324" x2="814.3324" y1="209.186" y2="222.186"/><line style="stroke:#000000;stroke-width:1.0;" x1="773.3324" x2="814.3324" y1="222.186" y2="222.186"/><polygon fill="#000000" points="783.3324,218.186,773.3324,222.186,783.3324,226.186,779.3324,222.186" style="stroke:#000000;stroke-width:1.0;"/><text fill="#000000" font-family="Verdana" font-size="13" lengthAdjust="spacing" textLength="151.8271" x="779.3324" y="203.377">Instantiate ServerThread</text><line style="stroke:#000000;stroke-width:1.0;" x1="772.3324" x2="814.3324" y1="253.892" y2="253.892"/><line style="stroke:#000000;stroke-width:1.0;" x1="814.3324" x2="814.3324" y1="253.892" y2="266.892"/><line style="stroke:#000000;stroke-width:1.0;" x1="773.3324" x2="814.3324" y1="266.892" y2="266.892"/><polygon fill="#000000" points="783.3324,262.892,773.3324,266.892,783.3324,270.892,779.3324,266.892" style="stroke:#000000;stroke-width:1.0;"/><text fill="#000000" font-family="Verdana" font-size="13" lengthAdjust="spacing" textLength="105.5991" x="779.3324" y="248.083">Set MasterDevice</text><rect fill="#FFFFFF" height="3" style="stroke:#FFFFFF;stroke-width:1.0;" width="933.1595" x="5" y="296.745"/><line style="stroke:#000000;stroke-width:0.5;" x1="5" x2="938.1595" y1="296.745" y2="296.745"/><line style="stroke:#000000;stroke-width:0.5;" x1="5" x2="938.1595" y1="299.745" y2="299.745"/><rect fill="#FFFFFF" height="25.706" style="stroke:#000000;stroke-width:1.0;" width="202.4221" x="370.3687" y="284.892"/><text fill="#000000" font-family="Verdana" font-size="13" font-weight="bold" lengthAdjust="spacing" textLength="185.0421" x="376.3687" y="302.789">Client2 Connection to Server</text><polygon fill="#000000" points="760.3324,340.304,770.3324,344.304,760.3324,348.304,764.3324,344.304" style="stroke:#000000;stroke-width:1.0;"/><line style="stroke:#000000;stroke-width:1.0;" x1="487.5001" x2="766.3324" y1="344.304" y2="344.304"/><text fill="#000000" font-family="Verdana" font-size="13" lengthAdjust="spacing" textLength="111.2801" x="494.5001" y="338.495">Socket connection</text><polygon fill="#000000" points="498.5001,398.716,488.5001,402.716,498.5001,406.716,494.5001,402.716" style="stroke:#000000;stroke-width:1.0;"/><line style="stroke:#000000;stroke-width:1.0;" x1="492.5001" x2="771.3324" y1="402.716" y2="402.716"/><text fill="#000000" font-family="Verdana" font-size="13" lengthAdjust="spacing" textLength="260.8323" x="504.5001" y="396.907">CONFIGURATION (Empty MAC address list)</text><line style="stroke:#000000;stroke-width:1.0;" x1="487.5001" x2="529.5001" y1="434.4221" y2="434.4221"/><line style="stroke:#000000;stroke-width:1.0;" x1="529.5001" x2="529.5001" y1="434.4221" y2="447.4221"/><line style="stroke:#000000;stroke-width:1.0;" x1="488.5001" x2="529.5001" y1="447.4221" y2="447.4221"/><polygon fill="#000000" points="498.5001,443.4221,488.5001,447.4221,498.5001,451.4221,494.5001,447.4221" style="stroke:#000000;stroke-width:1.0;"/><text fill="#000000" font-family="Verdana" font-size="13" lengthAdjust="spacing" textLength="155.9221" x="494.5001" y="428.6131">Set MasterDevice (Server)</text><rect fill="#FFFFFF" height="3" style="stroke:#FFFFFF;stroke-width:1.0;" width="933.1595" x="5" y="477.2751"/><line style="stroke:#000000;stroke-width:0.5;" x1="5" x2="938.1595" y1="477.2751" y2="477.2751"/><line style="stroke:#000000;stroke-width:0.5;" x1="5" x2="938.1595" y1="480.2751" y2="480.2751"/><rect fill="#FFFFFF" height="25.706" style="stroke:#000000;stroke-width:1.0;" width="206.2051" x="368.4772" y="465.4221"/><text fill="#000000" font-family="Verdana" font-size="13" font-weight="bold" lengthAdjust="spacing" textLength="188.8251" x="374.4772" y="483.3191">Client1 Connection to Client2</text><polygon fill="#000000" points="475.5001,520.8341,485.5001,524.8341,475.5001,528.8341,479.5001,524.8341" style="stroke:#000000;stroke-width:1.0;"/><line style="stroke:#000000;stroke-width:1.0;" x1="167.8409" x2="481.5001" y1="524.8341" y2="524.8341"/><text fill="#000000" font-family="Verdana" font-size="13" lengthAdjust="spacing" textLength="111.2801" x="174.8409" y="519.0251">Socket connection</text><path d="M24,539.8341 L86.459,539.8341 L86.459,549.5401 L76.459,559.5401 L24,559.5401 L24,539.8341 " fill="#FFFFFF" style="stroke:#000000;stroke-width:1.0;"/><rect fill="none" height="276.6481" style="stroke:#000000;stroke-width:1.0;" width="792.4093" x="24" y="539.8341"/><text fill="#000000" font-family="Verdana" font-size="13" font-weight="bold" lengthAdjust="spacing" textLength="17.459" x="39" y="554.7311">alt</text><text fill="#000000" font-family="Verdana" font-size="11" font-weight="bold" lengthAdjust="spacing" textLength="129.0071" x="101.459" y="553.593">[Connection successful]</text><polygon fill="#000000" points="178.8409,579.2461,168.8409,583.2461,178.8409,587.2461,174.8409,583.2461" style="stroke:#000000;stroke-width:1.0;"/><line style="stroke:#000000;stroke-width:1.0;" x1="172.8409" x2="486.5001" y1="583.2461" y2="583.2461"/><text fill="#000000" font-family="Verdana" font-size="13" lengthAdjust="spacing" textLength="295.6592" x="184.8409" y="577.4371">INFO_SHARING (Server address, readiness state)</text><path d="M34,596.2461 L34,623.2461 L301,623.2461 L301,606.2461 L291,596.2461 L34,596.2461 " fill="#FFFFFF" style="stroke:#000000;stroke-width:1.0;"/><path d="M291,596.2461 L291,606.2461 L301,606.2461 L291,596.2461 " fill="#FFFFFF" style="stroke:#000000;stroke-width:1.0;"/><text fill="#000000" font-family="Verdana" font-size="13" lengthAdjust="spacing" textLength="246.3242" x="40" y="615.1431">Master address found in INFO_SHARING</text><rect fill="#FFFFFF" height="3" style="stroke:#FFFFFF;stroke-width:1.0;" width="933.1595" x="5" y="650.8052"/><line style="stroke:#000000;stroke-width:0.5;" x1="5" x2="938.1595" y1="650.8052" y2="650.8052"/><line style="stroke:#000000;stroke-width:0.5;" x1="5" x2="938.1595" y1="653.8052" y2="653.8052"/><rect fill="#FFFFFF" height="25.706" style="stroke:#000000;stroke-width:1.0;" width="202.4221" x="370.3687" y="638.9521"/><text fill="#000000" font-family="Verdana" font-size="13" font-weight="bold" lengthAdjust="spacing" textLength="185.0421" x="376.3687" y="656.8492">Client1 Connection to Server</text><polygon fill="#000000" points="760.3324,694.3642,770.3324,698.3642,760.3324,702.3642,764.3324,698.3642" style="stroke:#000000;stroke-width:1.0;"/><line style="stroke:#000000;stroke-width:1.0;" x1="167.8409" x2="766.3324" y1="698.3642" y2="698.3642"/><text fill="#000000" font-family="Verdana" font-size="13" lengthAdjust="spacing" textLength="111.2801" x="174.8409" y="692.5552">Socket connection</text><path d="M132,713.3642 L194.459,713.3642 L194.459,723.0702 L184.459,733.0702 L132,733.0702 L132,713.3642 " fill="#FFFFFF" style="stroke:#000000;stroke-width:1.0;"/><rect fill="none" height="96.118" style="stroke:#000000;stroke-width:1.0;" width="674.4093" x="132" y="713.3642"/><text fill="#000000" font-family="Verdana" font-size="13" font-weight="bold" lengthAdjust="spacing" textLength="17.459" x="147" y="728.2612">alt</text><text fill="#000000" font-family="Verdana" font-size="11" font-weight="bold" lengthAdjust="spacing" textLength="129.0071" x="209.459" y="727.1231">[Connection successful]</text><polygon fill="#000000" points="178.8409,752.7762,168.8409,756.7762,178.8409,760.7762,174.8409,756.7762" style="stroke:#000000;stroke-width:1.0;"/><line style="stroke:#000000;stroke-width:1.0;" x1="172.8409" x2="771.3324" y1="756.7762" y2="756.7762"/><text fill="#000000" font-family="Verdana" font-size="13" lengthAdjust="spacing" textLength="285.8962" x="184.8409" y="750.9672">CONFIGURATION (MAC address connected list)</text><line style="stroke:#000000;stroke-width:1.0;" x1="167.8409" x2="209.8409" y1="788.4822" y2="788.4822"/><line style="stroke:#000000;stroke-width:1.0;" x1="209.8409" x2="209.8409" y1="788.4822" y2="801.4822"/><line style="stroke:#000000;stroke-width:1.0;" x1="168.8409" x2="209.8409" y1="801.4822" y2="801.4822"/><polygon fill="#000000" points="178.8409,797.4822,168.8409,801.4822,178.8409,805.4822,174.8409,801.4822" style="stroke:#000000;stroke-width:1.0;"/><text fill="#000000" font-family="Verdana" font-size="13" lengthAdjust="spacing" textLength="155.9221" x="174.8409" y="782.6732">Set MasterDevice (Server)</text><rect fill="#FFFFFF" height="3" style="stroke:#FFFFFF;stroke-width:1.0;" width="933.1595" x="5" y="845.3352"/><line style="stroke:#000000;stroke-width:0.5;" x1="5" x2="938.1595" y1="845.3352" y2="845.3352"/><line style="stroke:#000000;stroke-width:0.5;" x1="5" x2="938.1595" y1="848.3352" y2="848.3352"/><rect fill="#FFFFFF" height="25.706" style="stroke:#000000;stroke-width:1.0;" width="181.5051" x="380.8272" y="833.4822"/><text fill="#000000" font-family="Verdana" font-size="13" font-weight="bold" lengthAdjust="spacing" textLength="164.1251" x="386.8272" y="851.3792">Fully Connected Network</text><path d="M332,874.1882 L332,901.1882 L641,901.1882 L641,884.1882 L631,874.1882 L332,874.1882 " fill="#FFFFFF" style="stroke:#000000;stroke-width:1.0;"/><path d="M631,874.1882 L631,884.1882 L641,884.1882 L631,874.1882 " fill="#FFFFFF" style="stroke:#000000;stroke-width:1.0;"/><text fill="#000000" font-family="Verdana" font-size="13" lengthAdjust="spacing" textLength="288.4703" x="338" y="893.0853">The fully connected network is now established</text><!--SRC=[dP4nRuCm48Lt_uhh5gHse6CaAgMqIHb2f93EbMikmefZH-P8b7zV4mm1cWmj0yBdkyTxzprGWNk4W-9ICyO56GknagWf79oU_Ib3UqJBM1JvJyY8MweE44NCLvvU_DqKolhoLLL8nb3HL2V1ZSP4krPDaXFwsgQmoFCRhHaIB7b9QD_mA0LUp7YN41kjKP0q6iYq5fsrzhwlOyJEIObkWd55VO6o4WBBSbif1kwvEl5YKuXNwJnPVAvdcsILmkHzVw0pB6Sny3otRXIKB2de_xmR7QU0IQCVzEA4epYjJfSd74h-CT0lMw7ZaCvNNzd7R9saYzPIc-OHQY9Iry4SBSA0QUDucRgdKsX2THlOcahd8FL0-Nx4CR7mlyJ6jC9VjFgSl2Jc0sBXOFm-CTGvOytR1PjNIfrRLqunHJePkwipZTVbe6qAXErbukf1-mbPWZOdGBViR-UhmFm7]--></g></svg>