<svg xmlns="http://www.w3.org/2000/svg" xmlns:xlink="http://www.w3.org/1999/xlink" contentStyleType="text/css" data-diagram-type="STATE" height="1080px" preserveAspectRatio="none" style="width:1737px;height:1080px;background:#FFFFFF;" version="1.1" viewBox="0 0 1737 1080" width="1737px" zoomAndPan="magnify"><defs/><g><!--cluster RoleChoice--><g class="cluster" data-entity="RoleChoice" data-source-line="5" data-uid="ent0002" id="cluster_RoleChoice"><path d="M1308.5,152.96 L1389.5,152.96 A12.5,12.5 0 0 1 1402,165.46 L1402,174.2569 L1296,174.2569 L1296,165.46 A12.5,12.5 0 0 1 1308.5,152.96" fill="#F1F1F1" style="stroke:#F1F1F1;stroke-width:1;"/><rect fill="none" height="87" rx="12.5" ry="12.5" style="stroke:#181818;stroke-width:0.5;" width="106" x="1296" y="152.96"/><line style="stroke:#181818;stroke-width:0.5;" x1="1296" x2="1402" y1="174.2569" y2="174.2569"/><text fill="#000000" font-family="sans-serif" font-size="14" lengthAdjust="spacing" textLength="90.6035" x="1303.6982" y="169.9551">Initial Choice</text></g><!--cluster ServerPath--><g class="cluster" data-entity="ServerPath" data-source-line="12" data-uid="ent0003" id="cluster_ServerPath"><path d="M1399.5,304.96 L1646.5,304.96 A12.5,12.5 0 0 1 1659,317.46 L1659,326.2569 L1387,326.2569 L1387,317.46 A12.5,12.5 0 0 1 1399.5,304.96" fill="#F1F1F1" style="stroke:#F1F1F1;stroke-width:1;"/><rect fill="none" height="388" rx="12.5" ry="12.5" style="stroke:#181818;stroke-width:0.5;" width="272" x="1387" y="304.96"/><line style="stroke:#181818;stroke-width:0.5;" x1="1387" x2="1659" y1="326.2569" y2="326.2569"/><text fill="#000000" font-family="sans-serif" font-size="14" lengthAdjust="spacing" textLength="77.2939" x="1484.353" y="321.9551">ServerPath</text></g><!--cluster ClientPath--><g class="cluster" data-entity="ClientPath" data-source-line="19" data-uid="ent0004" id="cluster_ClientPath"><path d="M1151.5,304.96 L1334.5,304.96 A12.5,12.5 0 0 1 1347,317.46 L1347,326.2569 L1139,326.2569 L1139,317.46 A12.5,12.5 0 0 1 1151.5,304.96" fill="#F1F1F1" style="stroke:#F1F1F1;stroke-width:1;"/><rect fill="none" height="253" rx="12.5" ry="12.5" style="stroke:#181818;stroke-width:0.5;" width="208" x="1139" y="304.96"/><line style="stroke:#181818;stroke-width:0.5;" x1="1139" x2="1347" y1="326.2569" y2="326.2569"/><text fill="#000000" font-family="sans-serif" font-size="14" lengthAdjust="spacing" textLength="71.9141" x="1207.043" y="321.9551">ClientPath</text></g><!--cluster WaitingForReady--><g class="cluster" data-entity="WaitingForReady" data-source-line="27" data-uid="ent0005" id="cluster_WaitingForReady"><path d="M1151.5,757.96 L1346.5,757.96 A12.5,12.5 0 0 1 1359,770.46 L1359,779.2569 L1139,779.2569 L1139,770.46 A12.5,12.5 0 0 1 1151.5,757.96" fill="#F1F1F1" style="stroke:#F1F1F1;stroke-width:1;"/><rect fill="none" height="317" rx="12.5" ry="12.5" style="stroke:#181818;stroke-width:0.5;" width="220" x="1139" y="757.96"/><line style="stroke:#181818;stroke-width:0.5;" x1="1139" x2="1359" y1="779.2569" y2="779.2569"/><text fill="#000000" font-family="sans-serif" font-size="14" lengthAdjust="spacing" textLength="119.916" x="1189.042" y="774.9551">WaitingForReady</text></g><!--cluster DeviceStatus--><g class="cluster" data-entity="DeviceStatus" data-uid="ent0002" id="cluster_DeviceStatus"><path d="M509.5,101.96 L1094.5,101.96 A12.5,12.5 0 0 1 1107,114.46 L1107,123.2569 L497,123.2569 L497,114.46 A12.5,12.5 0 0 1 509.5,101.96" fill="#F1F1F1" style="stroke:#F1F1F1;stroke-width:1;"/><rect fill="none" height="745" rx="12.5" ry="12.5" style="stroke:#181818;stroke-width:0.5;" width="610" x="497" y="101.96"/><line style="stroke:#181818;stroke-width:0.5;" x1="497" x2="1107" y1="123.2569" y2="123.2569"/><text fill="#000000" font-family="sans-serif" font-size="14" lengthAdjust="spacing" textLength="92.4902" x="755.7549" y="118.9551">DeviceStatus</text></g><!--cluster IN_GAME--><g class="cluster" data-entity="IN_GAME" data-source-line="36" data-uid="ent0006" id="cluster_IN_GAME"><path d="M541.5,152.96 L668.5,152.96 A12.5,12.5 0 0 1 681,165.46 L681,174.2569 L529,174.2569 L529,165.46 A12.5,12.5 0 0 1 541.5,152.96" fill="#F1F1F1" style="stroke:#F1F1F1;stroke-width:1;"/><rect fill="none" height="249" rx="12.5" ry="12.5" style="stroke:#181818;stroke-width:0.5;" width="152" x="529" y="152.96"/><line style="stroke:#181818;stroke-width:0.5;" x1="529" x2="681" y1="174.2569" y2="174.2569"/><text fill="#000000" font-family="sans-serif" font-size="14" lengthAdjust="spacing" textLength="62.9521" x="573.5239" y="169.9551">IN_GAME</text></g><!--cluster IN_GAME_WAITING--><g class="cluster" data-entity="IN_GAME_WAITING" data-source-line="45" data-uid="ent0007" id="cluster_IN_GAME_WAITING"><path d="M733.5,152.96 L924.5,152.96 A12.5,12.5 0 0 1 937,165.46 L937,174.2569 L721,174.2569 L721,165.46 A12.5,12.5 0 0 1 733.5,152.96" fill="#F1F1F1" style="stroke:#F1F1F1;stroke-width:1;"/><rect fill="none" height="405" rx="12.5" ry="12.5" style="stroke:#181818;stroke-width:0.5;" width="216" x="721" y="152.96"/><line style="stroke:#181818;stroke-width:0.5;" x1="721" x2="937" y1="174.2569" y2="174.2569"/><text fill="#000000" font-family="sans-serif" font-size="14" lengthAdjust="spacing" textLength="131.5029" x="763.2485" y="169.9551">IN_GAME_WAITING</text></g><!--cluster GameStatus--><g class="cluster" data-entity="GameStatus" data-uid="ent0003" id="cluster_GameStatus"><path d="M19.5,458.96 L460.5,458.96 A12.5,12.5 0 0 1 473,471.46 L473,480.2569 L7,480.2569 L7,471.46 A12.5,12.5 0 0 1 19.5,458.96" fill="#F1F1F1" style="stroke:#F1F1F1;stroke-width:1;"/><rect fill="none" height="91" rx="12.5" ry="12.5" style="stroke:#181818;stroke-width:0.5;" width="466" x="7" y="458.96"/><line style="stroke:#181818;stroke-width:0.5;" x1="7" x2="473" y1="480.2569" y2="480.2569"/><text fill="#000000" font-family="sans-serif" font-size="14" lengthAdjust="spacing" textLength="86.29" x="196.855" y="475.9551">GameStatus</text></g><ellipse cx="1339" cy="205.96" fill="#222222" rx="10" ry="10" style="stroke:#222222;stroke-width:1;"/><ellipse cx="1446" cy="357.96" fill="#222222" rx="10" ry="10" style="stroke:#222222;stroke-width:1;"/><rect fill="#F1F1F1" height="40" rx="12.5" ry="12.5" style="stroke:#181818;stroke-width:0.5;" width="146.7598" x="1410.62" y="493.96"/><text fill="#000000" font-family="sans-serif" font-size="14" lengthAdjust="spacing" textLength="136.7598" x="1415.62" y="518.8067">ServerDiscoverable</text><rect fill="#F1F1F1" height="40" rx="12.5" ry="12.5" style="stroke:#181818;stroke-width:0.5;" width="133.6484" x="1414.18" y="628.96"/><text fill="#000000" font-family="sans-serif" font-size="14" lengthAdjust="spacing" textLength="123.6484" x="1419.18" y="653.8067">WaitingForClients</text><ellipse cx="1239" cy="357.96" fill="#222222" rx="10" ry="10" style="stroke:#222222;stroke-width:1;"/><rect fill="#F1F1F1" height="40" rx="12.5" ry="12.5" style="stroke:#181818;stroke-width:0.5;" width="152.5635" x="1162.72" y="493.96"/><text fill="#000000" font-family="sans-serif" font-size="14" lengthAdjust="spacing" textLength="142.5635" x="1167.72" y="518.8067">ConnectingToServer</text><ellipse cx="1245" cy="810.96" fill="#222222" rx="10" ry="10" style="stroke:#222222;stroke-width:1;"/><rect fill="#F1F1F1" height="40" rx="12.5" ry="12.5" style="stroke:#181818;stroke-width:0.5;" width="163.4189" x="1163.29" y="893.96"/><text fill="#000000" font-family="sans-serif" font-size="14" lengthAdjust="spacing" textLength="153.4189" x="1168.29" y="918.8067">CheckingReadyStatus</text><rect fill="#F1F1F1" height="40" rx="12.5" ry="12.5" style="stroke:#181818;stroke-width:0.5;" width="71.4482" x="1171.28" y="1010.96"/><text fill="#000000" font-family="sans-serif" font-size="14" lengthAdjust="spacing" textLength="61.4482" x="1176.28" y="1035.8067">AllReady</text><rect fill="#F1F1F1" height="40" rx="12.5" ry="12.5" style="stroke:#181818;stroke-width:0.5;" width="129.1777" x="961.41" y="185.96"/><text fill="#000000" font-family="sans-serif" font-size="14" lengthAdjust="spacing" textLength="119.1777" x="966.41" y="210.8067">NOT_INITIALIZED</text><rect fill="#F1F1F1" height="40" rx="12.5" ry="12.5" style="stroke:#181818;stroke-width:0.5;" width="78.1816" x="991.91" y="628.96"/><text fill="#000000" font-family="sans-serif" font-size="14" lengthAdjust="spacing" textLength="68.1816" x="996.91" y="653.8067">IN_LOBBY</text><rect fill="#F1F1F1" height="40" rx="12.5" ry="12.5" style="stroke:#181818;stroke-width:0.5;" width="57.4824" x="887.26" y="790.96"/><text fill="#000000" font-family="sans-serif" font-size="14" lengthAdjust="spacing" textLength="47.4824" x="892.26" y="815.8067">READY</text><ellipse cx="609" cy="205.96" fill="#222222" rx="10" ry="10" style="stroke:#222222;stroke-width:1;"/><rect fill="#F1F1F1" height="40" rx="12.5" ry="12.5" style="stroke:#181818;stroke-width:0.5;" width="95.2305" x="561.38" y="337.96"/><text fill="#000000" font-family="sans-serif" font-size="14" lengthAdjust="spacing" textLength="85.2305" x="566.38" y="362.8067">ActiveGame</text><ellipse cx="828" cy="205.96" fill="#222222" rx="10" ry="10" style="stroke:#222222;stroke-width:1;"/><rect fill="#F1F1F1" height="40" rx="12.5" ry="12.5" style="stroke:#181818;stroke-width:0.5;" width="150.4443" x="752.78" y="337.96"/><text fill="#000000" font-family="sans-serif" font-size="14" lengthAdjust="spacing" textLength="140.4443" x="757.78" y="362.8067">CheckingAllFinished</text><rect fill="#F1F1F1" height="40" rx="12.5" ry="12.5" style="stroke:#181818;stroke-width:0.5;" width="134.209" x="765.9" y="493.96"/><text fill="#000000" font-family="sans-serif" font-size="14" lengthAdjust="spacing" textLength="124.209" x="770.9" y="518.8067">EveryoneFinished</text><rect fill="#F1F1F1" height="40" rx="12.5" ry="12.5" style="stroke:#181818;stroke-width:0.5;" width="74.9209" x="22.54" y="493.96"/><text fill="#000000" font-family="sans-serif" font-size="14" lengthAdjust="spacing" textLength="64.9209" x="27.54" y="518.8067">STARTED</text><rect fill="#F1F1F1" height="40" rx="12.5" ry="12.5" style="stroke:#181818;stroke-width:0.5;" width="143.499" x="132.25" y="493.96"/><text fill="#000000" font-family="sans-serif" font-size="14" lengthAdjust="spacing" textLength="133.499" x="137.25" y="518.8067">FINISHED_NORMAL</text><rect fill="#F1F1F1" height="40" rx="12.5" ry="12.5" style="stroke:#181818;stroke-width:0.5;" width="146.2471" x="310.88" y="493.96"/><text fill="#000000" font-family="sans-serif" font-size="14" lengthAdjust="spacing" textLength="136.2471" x="315.88" y="518.8067">FINISHED_TIMEOUT</text><ellipse cx="1026" cy="28.96" fill="#222222" rx="10" ry="10" style="stroke:#222222;stroke-width:1;"/><!--link *start* to NOT_INITIALIZED--><g class="link" data-entity-1="*start*" data-entity-2="NOT_INITIALIZED" data-source-line="3" data-uid="lnk4" id="link_*start*_NOT_INITIALIZED"><path d="M1026,39.37 C1026,66.99 1026,142.22 1026,179.66" fill="none" id="*start*-to-NOT_INITIALIZED" style="stroke:#181818;stroke-width:1;"/><polygon fill="#181818" points="1026,185.66,1030,176.66,1026,180.66,1022,176.66,1026,185.66" style="stroke:#181818;stroke-width:1;"/><text fill="#000000" font-family="sans-serif" font-size="13" lengthAdjust="spacing" textLength="57.1543" x="1027" y="82.0269">AppStart</text></g><!--link *start*RoleChoice to ServerPath--><g class="link" data-entity-1="*start*RoleChoice" data-entity-2="ServerPath" data-source-line="6" data-uid="lnk6" id="link_*start*RoleChoice_ServerPath"><path d="M1338.77,216.16 C1339.04,227.41 1341.35,246.16 1353,255.96 C1365.83,266.75 1411.34,262.1 1428,263.96 C1475.8,269.29 1608.97,254.97 1643,288.96 C1645.6075,291.5638 1647.7008,294.5341 1649.3662,297.744 C1650.1988,299.3489 1650.9245,301.0138 1651.5541,302.7227 C1651.7114,303.1499 1651.8628,303.5799 1652.0083,304.0124 C1652.0811,304.2286 1650.3172,298.733 1650.3871,298.9505" fill="none" id="*start*RoleChoice-to-ServerPath" style="stroke:#181818;stroke-width:1;"/><polygon fill="#181818" points="1652.2223,304.663,1653.2778,294.8708,1650.6929,299.9026,1645.6612,297.3177,1652.2223,304.663" style="stroke:#181818;stroke-width:1;"/><text fill="#000000" font-family="sans-serif" font-size="13" lengthAdjust="spacing" textLength="98.9663" x="1631" y="277.0269">"Create Lobby"</text></g><!--link *start*RoleChoice to ClientPath--><g class="link" data-entity-1="*start*RoleChoice" data-entity-2="ClientPath" data-source-line="7" data-uid="lnk7" id="link_*start*RoleChoice_ClientPath"><path d="M1339,216.34 C1339,232.505 1339,266.8225 1339,297.5075 C1339,299.4253 1339,301.3289 1339,303.2131 C1339,303.6841 1339,298.1539 1339,298.6224" fill="none" id="*start*RoleChoice-to-ClientPath" style="stroke:#181818;stroke-width:1;"/><polygon fill="#181818" points="1339,304.6224,1343,295.6224,1339,299.6224,1335,295.6224,1339,304.6224" style="stroke:#181818;stroke-width:1;"/><text fill="#000000" font-family="sans-serif" font-size="13" lengthAdjust="spacing" textLength="79.1235" x="1340" y="277.0269">"Join Lobby"</text></g><!--link NOT_INITIALIZED to RoleChoice--><g class="link" data-entity-1="NOT_INITIALIZED" data-entity-2="RoleChoice" data-source-line="10" data-uid="lnk8" id="link_NOT_INITIALIZED_RoleChoice"><path d="M1045.06,185.55 C1095.72,133.85 1237.36,6 1347.5,66.46 C1374.275,81.155 1383.82,113.525 1386.4763,143.3863 C1386.6423,145.2526 1386.7814,147.1091 1386.8961,148.9509 C1386.9535,149.8718 1387.0047,150.789 1387.0502,151.7019 C1387.0616,151.9302 1386.7921,146.1647 1386.8028,146.3924" fill="none" id="NOT_INITIALIZED-to-RoleChoice" style="stroke:#181818;stroke-width:1;"/><polygon fill="#181818" points="1387.0832,152.3858,1390.6582,143.2087,1386.8495,147.3913,1382.667,143.5826,1387.0832,152.3858" style="stroke:#181818;stroke-width:1;"/></g><!--link *start*ServerPath to ServerDiscoverable--><g class="link" data-entity-1="*start*ServerPath" data-entity-2="ServerDiscoverable" data-source-line="13" data-uid="lnk11" id="link_*start*ServerPath_ServerDiscoverable"><path d="M1448.14,368.17 C1450.85,379.78 1455.69,400.37 1460,417.96 C1466.44,444.23 1472.6384,468.7084 1477.5584,487.8784" fill="none" id="*start*ServerPath-to-ServerDiscoverable" style="stroke:#181818;stroke-width:1;"/><polygon fill="#181818" points="1479.05,493.69,1480.6871,483.9782,1477.807,488.847,1472.9382,485.9669,1479.05,493.69" style="stroke:#181818;stroke-width:1;"/><text fill="#000000" font-family="sans-serif" font-size="13" lengthAdjust="spacing" textLength="179.7656" x="1466" y="439.0269">"Be discoverable as server"</text></g><!--link ServerDiscoverable to WaitingForClients--><g class="link" data-entity-1="ServerDiscoverable" data-entity-2="WaitingForClients" data-source-line="14" data-uid="lnk13" id="link_ServerDiscoverable_WaitingForClients"><path d="M1483.56,534.3 C1482.99,559.52 1482.1455,597.3715 1481.5755,622.6015" fill="none" id="ServerDiscoverable-to-WaitingForClients" style="stroke:#181818;stroke-width:1;"/><polygon fill="#181818" points="1481.44,628.6,1485.6423,619.6926,1481.5529,623.6013,1477.6443,619.512,1481.44,628.6" style="stroke:#181818;stroke-width:1;"/></g><!--link WaitingForClients to IN_LOBBY--><g class="link" data-entity-1="WaitingForClients" data-entity-2="IN_LOBBY" data-source-line="15" data-uid="lnk15" id="link_WaitingForClients_IN_LOBBY"><path d="M1414.06,648.96 C1299.56,648.96 1191.05,648.96 1076.55,648.96" fill="none" id="WaitingForClients-to-IN_LOBBY" style="stroke:#181818;stroke-width:1;"/><polygon fill="#181818" points="1070.55,648.96,1079.55,652.96,1075.55,648.96,1079.55,644.96,1070.55,648.96" style="stroke:#181818;stroke-width:1;"/></g><!--link IN_LOBBY to WaitingForReady--><g class="link" data-entity-1="IN_LOBBY" data-entity-2="WaitingForReady" data-source-line="16" data-uid="lnk16" id="link_IN_LOBBY_WaitingForReady"><path d="M1070.53,656.12 C1146.3,668.76 1307.64,700.03 1343,741.96 C1345.375,744.7775 1347.2922,747.9097 1348.8276,751.239 C1349.5953,752.9037 1350.2676,754.6177 1350.8539,756.3663 C1351.0005,756.8034 1349.3745,751.5088 1349.5105,751.9501" fill="none" id="IN_LOBBY-to-WaitingForReady" style="stroke:#181818;stroke-width:1;"/><polygon fill="#181818" points="1351.2777,757.6839,1352.4495,747.9051,1349.805,752.9057,1344.8044,750.2612,1351.2777,757.6839" style="stroke:#181818;stroke-width:1;"/><text fill="#000000" font-family="sans-serif" font-size="13" lengthAdjust="spacing" textLength="74.2612" x="1333" y="730.0269">Server only</text></g><!--link *start*ClientPath to ConnectingToServer--><g class="link" data-entity-1="*start*ClientPath" data-entity-2="ConnectingToServer" data-source-line="20" data-uid="lnk19" id="link_*start*ClientPath_ConnectingToServer"><path d="M1239,368.13 C1239,392.67 1239,454.24 1239,487.69" fill="none" id="*start*ClientPath-to-ConnectingToServer" style="stroke:#181818;stroke-width:1;"/><polygon fill="#181818" points="1239,493.69,1243,484.69,1239,488.69,1235,484.69,1239,493.69" style="stroke:#181818;stroke-width:1;"/></g><!--link ConnectingToServer to IN_LOBBY--><g class="link" data-entity-1="ConnectingToServer" data-entity-2="IN_LOBBY" data-source-line="21" data-uid="lnk20" id="link_ConnectingToServer_IN_LOBBY"><path d="M1208.76,534.3 C1169.32,559.52 1105.7847,600.1373 1066.3347,625.3673" fill="none" id="ConnectingToServer-to-IN_LOBBY" style="stroke:#181818;stroke-width:1;"/><polygon fill="#181818" points="1061.28,628.6,1071.0171,627.1208,1065.4922,625.9061,1066.7069,620.3812,1061.28,628.6" style="stroke:#181818;stroke-width:1;"/><text fill="#000000" font-family="sans-serif" font-size="13" lengthAdjust="spacing" textLength="70.002" x="1130" y="595.0269">Connected</text></g><!--link READY to IN_LOBBY--><g class="link" data-entity-1="READY" data-entity-2="IN_LOBBY" data-source-line="24" data-uid="lnk22" id="link_READY_IN_LOBBY"><path d="M930.05,790.62 C941.18,775.27 957.12,753.27 971,733.96 C986.9,711.84 1001.5885,691.2667 1013.7285,674.2267" fill="none" id="READY-to-IN_LOBBY" style="stroke:#181818;stroke-width:1;"/><polygon fill="#181818" points="1017.21,669.34,1008.73,674.349,1014.3088,673.4122,1015.2456,678.991,1017.21,669.34" style="stroke:#181818;stroke-width:1;"/><text fill="#000000" font-family="sans-serif" font-size="13" lengthAdjust="spacing" textLength="79.8091" x="984" y="730.0269">"Not Ready"</text></g><!--link IN_LOBBY to READY--><g class="link" data-entity-1="IN_LOBBY" data-entity-2="READY" data-source-line="25" data-uid="lnk23" id="link_IN_LOBBY_READY"><path d="M991.55,660.02 C963.11,669.56 926.72,687.01 909,716.96 C895.64,739.53 900.1348,765.074 906.6048,784.974" fill="none" id="IN_LOBBY-to-READY" style="stroke:#181818;stroke-width:1;"/><polygon fill="#181818" points="908.46,790.68,909.4812,780.8842,906.914,785.925,901.8733,783.3578,908.46,790.68" style="stroke:#181818;stroke-width:1;"/><text fill="#000000" font-family="sans-serif" font-size="13" lengthAdjust="spacing" textLength="52.9014" x="910" y="730.0269">"Ready"</text></g><!--link *start*WaitingForReady to CheckingReadyStatus--><g class="link" data-entity-1="*start*WaitingForReady" data-entity-2="CheckingReadyStatus" data-source-line="28" data-uid="lnk26" id="link_*start*WaitingForReady_CheckingReadyStatus"><path d="M1245,821.28 C1245,837.69 1245,866.04 1245,887.72" fill="none" id="*start*WaitingForReady-to-CheckingReadyStatus" style="stroke:#181818;stroke-width:1;"/><polygon fill="#181818" points="1245,893.72,1249,884.72,1245,888.72,1241,884.72,1245,893.72" style="stroke:#181818;stroke-width:1;"/></g><!--link CheckingReadyStatus to AllReady--><g class="link" data-entity-1="CheckingReadyStatus" data-entity-2="AllReady" data-source-line="29" data-uid="lnk28" id="link_CheckingReadyStatus_AllReady"><path d="M1238.64,934.21 C1231.63,955.44 1222.2821,983.7028 1215.2621,1004.9528" fill="none" id="CheckingReadyStatus-to-AllReady" style="stroke:#181818;stroke-width:1;"/><polygon fill="#181818" points="1213.38,1010.65,1220.0012,1003.359,1214.9484,1005.9024,1212.405,1000.8495,1213.38,1010.65" style="stroke:#181818;stroke-width:1;"/><text fill="#000000" font-family="sans-serif" font-size="13" lengthAdjust="spacing" textLength="109.2749" x="1230" y="977.0269">All players ready</text></g><!--link AllReady to STARTED--><g class="link" data-entity-1="AllReady" data-entity-2="STARTED" data-source-line="32" data-uid="lnk30" id="link_AllReady_STARTED"><path d="M1170.92,1029.6 C993.94,1027.36 226,1012.06 226,914.96 C226,647.96 226,647.96 226,647.96 C226,588.67 160.19,612.35 115,573.96 C100.81,561.9 90.4494,550.9843 79.9894,538.9143" fill="none" id="AllReady-to-STARTED" style="stroke:#181818;stroke-width:1;"/><polygon fill="#181818" points="76.06,534.38,78.9313,543.801,79.3345,538.1585,84.977,538.5618,76.06,534.38" style="stroke:#181818;stroke-width:1;"/><text fill="#000000" font-family="sans-serif" font-size="13" lengthAdjust="spacing" textLength="86.5503" x="227" y="815.5269">"Start Game"</text></g><!--link READY to STARTED--><g class="link" data-entity-1="READY" data-entity-2="STARTED" data-source-line="33" data-uid="lnk31" id="link_READY_STARTED"><path d="M887.01,796.78 C795.88,756.07 506.12,632.03 252,581.96 C222.08,576.06 142.6,586.93 115,573.96 C96.88,565.44 85.3149,552.9213 75.5749,539.2113" fill="none" id="READY-to-STARTED" style="stroke:#181818;stroke-width:1;"/><polygon fill="#181818" points="72.1,534.32,74.0515,543.9736,74.9958,538.3961,80.5733,539.3403,72.1,534.32" style="stroke:#181818;stroke-width:1;"/><text fill="#000000" font-family="sans-serif" font-size="13" lengthAdjust="spacing" textLength="154.7241" x="674" y="653.5269">Game started by server</text></g><!--link STARTED to IN_GAME--><g class="link" data-entity-1="STARTED" data-entity-2="IN_GAME" data-source-line="34" data-uid="lnk32" id="link_STARTED_IN_GAME"><path d="M61.13,493.72 C65.17,444.71 83.46,315.4 165,263.96 C200.09,241.82 291.9175,227.62 375.5525,218.93 C417.37,214.585 457.1394,211.6175 486.7444,209.7238 C501.5469,208.7769 513.8083,208.0984 522.5141,207.6505 C524.6905,207.5385 526.6447,207.4409 528.3609,207.3571 C528.5754,207.3466 522.7932,207.627 523.0003,207.617" fill="none" id="STARTED-to-IN_GAME" style="stroke:#181818;stroke-width:1;"/><polygon fill="#181818" points="528.9932,207.3263,519.81,203.767,523.9991,207.5686,520.1976,211.7576,528.9932,207.3263" style="stroke:#181818;stroke-width:1;"/></g><!--link *start*IN_GAME to ActiveGame--><g class="link" data-entity-1="*start*IN_GAME" data-entity-2="ActiveGame" data-source-line="37" data-uid="lnk35" id="link_*start*IN_GAME_ActiveGame"><path d="M609,216.34 C609,240.46 609,298.99 609,331.57" fill="none" id="*start*IN_GAME-to-ActiveGame" style="stroke:#181818;stroke-width:1;"/><polygon fill="#181818" points="609,337.57,613,328.57,609,332.57,605,328.57,609,337.57" style="stroke:#181818;stroke-width:1;"/></g><!--link ActiveGame to FINISHED_NORMAL--><g class="link" data-entity-1="ActiveGame" data-entity-2="FINISHED_NORMAL" data-source-line="38" data-uid="lnk37" id="link_ActiveGame_FINISHED_NORMAL"><path d="M585.41,378.18 C566.92,392.01 539.91,409.64 513,417.96 C477.93,428.8 383.68,417.32 348,425.96 C321.9,432.28 316.33,437.68 293,450.96 C270.58,463.72 251.4862,477.0018 234.0962,489.9218" fill="none" id="ActiveGame-to-FINISHED_NORMAL" style="stroke:#181818;stroke-width:1;"/><polygon fill="#181818" points="229.28,493.5,238.8899,491.3434,233.2935,490.5181,234.1189,484.9218,229.28,493.5" style="stroke:#181818;stroke-width:1;"/><text fill="#000000" font-family="sans-serif" font-size="13" lengthAdjust="spacing" textLength="132.1201" x="349" y="439.0269">Completed normally</text></g><!--link ActiveGame to FINISHED_TIMEOUT--><g class="link" data-entity-1="ActiveGame" data-entity-2="FINISHED_TIMEOUT" data-source-line="39" data-uid="lnk39" id="link_ActiveGame_FINISHED_TIMEOUT"><path d="M580.96,378.15 C537.84,407.66 460.6711,460.4809 417.3411,490.1409" fill="none" id="ActiveGame-to-FINISHED_TIMEOUT" style="stroke:#181818;stroke-width:1;"/><polygon fill="#181818" points="412.39,493.53,422.0761,491.7471,416.516,490.7057,417.5573,485.1455,412.39,493.53" style="stroke:#181818;stroke-width:1;"/><text fill="#000000" font-family="sans-serif" font-size="13" lengthAdjust="spacing" textLength="122.021" x="511" y="439.0269">Time limit reached</text></g><!--link FINISHED_NORMAL to IN_GAME_WAITING--><g class="link" data-entity-1="FINISHED_NORMAL" data-entity-2="IN_GAME_WAITING" data-source-line="42" data-uid="lnk40" id="link_FINISHED_NORMAL_IN_GAME_WAITING"><path d="M204.33,493.7 C206.22,449.76 217.45,341.81 281,288.96 C339.04,240.69 373.83,270.87 449,263.96 C473.8,261.68 649.85,265.13 673,255.96 C687.895,250.06 701.5,238.38 711.57,227.9038 C714.0875,225.2847 716.3841,222.7409 718.4246,220.3814 C718.9347,219.7915 719.4289,219.2132 719.9065,218.6481 C720.1453,218.3655 720.3799,218.0862 720.6104,217.8105 C720.7256,217.6726 717.0044,222.1498 717.1175,222.0137" fill="none" id="FINISHED_NORMAL-to-IN_GAME_WAITING" style="stroke:#181818;stroke-width:1;"/><polygon fill="#181818" points="720.9529,217.3996,712.1237,221.7638,717.7567,221.2447,718.2759,226.8776,720.9529,217.3996" style="stroke:#181818;stroke-width:1;"/><text fill="#000000" font-family="sans-serif" font-size="13" lengthAdjust="spacing" textLength="97.0747" x="282" y="362.5269">Wait for others</text></g><!--link FINISHED_TIMEOUT to IN_GAME_WAITING--><g class="link" data-entity-1="FINISHED_TIMEOUT" data-entity-2="IN_GAME_WAITING" data-source-line="43" data-uid="lnk41" id="link_FINISHED_TIMEOUT_IN_GAME_WAITING"><path d="M382.92,493.48 C381.66,449.56 385.31,342.46 446,288.96 C522.47,221.54 580.4,298.61 673,255.96 C687.55,249.26 701.1425,237.555 711.2913,227.265 C713.8284,224.6925 716.1504,222.2084 718.2183,219.9131 C718.7352,219.3393 719.2363,218.7773 719.7209,218.2286 C719.9632,217.9543 720.2014,217.6833 720.4354,217.4158 C720.5524,217.2821 720.6683,217.1492 720.7832,217.0173 C720.8406,216.9513 716.9629,221.4151 717.0198,221.3496" fill="none" id="FINISHED_TIMEOUT-to-IN_GAME_WAITING" style="stroke:#181818;stroke-width:1;"/><polygon fill="#181818" points="720.9547,216.8201,712.0327,220.9911,717.6756,220.5947,718.072,226.2376,720.9547,216.8201" style="stroke:#181818;stroke-width:1;"/><text fill="#000000" font-family="sans-serif" font-size="13" lengthAdjust="spacing" textLength="97.0747" x="447" y="362.5269">Wait for others</text></g><!--link *start*IN_GAME_WAITING to CheckingAllFinished--><g class="link" data-entity-1="*start*IN_GAME_WAITING" data-entity-2="CheckingAllFinished" data-source-line="46" data-uid="lnk44" id="link_*start*IN_GAME_WAITING_CheckingAllFinished"><path d="M828,216.34 C828,240.46 828,298.99 828,331.57" fill="none" id="*start*IN_GAME_WAITING-to-CheckingAllFinished" style="stroke:#181818;stroke-width:1;"/><polygon fill="#181818" points="828,337.57,832,328.57,828,332.57,824,328.57,828,337.57" style="stroke:#181818;stroke-width:1;"/></g><!--link CheckingAllFinished to EveryoneFinished--><g class="link" data-entity-1="CheckingAllFinished" data-entity-2="EveryoneFinished" data-source-line="47" data-uid="lnk46" id="link_CheckingAllFinished_EveryoneFinished"><path d="M828.62,378.15 C829.58,407.66 831.2159,457.8731 832.1759,487.5331" fill="none" id="CheckingAllFinished-to-EveryoneFinished" style="stroke:#181818;stroke-width:1;"/><polygon fill="#181818" points="832.37,493.53,836.0768,484.4053,832.2083,488.5326,828.0809,484.6641,832.37,493.53" style="stroke:#181818;stroke-width:1;"/><text fill="#000000" font-family="sans-serif" font-size="13" lengthAdjust="spacing" textLength="123.3223" x="832" y="439.0269">All players finished</text></g><!--link EveryoneFinished to IN_LOBBY--><g class="link" data-entity-1="EveryoneFinished" data-entity-2="IN_LOBBY" data-source-line="50" data-uid="lnk47" id="link_EveryoneFinished_IN_LOBBY"><path d="M861.79,534.3 C899.33,559.52 959.6398,600.0238 997.1898,625.2538" fill="none" id="EveryoneFinished-to-IN_LOBBY" style="stroke:#181818;stroke-width:1;"/><polygon fill="#181818" points="1002.17,628.6,996.9305,620.2605,998.0198,625.8115,992.4688,626.9008,1002.17,628.6" style="stroke:#181818;stroke-width:1;"/><text fill="#000000" font-family="sans-serif" font-size="13" lengthAdjust="spacing" textLength="92.2695" x="957" y="595.0269">Back to Lobby</text></g><!--SRC=[dLJHZfim47pdArOyddJt0NseH099EIMa8bIdQtMA7DW4wuoDi9iALVtthY7aI22ewbEIzSpix7YTd6S8M9IcXWnrMl7IS2KT_SvboIfMWCvPfdvnUOG34ngT7mzlyFZu6NmyyHItXfcV-YdQ9Bim2fFGMuNV0ny-WLUMT5OPnz44GN13oGrd0kQv8fuBJ4Ei1BO_uRS3q2bliJfXzPMPd7JSUOMMlrBxVUtsK7F1KPeEzQoux31_76VId6L_jEuCzheEpVXSfue-sLwWRJT3oFeb6aOtGEjmX6ALNXW588yBLRNMDK47jM6qORHRRMQpLqAFrc-qOsHPJHPR4w2ag6qWxOozpFeppfMKc5g1HBKyEXmMxtkZVcSuPeFuuy3pNoUvRgGCDCPTv_wC8w94FTFE0zxcS3LbZYbjzR4vQMNicCDgW_Q4wAAahr0ALcEbeR8rE-9DfwSBtfANhEYCRXClJfeNuJRleJbpxoKqIhH5q9QC6UphywOv8zYna9VUEkZY6JkxoiYZ2p-XLQRYnuzRRmjwJjilWR-BDl7QMpNNNvG2hK6fge89shf_4aZ2TR3vbf12mWacUC6D3JdDsqsQQ7flsDsBHsyzMfAclIGuA7e69gVRSwOS_8VSHAeNrjW6qguikEJQpWXZrGOTq2NNIkAbUBs9Xqw1KXf0frxRZANlO5JxR_aN]--></g></svg>