<svg xmlns="http://www.w3.org/2000/svg" xmlns:xlink="http://www.w3.org/1999/xlink" contentStyleType="text/css" data-diagram-type="CLASS" height="1333px" preserveAspectRatio="none" style="width:1971px;height:1333px;background:#FFFFFF;" version="1.1" viewBox="0 0 1971 1333" width="1971px" zoomAndPan="magnify"><defs/><g><!--cluster Bluetooth--><g class="cluster" data-entity="Bluetooth" data-source-line="6" data-uid="ent0002" id="cluster_Bluetooth"><path d="M8.5,6 L87.0195,6 A3.75,3.75 0 0 1 89.5195,8.5 L96.5195,28.2969 L1961.5,28.2969 A2.5,2.5 0 0 1 1964,30.7969 L1964,1324.19 A2.5,2.5 0 0 1 1961.5,1326.69 L8.5,1326.69 A2.5,2.5 0 0 1 6,1324.19 L6,8.5 A2.5,2.5 0 0 1 8.5,6" fill="none" style="stroke:#000000;stroke-width:1.5;"/><line style="stroke:#000000;stroke-width:1.5;" x1="6" x2="96.5195" y1="28.2969" y2="28.2969"/><text fill="#000000" font-family="sans-serif" font-size="14" font-weight="bold" lengthAdjust="spacing" textLength="77.5195" x="10" y="20.9951">Bluetooth</text></g><!--cluster Handler--><g class="cluster" data-entity="Handler" data-source-line="9" data-uid="ent0003" id="cluster_Handler"><path d="M32.5,49 L95.8506,49 A3.75,3.75 0 0 1 98.3506,51.5 L105.3506,71.2969 L854.5,71.2969 A2.5,2.5 0 0 1 857,73.7969 L857,1058.81 A2.5,2.5 0 0 1 854.5,1061.31 L32.5,1061.31 A2.5,2.5 0 0 1 30,1058.81 L30,51.5 A2.5,2.5 0 0 1 32.5,49" fill="none" style="stroke:#000000;stroke-width:1.5;"/><line style="stroke:#000000;stroke-width:1.5;" x1="30" x2="105.3506" y1="71.2969" y2="71.2969"/><text fill="#000000" font-family="sans-serif" font-size="14" font-weight="bold" lengthAdjust="spacing" textLength="62.3506" x="34" y="63.9951">Handler</text></g><!--cluster Strategies--><g class="cluster" data-entity="Strategies" data-source-line="49" data-uid="ent0011" id="cluster_Strategies"><path d="M62.5,739.53 L145.4629,739.53 A3.75,3.75 0 0 1 147.9629,742.03 L154.9629,761.8269 L824.5,761.8269 A2.5,2.5 0 0 1 827,764.3269 L827,1034.81 A2.5,2.5 0 0 1 824.5,1037.31 L62.5,1037.31 A2.5,2.5 0 0 1 60,1034.81 L60,742.03 A2.5,2.5 0 0 1 62.5,739.53" fill="none" style="stroke:#000000;stroke-width:1.5;"/><line style="stroke:#000000;stroke-width:1.5;" x1="60" x2="154.9629" y1="761.8269" y2="761.8269"/><text fill="#000000" font-family="sans-serif" font-size="14" font-weight="bold" lengthAdjust="spacing" textLength="81.9629" x="64" y="754.5251">Strategies</text></g><!--cluster Management--><g class="cluster" data-entity="Management" data-source-line="68" data-uid="ent0017" id="cluster_Management"><path d="M883.5,723.24 L987.5518,723.24 A3.75,3.75 0 0 1 990.0518,725.74 L997.0518,745.5369 L1937.5,745.5369 A2.5,2.5 0 0 1 1940,748.0369 L1940,1300.19 A2.5,2.5 0 0 1 1937.5,1302.69 L883.5,1302.69 A2.5,2.5 0 0 1 881,1300.19 L881,725.74 A2.5,2.5 0 0 1 883.5,723.24" fill="none" style="stroke:#000000;stroke-width:1.5;"/><line style="stroke:#000000;stroke-width:1.5;" x1="881" x2="997.0518" y1="745.5369" y2="745.5369"/><text fill="#000000" font-family="sans-serif" font-size="14" font-weight="bold" lengthAdjust="spacing" textLength="103.0518" x="885" y="738.2351">Management</text></g><!--class BluetoothHandlerInterface--><g class="entity" data-entity="BluetoothHandlerInterface" data-source-line="10" data-uid="ent0004" id="entity_BluetoothHandlerInterface"><rect fill="#F1F1F1" height="121.4844" rx="2.5" ry="2.5" style="stroke:#181818;stroke-width:0.5;" width="536.9385" x="45.53" y="84"/><ellipse cx="216.8659" cy="100" fill="#B4A7E5" rx="11" ry="11" style="stroke:#181818;stroke-width:1;"/><path d="M212.7878,95.7656 L212.7878,93.6094 L220.1784,93.6094 L220.1784,95.7656 L217.7097,95.7656 L217.7097,103.8438 L220.1784,103.8438 L220.1784,106 L212.7878,106 L212.7878,103.8438 L215.2566,103.8438 L215.2566,95.7656 L212.7878,95.7656 Z " fill="#000000"/><text fill="#000000" font-family="sans-serif" font-size="14" font-style="italic" lengthAdjust="spacing" textLength="185.7666" x="237.3659" y="104.8467">BluetoothHandlerInterface</text><line style="stroke:#181818;stroke-width:0.5;" x1="46.53" x2="581.4685" y1="116" y2="116"/><ellipse cx="56.53" cy="129.6484" fill="#84BE84" rx="3" ry="3" style="stroke:#038048;stroke-width:1;"/><text fill="#000000" font-family="sans-serif" font-size="14" lengthAdjust="spacing" textLength="279.1865" x="65.53" y="132.9951">setElectionCallback(callback: () -&gt; Unit)</text><ellipse cx="56.53" cy="145.9453" fill="#84BE84" rx="3" ry="3" style="stroke:#038048;stroke-width:1;"/><text fill="#000000" font-family="sans-serif" font-size="14" lengthAdjust="spacing" textLength="510.9385" x="65.53" y="149.292">setOnDeviceDisconnectStrategy(strategy: OnDeviceDisconnectStrategy)</text><ellipse cx="56.53" cy="162.2422" fill="#84BE84" rx="3" ry="3" style="stroke:#038048;stroke-width:1;"/><text fill="#000000" font-family="sans-serif" font-size="14" lengthAdjust="spacing" textLength="493.5137" x="65.53" y="165.5889">sendMessage(message: MessageComposed, device: BluetoothDevice)</text><ellipse cx="56.53" cy="178.5391" fill="#84BE84" rx="3" ry="3" style="stroke:#038048;stroke-width:1;"/><text fill="#000000" font-family="sans-serif" font-size="14" lengthAdjust="spacing" textLength="349.6855" x="65.53" y="181.8857">broadcastMessage(message: MessageComposed)</text><ellipse cx="56.53" cy="194.8359" fill="#84BE84" rx="3" ry="3" style="stroke:#038048;stroke-width:1;"/><text fill="#000000" font-family="sans-serif" font-size="14" lengthAdjust="spacing" textLength="341.7695" x="65.53" y="198.1826">onDeviceDisconnected(socket: BluetoothSocket)</text></g><!--class LobbyBluetoothHandlerInterface--><g class="entity" data-entity="LobbyBluetoothHandlerInterface" data-source-line="18" data-uid="ent0005" id="entity_LobbyBluetoothHandlerInterface"><rect fill="#F1F1F1" height="137.7813" rx="2.5" ry="2.5" style="stroke:#181818;stroke-width:0.5;" width="444.0313" x="45.98" y="266.49"/><ellipse cx="149.6504" cy="282.49" fill="#B4A7E5" rx="11" ry="11" style="stroke:#181818;stroke-width:1;"/><path d="M145.5723,278.2556 L145.5723,276.0994 L152.9629,276.0994 L152.9629,278.2556 L150.4942,278.2556 L150.4942,286.3338 L152.9629,286.3338 L152.9629,288.49 L145.5723,288.49 L145.5723,286.3338 L148.041,286.3338 L148.041,278.2556 L145.5723,278.2556 Z " fill="#000000"/><text fill="#000000" font-family="sans-serif" font-size="14" font-style="italic" lengthAdjust="spacing" textLength="228.1904" x="170.1504" y="287.3367">LobbyBluetoothHandlerInterface</text><line style="stroke:#181818;stroke-width:0.5;" x1="46.98" x2="489.0113" y1="298.49" y2="298.49"/><ellipse cx="56.98" cy="312.1384" fill="#84BE84" rx="3" ry="3" style="stroke:#038048;stroke-width:1;"/><text fill="#000000" font-family="sans-serif" font-size="14" lengthAdjust="spacing" textLength="157.4043" x="65.98" y="315.4851">startBluetoothServer()</text><ellipse cx="56.98" cy="328.4353" fill="#84BE84" rx="3" ry="3" style="stroke:#038048;stroke-width:1;"/><text fill="#000000" font-family="sans-serif" font-size="14" lengthAdjust="spacing" textLength="155.0322" x="65.98" y="331.782">stopBluetoothServer()</text><ellipse cx="56.98" cy="344.7322" fill="#84BE84" rx="3" ry="3" style="stroke:#038048;stroke-width:1;"/><text fill="#000000" font-family="sans-serif" font-size="14" lengthAdjust="spacing" textLength="248.5273" x="65.98" y="348.0789">startBluetoothClientAndDiscovery()</text><ellipse cx="56.98" cy="361.0291" fill="#84BE84" rx="3" ry="3" style="stroke:#038048;stroke-width:1;"/><text fill="#000000" font-family="sans-serif" font-size="14" lengthAdjust="spacing" textLength="257.0176" x="65.98" y="364.3757">connectToDevice(deviceMac: String)</text><ellipse cx="56.98" cy="377.3259" fill="#84BE84" rx="3" ry="3" style="stroke:#038048;stroke-width:1;"/><text fill="#000000" font-family="sans-serif" font-size="14" lengthAdjust="spacing" textLength="183.0459" x="65.98" y="380.6726">onElectionTimerFinished()</text><ellipse cx="56.98" cy="393.6228" fill="#84BE84" rx="3" ry="3" style="stroke:#038048;stroke-width:1;"/><text fill="#000000" font-family="sans-serif" font-size="14" lengthAdjust="spacing" textLength="418.0313" x="65.98" y="396.9695">setServerSocketNameCallback(callback: ((String) -&gt; Unit)?)</text></g><!--class BluetoothHandler--><g class="entity" data-entity="BluetoothHandler" data-source-line="27" data-uid="ent0007" id="entity_BluetoothHandler"><rect fill="#F1F1F1" height="210.9688" rx="2.5" ry="2.5" style="stroke:#181818;stroke-width:0.5;" width="451.2021" x="389.4" y="465.27"/><ellipse cx="549.2071" cy="481.27" fill="#ADD1B2" rx="11" ry="11" style="stroke:#181818;stroke-width:1;"/><path d="M552.1759,486.9106 Q551.5978,487.2075 550.9571,487.3481 Q550.3165,487.5044 549.6134,487.5044 Q547.1134,487.5044 545.7853,485.8638 Q544.4728,484.2075 544.4728,481.0825 Q544.4728,477.9575 545.7853,476.3013 Q547.1134,474.645 549.6134,474.645 Q550.3165,474.645 550.9571,474.8013 Q551.6134,474.9575 552.1759,475.2544 L552.1759,477.9731 Q551.5509,477.395 550.9571,477.1294 Q550.3634,476.8481 549.7384,476.8481 Q548.3946,476.8481 547.7071,477.9263 Q547.0196,478.9888 547.0196,481.0825 Q547.0196,483.1763 547.7071,484.2544 Q548.3946,485.3169 549.7384,485.3169 Q550.3634,485.3169 550.9571,485.0513 Q551.5509,484.77 552.1759,484.1919 L552.1759,486.9106 Z " fill="#000000"/><text fill="#000000" font-family="sans-serif" font-size="14" lengthAdjust="spacing" textLength="123.0879" x="569.7071" y="486.1167">BluetoothHandler</text><line style="stroke:#181818;stroke-width:0.5;" x1="390.4" x2="839.6021" y1="497.27" y2="497.27"/><rect fill="none" height="6" style="stroke:#C82930;stroke-width:1;" width="6" x="397.4" y="507.9184"/><text fill="#000000" font-family="sans-serif" font-size="14" lengthAdjust="spacing" textLength="146.7949" x="409.4" y="514.2651">activity: MainActivity</text><rect fill="none" height="6" style="stroke:#C82930;stroke-width:1;" width="6" x="397.4" y="524.2153"/><text fill="#000000" font-family="sans-serif" font-size="14" lengthAdjust="spacing" textLength="277.9355" x="409.4" y="530.562">electionManager: BullyElectionManager</text><rect fill="none" height="6" style="stroke:#C82930;stroke-width:1;" width="6" x="397.4" y="540.5122"/><text fill="#000000" font-family="sans-serif" font-size="14" lengthAdjust="spacing" textLength="293.7266" x="409.4" y="546.8589">deviceManager: BluetoothDeviceManager</text><rect fill="none" height="6" style="stroke:#C82930;stroke-width:1;" width="6" x="397.4" y="556.8091"/><text fill="#000000" font-family="sans-serif" font-size="14" lengthAdjust="spacing" textLength="267.1074" x="409.4" y="563.1557">bluetoothManager: BluetoothManager</text><rect fill="none" height="6" style="stroke:#C82930;stroke-width:1;" width="6" x="397.4" y="573.1059"/><text fill="#000000" font-family="sans-serif" font-size="14" lengthAdjust="spacing" textLength="255.9512" x="409.4" y="579.4526">bluetoothAdapter: BluetoothAdapter</text><rect fill="none" height="6" style="stroke:#C82930;stroke-width:1;" width="6" x="397.4" y="589.4028"/><text fill="#000000" font-family="sans-serif" font-size="14" lengthAdjust="spacing" textLength="355.5986" x="409.4" y="595.7495">bluetoothClientManager: BluetoothClientManager?</text><rect fill="none" height="6" style="stroke:#C82930;stroke-width:1;" width="6" x="397.4" y="605.6997"/><text fill="#000000" font-family="sans-serif" font-size="14" lengthAdjust="spacing" textLength="366.3584" x="409.4" y="612.0464">bluetoothServerManager: BluetoothServerManager?</text><rect fill="none" height="6" style="stroke:#C82930;stroke-width:1;" width="6" x="397.4" y="621.9966"/><text fill="#000000" font-family="sans-serif" font-size="14" lengthAdjust="spacing" textLength="425.2021" x="409.4" y="628.3432">onDeviceDisconnectStrategy: OnDeviceDisconnectStrategy?</text><line style="stroke:#181818;stroke-width:0.5;" x1="390.4" x2="839.6021" y1="635.645" y2="635.645"/><rect fill="#F24D5C" height="6" style="stroke:#C82930;stroke-width:1;" width="6" x="397.4" y="646.2934"/><text fill="#000000" font-family="sans-serif" font-size="14" lengthAdjust="spacing" textLength="207.6621" x="409.4" y="652.6401">electionCallback: (() -&gt; Unit)?</text><rect fill="#F24D5C" height="6" style="stroke:#C82930;stroke-width:1;" width="6" x="397.4" y="662.5903"/><text fill="#000000" font-family="sans-serif" font-size="14" lengthAdjust="spacing" textLength="326.792" x="409.4" y="668.937">serverSocketNameCallback: ((String) -&gt; Unit)?</text></g><g class="entity" data-entity="BluetoothHandlerProvider" data-source-line="40" data-uid="ent0009" id="entity_BluetoothHandlerProvider"><rect fill="#F1F1F1" height="77.1875" rx="2.5" ry="2.5" style="stroke:#181818;stroke-width:0.5;" width="315.2559" x="525.37" y="296.78"/><text fill="#000000" font-family="sans-serif" font-size="14" lengthAdjust="spacing" textLength="181.2822" x="592.3568" y="311.7751">BluetoothHandlerProvider</text><line style="stroke:#181818;stroke-width:0.5;" x1="526.37" x2="839.6259" y1="317.0769" y2="317.0769"/><rect fill="none" height="6" style="stroke:#C82930;stroke-width:1;" width="6" x="533.37" y="327.7253"/><text fill="#000000" font-family="sans-serif" font-size="14" lengthAdjust="spacing" textLength="262.0557" x="545.37" y="334.072">bluetoothHandler: BluetoothHandler?</text><ellipse cx="536.37" cy="347.0222" fill="#84BE84" rx="3" ry="3" style="stroke:#038048;stroke-width:1;"/><text fill="#000000" font-family="sans-serif" font-size="14" lengthAdjust="spacing" textLength="216.0703" x="545.37" y="350.3689">initialize(activity: MainActivity)</text><ellipse cx="536.37" cy="363.3191" fill="#84BE84" rx="3" ry="3" style="stroke:#038048;stroke-width:1;"/><text fill="#000000" font-family="sans-serif" font-size="14" lengthAdjust="spacing" textLength="289.2559" x="545.37" y="366.6657">getBluetoothHandler(): BluetoothHandler</text></g><!--class OnDeviceDisconnectStrategy--><g class="entity" data-entity="OnDeviceDisconnectStrategy" data-source-line="50" data-uid="ent0012" id="entity_OnDeviceDisconnectStrategy"><rect fill="#F1F1F1" height="56.2969" rx="2.5" ry="2.5" style="stroke:#181818;stroke-width:0.5;" width="350.2695" x="114.87" y="774.53"/><ellipse cx="182.9901" cy="790.53" fill="#B4A7E5" rx="11" ry="11" style="stroke:#181818;stroke-width:1;"/><path d="M178.912,786.2956 L178.912,784.1394 L186.3026,784.1394 L186.3026,786.2956 L183.8339,786.2956 L183.8339,794.3738 L186.3026,794.3738 L186.3026,796.53 L178.912,796.53 L178.912,794.3738 L181.3807,794.3738 L181.3807,786.2956 L178.912,786.2956 Z " fill="#000000"/><text fill="#000000" font-family="sans-serif" font-size="14" font-style="italic" lengthAdjust="spacing" textLength="205.5293" x="203.4901" y="795.3767">OnDeviceDisconnectStrategy</text><line style="stroke:#181818;stroke-width:0.5;" x1="115.87" x2="464.1395" y1="806.53" y2="806.53"/><ellipse cx="125.87" cy="820.1784" fill="#84BE84" rx="3" ry="3" style="stroke:#038048;stroke-width:1;"/><text fill="#000000" font-family="sans-serif" font-size="14" lengthAdjust="spacing" textLength="324.2695" x="134.87" y="823.5251">onDeviceDisconnect(socket: BluetoothSocket)</text></g><!--class GameOnDeviceDisconnectStrategy--><g class="entity" data-entity="GameOnDeviceDisconnectStrategy" data-source-line="54" data-uid="ent0013" id="entity_GameOnDeviceDisconnectStrategy"><rect fill="#F1F1F1" height="80.5938" rx="2.5" ry="2.5" style="stroke:#181818;stroke-width:0.5;" width="350.2695" x="75.87" y="932.57"/><ellipse cx="123.1508" cy="948.57" fill="#ADD1B2" rx="11" ry="11" style="stroke:#181818;stroke-width:1;"/><path d="M126.1195,954.2106 Q125.5414,954.5075 124.9008,954.6481 Q124.2601,954.8044 123.557,954.8044 Q121.057,954.8044 119.7289,953.1638 Q118.4164,951.5075 118.4164,948.3825 Q118.4164,945.2575 119.7289,943.6013 Q121.057,941.945 123.557,941.945 Q124.2601,941.945 124.9008,942.1013 Q125.557,942.2575 126.1195,942.5544 L126.1195,945.2731 Q125.4945,944.695 124.9008,944.4294 Q124.307,944.1481 123.682,944.1481 Q122.3383,944.1481 121.6508,945.2263 Q120.9633,946.2888 120.9633,948.3825 Q120.9633,950.4763 121.6508,951.5544 Q122.3383,952.6169 123.682,952.6169 Q124.307,952.6169 124.9008,952.3513 Q125.4945,952.07 126.1195,951.4919 L126.1195,954.2106 Z " fill="#000000"/><text fill="#000000" font-family="sans-serif" font-size="14" lengthAdjust="spacing" textLength="247.208" x="143.6508" y="953.4167">GameOnDeviceDisconnectStrategy</text><line style="stroke:#181818;stroke-width:0.5;" x1="76.87" x2="425.1395" y1="964.57" y2="964.57"/><rect fill="none" height="6" style="stroke:#C82930;stroke-width:1;" width="6" x="83.87" y="975.2184"/><text fill="#000000" font-family="sans-serif" font-size="14" lengthAdjust="spacing" textLength="317.3037" x="95.87" y="981.5651">bluetoothHandler: BluetoothHandlerInterface</text><line style="stroke:#181818;stroke-width:0.5;" x1="76.87" x2="425.1395" y1="988.8669" y2="988.8669"/><ellipse cx="86.87" cy="1002.5153" fill="#84BE84" rx="3" ry="3" style="stroke:#038048;stroke-width:1;"/><text fill="#000000" font-family="sans-serif" font-size="14" lengthAdjust="spacing" textLength="324.2695" x="95.87" y="1005.862">onDeviceDisconnect(socket: BluetoothSocket)</text></g><!--class LobbyClientOnDeviceDisconnectStrategy--><g class="entity" data-entity="LobbyClientOnDeviceDisconnectStrategy" data-source-line="59" data-uid="ent0015" id="entity_LobbyClientOnDeviceDisconnectStrategy"><rect fill="#F1F1F1" height="96.8906" rx="2.5" ry="2.5" style="stroke:#181818;stroke-width:0.5;" width="350.2695" x="460.87" y="924.42"/><ellipse cx="489.2738" cy="940.42" fill="#ADD1B2" rx="11" ry="11" style="stroke:#181818;stroke-width:1;"/><path d="M492.2425,946.0606 Q491.6644,946.3575 491.0238,946.4981 Q490.3831,946.6544 489.68,946.6544 Q487.18,946.6544 485.8519,945.0138 Q484.5394,943.3575 484.5394,940.2325 Q484.5394,937.1075 485.8519,935.4513 Q487.18,933.795 489.68,933.795 Q490.3831,933.795 491.0238,933.9513 Q491.68,934.1075 492.2425,934.4044 L492.2425,937.1231 Q491.6175,936.545 491.0238,936.2794 Q490.43,935.9981 489.805,935.9981 Q488.4613,935.9981 487.7738,937.0763 Q487.0863,938.1388 487.0863,940.2325 Q487.0863,942.3263 487.7738,943.4044 Q488.4613,944.4669 489.805,944.4669 Q490.43,944.4669 491.0238,944.2013 Q491.6175,943.92 492.2425,943.3419 L492.2425,946.0606 Z " fill="#000000"/><text fill="#000000" font-family="sans-serif" font-size="14" lengthAdjust="spacing" textLength="288.4834" x="506.2524" y="945.2667">LobbyClientOnDeviceDisconnectStrategy</text><line style="stroke:#181818;stroke-width:0.5;" x1="461.87" x2="810.1395" y1="956.42" y2="956.42"/><rect fill="none" height="6" style="stroke:#C82930;stroke-width:1;" width="6" x="468.87" y="967.0684"/><text fill="#000000" font-family="sans-serif" font-size="14" lengthAdjust="spacing" textLength="317.3037" x="480.87" y="973.4151">bluetoothHandler: BluetoothHandlerInterface</text><rect fill="none" height="6" style="stroke:#C82930;stroke-width:1;" width="6" x="468.87" y="983.3653"/><text fill="#000000" font-family="sans-serif" font-size="14" lengthAdjust="spacing" textLength="293.7266" x="480.87" y="989.712">deviceManager: BluetoothDeviceManager</text><line style="stroke:#181818;stroke-width:0.5;" x1="461.87" x2="810.1395" y1="997.0138" y2="997.0138"/><ellipse cx="471.87" cy="1010.6622" fill="#84BE84" rx="3" ry="3" style="stroke:#038048;stroke-width:1;"/><text fill="#000000" font-family="sans-serif" font-size="14" lengthAdjust="spacing" textLength="324.2695" x="480.87" y="1014.0089">onDeviceDisconnect(socket: BluetoothSocket)</text></g><!--class BluetoothCommunicationManager--><g class="entity" data-entity="BluetoothCommunicationManager" data-source-line="69" data-uid="ent0018" id="entity_BluetoothCommunicationManager"><rect fill="#F1F1F1" height="129.4844" rx="2.5" ry="2.5" style="stroke:#181818;stroke-width:0.5;" width="519.5137" x="920.24" y="908.13"/><ellipse cx="1055.9094" cy="924.13" fill="#A9DCDF" rx="11" ry="11" style="stroke:#181818;stroke-width:1;"/><path d="M1056.0188,919.4738 L1054.8626,924.5519 L1057.1907,924.5519 L1056.0188,919.4738 Z M1054.5344,917.2394 L1057.5188,917.2394 L1060.8782,929.63 L1058.4251,929.63 L1057.6594,926.5675 L1054.3782,926.5675 L1053.6282,929.63 L1051.1907,929.63 L1054.5344,917.2394 Z " fill="#000000"/><text fill="#000000" font-family="sans-serif" font-size="14" font-style="italic" lengthAdjust="spacing" textLength="239.6748" x="1076.4094" y="928.9767">BluetoothCommunicationManager</text><line style="stroke:#181818;stroke-width:0.5;" x1="921.24" x2="1438.7537" y1="940.13" y2="940.13"/><polygon fill="none" points="931.24,948.7784,935.24,952.7784,931.24,956.7784,927.24,952.7784" style="stroke:#B38D22;stroke-width:1;"/><text fill="#000000" font-family="sans-serif" font-size="14" lengthAdjust="spacing" textLength="255.9512" x="940.24" y="957.1251">bluetoothAdapter: BluetoothAdapter</text><polygon fill="none" points="931.24,965.0753,935.24,969.0753,931.24,973.0753,927.24,969.0753" style="stroke:#B38D22;stroke-width:1;"/><text fill="#000000" font-family="sans-serif" font-size="14" lengthAdjust="spacing" textLength="397.7354" x="940.24" y="973.422">bluetoothThread: BasicBluetoothCommunicationThread?</text><line style="stroke:#181818;stroke-width:0.5;" x1="921.24" x2="1438.7537" y1="980.7238" y2="980.7238"/><ellipse cx="931.24" cy="994.3722" fill="#84BE84" rx="3" ry="3" style="stroke:#038048;stroke-width:1;"/><text fill="#000000" font-family="sans-serif" font-size="14" lengthAdjust="spacing" textLength="493.5137" x="940.24" y="997.7189">sendMessage(device: BluetoothDevice, message: MessageComposed)</text><ellipse cx="931.24" cy="1010.6691" fill="#84BE84" rx="3" ry="3" style="stroke:#038048;stroke-width:1;"/><text fill="#000000" font-family="sans-serif" font-size="14" lengthAdjust="spacing" textLength="349.6855" x="940.24" y="1014.0157">broadcastMessage(message: MessageComposed)</text><ellipse cx="931.24" cy="1026.9659" fill="#84BE84" rx="3" ry="3" style="stroke:#038048;stroke-width:1;"/><text fill="#000000" font-family="sans-serif" font-size="14" lengthAdjust="spacing" textLength="126.1982" x="940.24" y="1030.3126">closeConnection()</text></g><!--class BasicBluetoothCommunication--><g class="entity" data-entity="BasicBluetoothCommunication" data-source-line="70" data-uid="ent0019" id="entity_BasicBluetoothCommunication"><rect fill="#F1F1F1" height="88.8906" rx="2.5" ry="2.5" style="stroke:#181818;stroke-width:0.5;" width="519.5137" x="920.24" y="758.24"/><ellipse cx="1068.0603" cy="774.24" fill="#B4A7E5" rx="11" ry="11" style="stroke:#181818;stroke-width:1;"/><path d="M1063.9822,770.0056 L1063.9822,767.8494 L1071.3728,767.8494 L1071.3728,770.0056 L1068.9041,770.0056 L1068.9041,778.0838 L1071.3728,778.0838 L1071.3728,780.24 L1063.9822,780.24 L1063.9822,778.0838 L1066.4509,778.0838 L1066.4509,770.0056 L1063.9822,770.0056 Z " fill="#000000"/><text fill="#000000" font-family="sans-serif" font-size="14" font-style="italic" lengthAdjust="spacing" textLength="215.373" x="1088.5603" y="779.0867">BasicBluetoothCommunication</text><line style="stroke:#181818;stroke-width:0.5;" x1="921.24" x2="1438.7537" y1="790.24" y2="790.24"/><ellipse cx="931.24" cy="803.8884" fill="#84BE84" rx="3" ry="3" style="stroke:#038048;stroke-width:1;"/><text fill="#000000" font-family="sans-serif" font-size="14" lengthAdjust="spacing" textLength="493.5137" x="940.24" y="807.2351">sendMessage(device: BluetoothDevice, message: MessageComposed)</text><ellipse cx="931.24" cy="820.1853" fill="#84BE84" rx="3" ry="3" style="stroke:#038048;stroke-width:1;"/><text fill="#000000" font-family="sans-serif" font-size="14" lengthAdjust="spacing" textLength="349.6855" x="940.24" y="823.532">broadcastMessage(message: MessageComposed)</text><ellipse cx="931.24" cy="836.4822" fill="#84BE84" rx="3" ry="3" style="stroke:#038048;stroke-width:1;"/><text fill="#000000" font-family="sans-serif" font-size="14" lengthAdjust="spacing" textLength="126.1982" x="940.24" y="839.8289">closeConnection()</text></g><!--class BluetoothClientManager--><g class="entity" data-entity="BluetoothClientManager" data-source-line="77" data-uid="ent0021" id="entity_BluetoothClientManager"><rect fill="#F1F1F1" height="178.375" rx="2.5" ry="2.5" style="stroke:#181818;stroke-width:0.5;" width="520.3818" x="896.81" y="1108.31"/><ellipse cx="1067.8212" cy="1124.31" fill="#ADD1B2" rx="11" ry="11" style="stroke:#181818;stroke-width:1;"/><path d="M1070.79,1129.9506 Q1070.2119,1130.2475 1069.5712,1130.3881 Q1068.9306,1130.5444 1068.2275,1130.5444 Q1065.7275,1130.5444 1064.3994,1128.9038 Q1063.0869,1127.2475 1063.0869,1124.1225 Q1063.0869,1120.9975 1064.3994,1119.3413 Q1065.7275,1117.685 1068.2275,1117.685 Q1068.9306,1117.685 1069.5712,1117.8413 Q1070.2275,1117.9975 1070.79,1118.2944 L1070.79,1121.0131 Q1070.165,1120.435 1069.5712,1120.1694 Q1068.9775,1119.8881 1068.3525,1119.8881 Q1067.0087,1119.8881 1066.3212,1120.9663 Q1065.6337,1122.0288 1065.6337,1124.1225 Q1065.6337,1126.2163 1066.3212,1127.2944 Q1067.0087,1128.3569 1068.3525,1128.3569 Q1068.9775,1128.3569 1069.5712,1128.0913 Q1070.165,1127.81 1070.79,1127.2319 L1070.79,1129.9506 Z " fill="#000000"/><text fill="#000000" font-family="sans-serif" font-size="14" lengthAdjust="spacing" textLength="169.8594" x="1088.3212" y="1129.1567">BluetoothClientManager</text><line style="stroke:#181818;stroke-width:0.5;" x1="897.81" x2="1416.1918" y1="1140.31" y2="1140.31"/><rect fill="none" height="6" style="stroke:#C82930;stroke-width:1;" width="6" x="904.81" y="1150.9584"/><text fill="#000000" font-family="sans-serif" font-size="14" lengthAdjust="spacing" textLength="146.7949" x="916.81" y="1157.3051">activity: MainActivity</text><rect fill="none" height="6" style="stroke:#C82930;stroke-width:1;" width="6" x="904.81" y="1167.2553"/><text fill="#000000" font-family="sans-serif" font-size="14" lengthAdjust="spacing" textLength="267.1074" x="916.81" y="1173.602">bluetoothManager: BluetoothManager</text><rect fill="none" height="6" style="stroke:#C82930;stroke-width:1;" width="6" x="904.81" y="1183.5522"/><text fill="#000000" font-family="sans-serif" font-size="14" lengthAdjust="spacing" textLength="293.7266" x="916.81" y="1189.8989">deviceManager: BluetoothDeviceManager</text><rect fill="none" height="6" style="stroke:#C82930;stroke-width:1;" width="6" x="904.81" y="1199.8491"/><text fill="#000000" font-family="sans-serif" font-size="14" lengthAdjust="spacing" textLength="205.4678" x="916.81" y="1206.1957">receiver: BroadcastReceiver?</text><line style="stroke:#181818;stroke-width:0.5;" x1="897.81" x2="1416.1918" y1="1213.4975" y2="1213.4975"/><rect fill="#F24D5C" height="6" style="stroke:#C82930;stroke-width:1;" width="6" x="904.81" y="1224.1459"/><text fill="#000000" font-family="sans-serif" font-size="14" lengthAdjust="spacing" textLength="350.1846" x="916.81" y="1230.4926">onDeviceDisconnected: (BluetoothSocket) -&gt; Unit</text><ellipse cx="907.81" cy="1243.4428" fill="#84BE84" rx="3" ry="3" style="stroke:#038048;stroke-width:1;"/><text fill="#000000" font-family="sans-serif" font-size="14" lengthAdjust="spacing" textLength="257.0176" x="916.81" y="1246.7895">connectToDevice(deviceMac: String)</text><rect fill="#F24D5C" height="6" style="stroke:#C82930;stroke-width:1;" width="6" x="904.81" y="1256.7397"/><text fill="#000000" font-family="sans-serif" font-size="14" lengthAdjust="spacing" textLength="237.7266" x="916.81" y="1263.0864">connect(device: BluetoothDevice)</text><ellipse cx="907.81" cy="1276.0366" fill="#84BE84" rx="3" ry="3" style="stroke:#038048;stroke-width:1;"/><text fill="#000000" font-family="sans-serif" font-size="14" lengthAdjust="spacing" textLength="494.3818" x="916.81" y="1279.3832">discoveryDevices(discoveredDevices: MutableList&lt;BluetoothDevice&gt;)</text></g><!--class BluetoothServerManager--><g class="entity" data-entity="BluetoothServerManager" data-source-line="88" data-uid="ent0023" id="entity_BluetoothServerManager"><rect fill="#F1F1F1" height="162.0781" rx="2.5" ry="2.5" style="stroke:#181818;stroke-width:0.5;" width="471.9629" x="1452.02" y="1116.46"/><ellipse cx="1596.1318" cy="1132.46" fill="#ADD1B2" rx="11" ry="11" style="stroke:#181818;stroke-width:1;"/><path d="M1599.1006,1138.1006 Q1598.5224,1138.3975 1597.8818,1138.5381 Q1597.2412,1138.6944 1596.5381,1138.6944 Q1594.0381,1138.6944 1592.7099,1137.0538 Q1591.3974,1135.3975 1591.3974,1132.2725 Q1591.3974,1129.1475 1592.7099,1127.4913 Q1594.0381,1125.835 1596.5381,1125.835 Q1597.2412,1125.835 1597.8818,1125.9913 Q1598.5381,1126.1475 1599.1006,1126.4444 L1599.1006,1129.1631 Q1598.4756,1128.585 1597.8818,1128.3194 Q1597.2881,1128.0381 1596.6631,1128.0381 Q1595.3193,1128.0381 1594.6318,1129.1163 Q1593.9443,1130.1788 1593.9443,1132.2725 Q1593.9443,1134.3663 1594.6318,1135.4444 Q1595.3193,1136.5069 1596.6631,1136.5069 Q1597.2881,1136.5069 1597.8818,1136.2413 Q1598.4756,1135.96 1599.1006,1135.3819 L1599.1006,1138.1006 Z " fill="#000000"/><text fill="#000000" font-family="sans-serif" font-size="14" lengthAdjust="spacing" textLength="175.2393" x="1616.6318" y="1137.3067">BluetoothServerManager</text><line style="stroke:#181818;stroke-width:0.5;" x1="1453.02" x2="1922.9829" y1="1148.46" y2="1148.46"/><rect fill="none" height="6" style="stroke:#C82930;stroke-width:1;" width="6" x="1460.02" y="1159.1084"/><text fill="#000000" font-family="sans-serif" font-size="14" lengthAdjust="spacing" textLength="146.7949" x="1472.02" y="1165.4551">activity: MainActivity</text><rect fill="none" height="6" style="stroke:#C82930;stroke-width:1;" width="6" x="1460.02" y="1175.4053"/><text fill="#000000" font-family="sans-serif" font-size="14" lengthAdjust="spacing" textLength="293.7266" x="1472.02" y="1181.752">deviceManager: BluetoothDeviceManager</text><line style="stroke:#181818;stroke-width:0.5;" x1="1453.02" x2="1922.9829" y1="1189.0538" y2="1189.0538"/><rect fill="#F24D5C" height="6" style="stroke:#C82930;stroke-width:1;" width="6" x="1460.02" y="1199.7022"/><text fill="#000000" font-family="sans-serif" font-size="14" lengthAdjust="spacing" textLength="350.1846" x="1472.02" y="1206.0489">onDeviceDisconnected: (BluetoothSocket) -&gt; Unit</text><rect fill="#F24D5C" height="6" style="stroke:#C82930;stroke-width:1;" width="6" x="1460.02" y="1215.9991"/><text fill="#000000" font-family="sans-serif" font-size="14" lengthAdjust="spacing" textLength="300.8291" x="1472.02" y="1222.3457">onServerSocketCreated: ((String) -&gt; Unit)?</text><ellipse cx="1463.02" cy="1235.2959" fill="#84BE84" rx="3" ry="3" style="stroke:#038048;stroke-width:1;"/><text fill="#000000" font-family="sans-serif" font-size="14" lengthAdjust="spacing" textLength="157.4043" x="1472.02" y="1238.6426">startBluetoothServer()</text><ellipse cx="1463.02" cy="1251.5928" fill="#84BE84" rx="3" ry="3" style="stroke:#038048;stroke-width:1;"/><text fill="#000000" font-family="sans-serif" font-size="14" lengthAdjust="spacing" textLength="445.9629" x="1472.02" y="1254.9395">updateServerSocketNameCallback(callback: ((String) -&gt; Unit)?)</text><ellipse cx="1463.02" cy="1267.8897" fill="#84BE84" rx="3" ry="3" style="stroke:#038048;stroke-width:1;"/><text fill="#000000" font-family="sans-serif" font-size="14" lengthAdjust="spacing" textLength="126.1982" x="1472.02" y="1271.2364">closeConnection()</text></g><!--class BluetoothDeviceManager--><g class="entity" data-entity="BluetoothDeviceManager" data-source-line="104" data-uid="ent0025" id="entity_BluetoothDeviceManager"><rect fill="#F1F1F1" height="32" rx="2.5" ry="2.5" style="stroke:#181818;stroke-width:0.5;" width="209.208" x="1474.4" y="786.68"/><ellipse cx="1489.4" cy="802.68" fill="#ADD1B2" rx="11" ry="11" style="stroke:#181818;stroke-width:1;"/><path d="M1492.3688,808.3206 Q1491.7906,808.6175 1491.15,808.7581 Q1490.5094,808.9144 1489.8063,808.9144 Q1487.3063,808.9144 1485.9781,807.2738 Q1484.6656,805.6175 1484.6656,802.4925 Q1484.6656,799.3675 1485.9781,797.7113 Q1487.3063,796.055 1489.8063,796.055 Q1490.5094,796.055 1491.15,796.2113 Q1491.8063,796.3675 1492.3688,796.6644 L1492.3688,799.3831 Q1491.7438,798.805 1491.15,798.5394 Q1490.5563,798.2581 1489.9313,798.2581 Q1488.5875,798.2581 1487.9,799.3363 Q1487.2125,800.3988 1487.2125,802.4925 Q1487.2125,804.5863 1487.9,805.6644 Q1488.5875,806.7269 1489.9313,806.7269 Q1490.5563,806.7269 1491.15,806.4613 Q1491.7438,806.18 1492.3688,805.6019 L1492.3688,808.3206 Z " fill="#000000"/><text fill="#000000" font-family="sans-serif" font-size="14" lengthAdjust="spacing" textLength="177.208" x="1503.4" y="807.5267">BluetoothDeviceManager</text></g><!--reverse link BluetoothHandlerInterface to LobbyBluetoothHandlerInterface--><g class="link" data-entity-1="BluetoothHandlerInterface" data-entity-2="LobbyBluetoothHandlerInterface" data-source-line="19" data-uid="lnk6" id="link_BluetoothHandlerInterface_LobbyBluetoothHandlerInterface"><path d="M295.0552,223.4375 C290.3752,242.6275 289.43,246.51 284.62,266.22" fill="none" id="BluetoothHandlerInterface-backto-LobbyBluetoothHandlerInterface" style="stroke:#181818;stroke-width:1;"/><polygon fill="none" points="299.32,205.95,289.2261,222.0159,300.8844,224.8591,299.32,205.95" style="stroke:#181818;stroke-width:1;"/></g><!--reverse link LobbyBluetoothHandlerInterface to BluetoothHandler--><g class="link" data-entity-1="LobbyBluetoothHandlerInterface" data-entity-2="BluetoothHandler" data-source-line="28" data-uid="lnk8" id="link_LobbyBluetoothHandlerInterface_BluetoothHandler"><path d="M384.2375,414.5534 C412.3475,433.4534 428.59,444.38 459.04,464.86" fill="none" id="LobbyBluetoothHandlerInterface-backto-BluetoothHandler" style="stroke:#181818;stroke-width:1;stroke-dasharray:7.0,7.0;"/><polygon fill="none" points="369.3,404.51,380.8898,419.5326,387.5853,409.5742,369.3,404.51" style="stroke:#181818;stroke-width:1;"/></g><!--link BluetoothHandlerProvider to BluetoothHandler--><g class="link" data-entity-1="BluetoothHandlerProvider" data-entity-2="BluetoothHandler" data-source-line="46" data-uid="lnk10" id="link_BluetoothHandlerProvider_BluetoothHandler"><path codeLine="46" d="M671.92,374.39 C664.72,399.13 656.6189,426.9297 647.1989,459.2497" fill="none" id="BluetoothHandlerProvider-to-BluetoothHandler" style="stroke:#181818;stroke-width:1;"/><polygon fill="#181818" points="645.52,465.01,651.8786,457.4888,646.9191,460.2097,644.1981,455.2503,645.52,465.01" style="stroke:#181818;stroke-width:1;"/></g><!--reverse link OnDeviceDisconnectStrategy to GameOnDeviceDisconnectStrategy--><g class="link" data-entity-1="OnDeviceDisconnectStrategy" data-entity-2="GameOnDeviceDisconnectStrategy" data-source-line="55" data-uid="lnk14" id="link_OnDeviceDisconnectStrategy_GameOnDeviceDisconnectStrategy"><path d="M279.5825,848.6144 C273.2125,876.0744 267.41,901.09 260.19,932.23" fill="none" id="OnDeviceDisconnectStrategy-backto-GameOnDeviceDisconnectStrategy" style="stroke:#181818;stroke-width:1;stroke-dasharray:7.0,7.0;"/><polygon fill="none" points="283.65,831.08,273.7377,847.2586,285.4273,849.9702,283.65,831.08" style="stroke:#181818;stroke-width:1;"/></g><!--reverse link OnDeviceDisconnectStrategy to LobbyClientOnDeviceDisconnectStrategy--><g class="link" data-entity-1="OnDeviceDisconnectStrategy" data-entity-2="LobbyClientOnDeviceDisconnectStrategy" data-source-line="60" data-uid="lnk16" id="link_OnDeviceDisconnectStrategy_LobbyClientOnDeviceDisconnectStrategy"><path d="M349.703,840.5072 C374.023,855.1772 389.53,863.79 418,878.13 C449.74,894.11 484.83,909.96 517.43,923.96" fill="none" id="OnDeviceDisconnectStrategy-backto-LobbyClientOnDeviceDisconnectStrategy" style="stroke:#181818;stroke-width:1;stroke-dasharray:7.0,7.0;"/><polygon fill="none" points="334.29,831.21,346.6039,845.6449,352.8021,835.3696,334.29,831.21" style="stroke:#181818;stroke-width:1;"/></g><!--reverse link BasicBluetoothCommunication to BluetoothCommunicationManager--><g class="link" data-entity-1="BasicBluetoothCommunication" data-entity-2="BluetoothCommunicationManager" data-source-line="70" data-uid="lnk20" id="link_BasicBluetoothCommunication_BluetoothCommunicationManager"><path d="M1180,865.43 C1180,883.83 1180,887.6 1180,907.75" fill="none" id="BasicBluetoothCommunication-backto-BluetoothCommunicationManager" style="stroke:#181818;stroke-width:1;stroke-dasharray:7.0,7.0;"/><polygon fill="none" points="1180,847.43,1174,865.43,1186,865.43,1180,847.43" style="stroke:#181818;stroke-width:1;"/></g><!--reverse link BluetoothCommunicationManager to BluetoothClientManager--><g class="link" data-entity-1="BluetoothCommunicationManager" data-entity-2="BluetoothClientManager" data-source-line="78" data-uid="lnk22" id="link_BluetoothCommunicationManager_BluetoothClientManager"><path d="M1171.5264,1055.8743 C1169.2664,1077.7043 1168.56,1084.62 1166.14,1108.02" fill="none" id="BluetoothCommunicationManager-backto-BluetoothClientManager" style="stroke:#181818;stroke-width:1;"/><polygon fill="none" points="1173.38,1037.97,1165.5583,1055.2564,1177.4945,1056.4922,1173.38,1037.97" style="stroke:#181818;stroke-width:1;"/></g><!--reverse link BluetoothCommunicationManager to BluetoothServerManager--><g class="link" data-entity-1="BluetoothCommunicationManager" data-entity-2="BluetoothServerManager" data-source-line="89" data-uid="lnk24" id="link_BluetoothCommunicationManager_BluetoothServerManager"><path d="M1342.7368,1045.1939 C1398.2868,1069.5339 1445.78,1090.35 1504.35,1116.02" fill="none" id="BluetoothCommunicationManager-backto-BluetoothServerManager" style="stroke:#181818;stroke-width:1;"/><polygon fill="none" points="1326.25,1037.97,1340.3288,1050.6895,1345.1448,1039.6983,1326.25,1037.97" style="stroke:#181818;stroke-width:1;"/></g><!--link BluetoothHandler to BluetoothDeviceManager--><g class="link" data-entity-1="BluetoothHandler" data-entity-2="BluetoothDeviceManager" data-source-line="115" data-uid="lnk26" id="link_BluetoothHandler_BluetoothDeviceManager"><path codeLine="115" d="M841.03,582.93 C1015.02,597.92 1258.51,633.04 1457,715.24 C1498.97,732.62 1536.0984,762.6294 1558.2184,782.4194" fill="none" id="BluetoothHandler-to-BluetoothDeviceManager" style="stroke:#181818;stroke-width:1;"/><polygon fill="#181818" points="1562.69,786.42,1558.6497,777.438,1558.9637,783.0862,1553.3155,783.4002,1562.69,786.42" style="stroke:#181818;stroke-width:1;"/></g><!--link BluetoothHandler to BluetoothClientManager--><g class="link" data-entity-1="BluetoothHandler" data-entity-2="BluetoothClientManager" data-source-line="116" data-uid="lnk27" id="link_BluetoothHandler_BluetoothClientManager"><path codeLine="116" d="M796.01,676.4 C807.78,688.31 818.35,701.25 827,715.24 C912.58,853.7 776.14,949 875,1078.31 C883.3,1089.17 888.2577,1095.1182 898.5977,1104.0882" fill="none" id="BluetoothHandler-to-BluetoothClientManager" style="stroke:#181818;stroke-width:1;"/><polygon fill="#181818" points="903.13,1108.02,898.9528,1099.1009,899.3531,1104.7435,893.7105,1105.1439,903.13,1108.02" style="stroke:#181818;stroke-width:1;"/></g><!--link BluetoothHandler to BluetoothServerManager--><g class="link" data-entity-1="BluetoothHandler" data-entity-2="BluetoothServerManager" data-source-line="117" data-uid="lnk28" id="link_BluetoothHandler_BluetoothServerManager"><path codeLine="117" d="M817.08,676.5 C829.48,688.3 840.69,701.19 850,715.24 C893.97,781.54 844.66,1015.22 903,1069.31 C946.46,1109.62 1376.96,1096.29 1435,1108.31 C1445.82,1110.56 1451.0008,1111.639 1462.0308,1114.489" fill="none" id="BluetoothHandler-to-BluetoothServerManager" style="stroke:#181818;stroke-width:1;"/><polygon fill="#181818" points="1467.84,1115.99,1460.1269,1109.8657,1462.999,1114.7391,1458.1255,1117.6113,1467.84,1115.99" style="stroke:#181818;stroke-width:1;"/></g><!--link BluetoothHandler to OnDeviceDisconnectStrategy--><g class="link" data-entity-1="BluetoothHandler" data-entity-2="OnDeviceDisconnectStrategy" data-source-line="118" data-uid="lnk29" id="link_BluetoothHandler_OnDeviceDisconnectStrategy"><path codeLine="118" d="M466.77,676.62 C416.04,712.51 368.3482,746.2548 333.8582,770.6548" fill="none" id="BluetoothHandler-to-OnDeviceDisconnectStrategy" style="stroke:#181818;stroke-width:1;"/><polygon fill="#181818" points="328.96,774.12,338.6174,772.1876,333.0418,771.2323,333.9971,765.6567,328.96,774.12" style="stroke:#181818;stroke-width:1;"/></g><!--link BluetoothHandler to GameOnDeviceDisconnectStrategy--><g class="link" data-entity-1="BluetoothHandler" data-entity-2="GameOnDeviceDisconnectStrategy" data-source-line="119" data-uid="lnk30" id="link_BluetoothHandler_GameOnDeviceDisconnectStrategy"><path codeLine="119" d="M582.63,676.62 C561.31,732.42 528.76,799.19 483,847.13 C448.11,883.68 405.5429,909.3736 362.2529,929.6636" fill="none" id="BluetoothHandler-to-GameOnDeviceDisconnectStrategy" style="stroke:#181818;stroke-width:1;stroke-dasharray:7.0,7.0;"/><polygon fill="#181818" points="356.82,932.21,366.6669,932.0123,361.3474,930.088,363.2717,924.7685,356.82,932.21" style="stroke:#181818;stroke-width:1;"/><text fill="#000000" font-family="sans-serif" font-size="13" lengthAdjust="spacing" textLength="29.7832" x="567" y="807.2469">uses</text></g><!--link BluetoothHandler to LobbyClientOnDeviceDisconnectStrategy--><g class="link" data-entity-1="BluetoothHandler" data-entity-2="LobbyClientOnDeviceDisconnectStrategy" data-source-line="120" data-uid="lnk31" id="link_BluetoothHandler_LobbyClientOnDeviceDisconnectStrategy"><path codeLine="120" d="M620.5,676.62 C624.71,756.73 629.9954,857.4083 633.1854,918.1583" fill="none" id="BluetoothHandler-to-LobbyClientOnDeviceDisconnectStrategy" style="stroke:#181818;stroke-width:1;stroke-dasharray:7.0,7.0;"/><polygon fill="#181818" points="633.5,924.15,637.0226,914.9526,633.2378,919.1569,629.0336,915.3721,633.5,924.15" style="stroke:#181818;stroke-width:1;"/><text fill="#000000" font-family="sans-serif" font-size="13" lengthAdjust="spacing" textLength="29.7832" x="630" y="807.2469">uses</text></g><!--SRC=[pLVRRjim37tFLmZRGrsiwGSOGuCsxIv0imrjzm6opIPQPScGb7JPi7yVOqcsvKkSx8Aj1Pg4FcJ8moDINR4C2EI5sP8SyWIKdkWd9WggQ4xqYcRocOabUQHSmsGoEI5NV0r6IhEQ53HzeaiWBohJ2_8zW91tL6GS5BcbMr2rWpFlu8GmOK0zqXHgF_VyVVLaXoFa5T5WRZYaXaanfvmd631AtPkOHATaUa4-2sPEQ_n7SGqRbi8rqwaK0ftlZQ86bjj8kpSn6GRLaKIs0Aqn_oYthp5nXhdC2waXEoDP6IMkAx5XVP14IPgbL9knIDv1TlA2BD8oVGBJ-9Bxqh3p-J492BsLIR8TPXM-6gnA7yAxeShKtmTg0oggg36o67xMT9np1i9SYgoi1t7R2kZAUv2suCWokQ1fJB0LAC6Q4g-01vQ3UiC4qojafT5ocuDbvGFDeKygaOjQAMPMyPToghka49ON77BCNu_nQbcR4effRfX1VIqe4vVkati8hee55TXuXUrSSxwz2QqEwydmo51T8JRn3xlm0U1bHWiJ09sb3RJjwyODxBEsb-r6rokmUoyvU13t7T9PYzDvey-D3ZkK7f17hogyA6Jo1MDtLF59oGrEK5NrF6a1uexBp0aLXMiOvUmRHFr2yOfUWcd7Y4wxSNscWobEiQYE4uvhno83NK_esjOUqiDTgAP5jucZCykUkRVOZJtn6oTmD8j3Eb6TsD_Dkvm7zXJyi_IFcHB7bxhxHQdO8BiQQgdKDYiLckpsAfwLrXp5tPQl1KjfOxurERcYcgNzQ4VAoqDdLWFui590itXVT0kPzIpwWNL-HiRszj6BFkNuQMuxWIb5Gyie6BNT1TxByK7hwE2rSSmkwhk-u9HjAynFM-Ub80MsAODx6k-SQNRSRM7gWT78nIppzn5hrf4tGEOiIDhQq8J3BTFcTIlCnL2xWXtt9zlrzxiWHVCQDSSZOjrwL-Je7N5TPEZ_wnUplMUayH_4w0pvtmzuq42NSud4d_Bl2Ra3NbQaLwpG907p3228cyTwqhcu1di_5CX-R31iHh21qlknmqklYpy_lnYv3SHahVkgtNaUj8zjW9y0]--></g></svg>