<svg xmlns="http://www.w3.org/2000/svg" xmlns:xlink="http://www.w3.org/1999/xlink" contentStyleType="text/css" data-diagram-type="CLASS" height="580px" preserveAspectRatio="none" style="width:1110px;height:580px;background:#FFFFFF;" version="1.1" viewBox="0 0 1110 580" width="1110px" zoomAndPan="magnify"><defs/><g><!--cluster Controller--><g class="cluster" data-entity="Controller" data-source-line="5" data-uid="ent0002" id="cluster_Controller"><path d="M8.5,6 L88.5713,6 A3.75,3.75 0 0 1 91.0713,8.5 L98.0713,28.2969 L1100.5,28.2969 A2.5,2.5 0 0 1 1103,30.7969 L1103,487.54 A2.5,2.5 0 0 1 1100.5,490.04 L8.5,490.04 A2.5,2.5 0 0 1 6,487.54 L6,8.5 A2.5,2.5 0 0 1 8.5,6" fill="none" style="stroke:#000000;stroke-width:1.5;"/><line style="stroke:#000000;stroke-width:1.5;" x1="6" x2="98.0713" y1="28.2969" y2="28.2969"/><text fill="#000000" font-family="sans-serif" font-size="14" font-weight="bold" lengthAdjust="spacing" textLength="79.0713" x="10" y="20.9951">Controller</text></g><!--class BaseController--><g class="entity" data-entity="BaseController" data-source-line="6" data-uid="ent0003" id="entity_BaseController"><rect fill="#F1F1F1" height="80.5938" rx="2.5" ry="2.5" style="stroke:#181818;stroke-width:0.5;" width="355.417" x="138.29" y="49.15"/><ellipse cx="260.1167" cy="65.15" fill="#A9DCDF" rx="11" ry="11" style="stroke:#181818;stroke-width:1;"/><path d="M260.226,60.4937 L259.0698,65.5719 L261.3979,65.5719 L260.226,60.4937 Z M258.7417,58.2594 L261.726,58.2594 L265.0854,70.65 L262.6323,70.65 L261.8667,67.5875 L258.5854,67.5875 L257.8354,70.65 L255.3979,70.65 L258.7417,58.2594 Z " fill="#000000"/><text fill="#000000" font-family="sans-serif" font-size="14" font-style="italic" lengthAdjust="spacing" textLength="103.2637" x="280.6167" y="69.9967">BaseController</text><line style="stroke:#181818;stroke-width:0.5;" x1="139.29" x2="492.707" y1="81.15" y2="81.15"/><polygon fill="none" points="149.29,89.7984,153.29,93.7984,149.29,97.7984,145.29,93.7984" style="stroke:#B38D22;stroke-width:1;"/><text fill="#000000" font-family="sans-serif" font-size="14" lengthAdjust="spacing" textLength="146.7949" x="158.29" y="98.1451">activity: MainActivity</text><line style="stroke:#181818;stroke-width:0.5;" x1="139.29" x2="492.707" y1="105.4469" y2="105.4469"/><ellipse cx="149.29" cy="119.0953" fill="#84BE84" rx="3" ry="3" style="stroke:#038048;stroke-width:1;"/><text fill="#000000" font-family="sans-serif" font-size="14" lengthAdjust="spacing" textLength="329.417" x="158.29" y="122.442">setNavController(navController: NavController)</text></g><!--class MainController--><g class="entity" data-entity="MainController" data-source-line="11" data-uid="ent0004" id="entity_MainController"><rect fill="#F1F1F1" height="96.8906" rx="2.5" ry="2.5" style="stroke:#181818;stroke-width:0.5;" width="254.9082" x="633.55" y="41"/><ellipse cx="705.4572" cy="57" fill="#ADD1B2" rx="11" ry="11" style="stroke:#181818;stroke-width:1;"/><path d="M708.426,62.6406 Q707.8479,62.9375 707.2072,63.0781 Q706.5666,63.2344 705.8635,63.2344 Q703.3635,63.2344 702.0354,61.5938 Q700.7229,59.9375 700.7229,56.8125 Q700.7229,53.6875 702.0354,52.0313 Q703.3635,50.375 705.8635,50.375 Q706.5666,50.375 707.2072,50.5313 Q707.8635,50.6875 708.426,50.9844 L708.426,53.7031 Q707.801,53.125 707.2072,52.8594 Q706.6135,52.5781 705.9885,52.5781 Q704.6447,52.5781 703.9572,53.6563 Q703.2697,54.7188 703.2697,56.8125 Q703.2697,58.9063 703.9572,59.9844 Q704.6447,61.0469 705.9885,61.0469 Q706.6135,61.0469 707.2072,60.7813 Q707.801,60.5 708.426,59.9219 L708.426,62.6406 Z " fill="#000000"/><text fill="#000000" font-family="sans-serif" font-size="14" lengthAdjust="spacing" textLength="102.5938" x="725.9572" y="61.8467">MainController</text><line style="stroke:#181818;stroke-width:0.5;" x1="634.55" x2="887.4582" y1="73" y2="73"/><rect fill="none" height="6" style="stroke:#C82930;stroke-width:1;" width="6" x="641.55" y="83.6484"/><text fill="#000000" font-family="sans-serif" font-size="14" lengthAdjust="spacing" textLength="228.4502" x="653.55" y="89.9951">lobbyController: LobbyController</text><rect fill="none" height="6" style="stroke:#C82930;stroke-width:1;" width="6" x="641.55" y="99.9453"/><text fill="#000000" font-family="sans-serif" font-size="14" lengthAdjust="spacing" textLength="228.9082" x="653.55" y="106.292">gameController: GameController</text><line style="stroke:#181818;stroke-width:0.5;" x1="634.55" x2="887.4582" y1="113.5938" y2="113.5938"/><rect fill="#F24D5C" height="6" style="stroke:#C82930;stroke-width:1;" width="6" x="641.55" y="124.2422"/><text fill="#000000" font-family="sans-serif" font-size="14" lengthAdjust="spacing" textLength="85.21" x="653.55" y="130.5889">startGame()</text></g><!--class LobbyController--><g class="entity" data-entity="LobbyController" data-source-line="17" data-uid="ent0005" id="entity_LobbyController"><rect fill="#F1F1F1" height="259.8594" rx="2.5" ry="2.5" style="stroke:#181818;stroke-width:0.5;" width="484.2334" x="21.88" y="206.04"/><ellipse cx="203.9484" cy="222.04" fill="#ADD1B2" rx="11" ry="11" style="stroke:#181818;stroke-width:1;"/><path d="M206.9171,227.6806 Q206.339,227.9775 205.6984,228.1181 Q205.0577,228.2744 204.3546,228.2744 Q201.8546,228.2744 200.5265,226.6337 Q199.214,224.9775 199.214,221.8525 Q199.214,218.7275 200.5265,217.0712 Q201.8546,215.415 204.3546,215.415 Q205.0577,215.415 205.6984,215.5712 Q206.3546,215.7275 206.9171,216.0244 L206.9171,218.7431 Q206.2921,218.165 205.6984,217.8994 Q205.1046,217.6181 204.4796,217.6181 Q203.1359,217.6181 202.4484,218.6962 Q201.7609,219.7587 201.7609,221.8525 Q201.7609,223.9462 202.4484,225.0244 Q203.1359,226.0869 204.4796,226.0869 Q205.1046,226.0869 205.6984,225.8212 Q206.2921,225.54 206.9171,224.9619 L206.9171,227.6806 Z " fill="#000000"/><text fill="#000000" font-family="sans-serif" font-size="14" lengthAdjust="spacing" textLength="111.5967" x="224.4484" y="226.8867">LobbyController</text><line style="stroke:#181818;stroke-width:0.5;" x1="22.88" x2="505.1134" y1="238.04" y2="238.04"/><rect fill="none" height="6" style="stroke:#C82930;stroke-width:1;" width="6" x="29.88" y="248.6884"/><text fill="#000000" font-family="sans-serif" font-size="14" lengthAdjust="spacing" textLength="359.7275" x="41.88" y="255.0351">bluetoothHandler: LobbyBluetoothHandlerInterface</text><rect fill="none" height="6" style="stroke:#C82930;stroke-width:1;" width="6" x="29.88" y="264.9853"/><text fill="#000000" font-family="sans-serif" font-size="14" lengthAdjust="spacing" textLength="300.7266" x="41.88" y="271.332">_deviceManager: BluetoothDeviceManager</text><rect fill="none" height="6" style="stroke:#C82930;stroke-width:1;" width="6" x="29.88" y="281.2822"/><text fill="#000000" font-family="sans-serif" font-size="14" lengthAdjust="spacing" textLength="381.3291" x="41.88" y="287.6289">consistencyCheckCallback: ConsistencyCheckCallback</text><rect fill="none" height="6" style="stroke:#C82930;stroke-width:1;" width="6" x="29.88" y="297.5791"/><text fill="#000000" font-family="sans-serif" font-size="14" lengthAdjust="spacing" textLength="408.6455" x="41.88" y="303.9257">networkConsistencyChecker: NetworkConsistencyChecker</text><line style="stroke:#181818;stroke-width:0.5;" x1="22.88" x2="505.1134" y1="311.2275" y2="311.2275"/><rect fill="#F24D5C" height="6" style="stroke:#C82930;stroke-width:1;" width="6" x="29.88" y="321.8759"/><text fill="#000000" font-family="sans-serif" font-size="14" lengthAdjust="spacing" textLength="148.5586" x="41.88" y="328.2226">startGame: () -&gt; Unit</text><rect fill="#F24D5C" height="6" style="stroke:#C82930;stroke-width:1;" width="6" x="29.88" y="338.1728"/><text fill="#000000" font-family="sans-serif" font-size="14" lengthAdjust="spacing" textLength="207.6143" x="41.88" y="344.5195">informClientsAndStartGame()</text><ellipse cx="32.88" cy="357.4697" fill="#84BE84" rx="3" ry="3" style="stroke:#038048;stroke-width:1;"/><text fill="#000000" font-family="sans-serif" font-size="14" lengthAdjust="spacing" textLength="171.2471" x="41.88" y="360.8164">startConsistencyCheck()</text><ellipse cx="32.88" cy="373.7666" fill="#84BE84" rx="3" ry="3" style="stroke:#038048;stroke-width:1;"/><text fill="#000000" font-family="sans-serif" font-size="14" lengthAdjust="spacing" textLength="449.5654" x="41.88" y="377.1132">startLobbyAsServer(onServerSocketCreated: ((String) -&gt; Unit)?)</text><ellipse cx="32.88" cy="390.0634" fill="#84BE84" rx="3" ry="3" style="stroke:#038048;stroke-width:1;"/><text fill="#000000" font-family="sans-serif" font-size="14" lengthAdjust="spacing" textLength="85.9551" x="41.88" y="393.4101">startLobby()</text><ellipse cx="32.88" cy="406.3603" fill="#84BE84" rx="3" ry="3" style="stroke:#038048;stroke-width:1;"/><text fill="#000000" font-family="sans-serif" font-size="14" lengthAdjust="spacing" textLength="155.0322" x="41.88" y="409.707">stopBluetoothServer()</text><rect fill="#F24D5C" height="6" style="stroke:#C82930;stroke-width:1;" width="6" x="29.88" y="419.6572"/><text fill="#000000" font-family="sans-serif" font-size="14" lengthAdjust="spacing" textLength="458.2334" x="41.88" y="426.0039">startBluetoothServer(onServerSocketCreated: ((String) -&gt; Unit)?)</text><ellipse cx="32.88" cy="438.9541" fill="#84BE84" rx="3" ry="3" style="stroke:#038048;stroke-width:1;"/><text fill="#000000" font-family="sans-serif" font-size="14" lengthAdjust="spacing" textLength="136.7119" x="41.88" y="442.3007">activateDiscovery()</text><ellipse cx="32.88" cy="455.2509" fill="#84BE84" rx="3" ry="3" style="stroke:#038048;stroke-width:1;"/><text fill="#000000" font-family="sans-serif" font-size="14" lengthAdjust="spacing" textLength="243.8584" x="41.88" y="458.5976">notifyReadiness(isReady: Boolean)</text></g><!--class GameController--><g class="entity" data-entity="GameController" data-source-line="33" data-uid="ent0006" id="entity_GameController"><rect fill="#F1F1F1" height="276.1563" rx="2.5" ry="2.5" style="stroke:#181818;stroke-width:0.5;" width="546.249" x="540.88" y="197.89"/><ellipse cx="754.3287" cy="213.89" fill="#ADD1B2" rx="11" ry="11" style="stroke:#181818;stroke-width:1;"/><path d="M757.2975,219.5306 Q756.7194,219.8275 756.0787,219.9681 Q755.4381,220.1244 754.735,220.1244 Q752.235,220.1244 750.9069,218.4837 Q749.5944,216.8275 749.5944,213.7025 Q749.5944,210.5775 750.9069,208.9212 Q752.235,207.265 754.735,207.265 Q755.4381,207.265 756.0787,207.4212 Q756.735,207.5775 757.2975,207.8744 L757.2975,210.5931 Q756.6725,210.015 756.0787,209.7494 Q755.485,209.4681 754.86,209.4681 Q753.5162,209.4681 752.8287,210.5462 Q752.1412,211.6087 752.1412,213.7025 Q752.1412,215.7962 752.8287,216.8744 Q753.5162,217.9369 754.86,217.9369 Q755.485,217.9369 756.0787,217.6712 Q756.6725,217.39 757.2975,216.8119 L757.2975,219.5306 Z " fill="#000000"/><text fill="#000000" font-family="sans-serif" font-size="14" lengthAdjust="spacing" textLength="110.8516" x="774.8287" y="218.7367">GameController</text><line style="stroke:#181818;stroke-width:0.5;" x1="541.88" x2="1086.129" y1="229.89" y2="229.89"/><rect fill="none" height="6" style="stroke:#C82930;stroke-width:1;" width="6" x="548.88" y="240.5384"/><text fill="#000000" font-family="sans-serif" font-size="14" lengthAdjust="spacing" textLength="317.3037" x="560.88" y="246.8851">bluetoothHandler: BluetoothHandlerInterface</text><rect fill="none" height="6" style="stroke:#C82930;stroke-width:1;" width="6" x="548.88" y="256.8353"/><text fill="#000000" font-family="sans-serif" font-size="14" lengthAdjust="spacing" textLength="300.7266" x="560.88" y="263.182">_deviceManager: BluetoothDeviceManager</text><rect fill="none" height="6" style="stroke:#C82930;stroke-width:1;" width="6" x="548.88" y="273.1322"/><text fill="#000000" font-family="sans-serif" font-size="14" lengthAdjust="spacing" textLength="174.6309" x="560.88" y="279.4789">gameModel: GameModel</text><line style="stroke:#181818;stroke-width:0.5;" x1="541.88" x2="1086.129" y1="286.7806" y2="286.7806"/><ellipse cx="551.88" cy="300.4291" fill="#84BE84" rx="3" ry="3" style="stroke:#038048;stroke-width:1;"/><text fill="#000000" font-family="sans-serif" font-size="14" lengthAdjust="spacing" textLength="120.7295" x="560.88" y="303.7757">iAmCoordinator()</text><ellipse cx="551.88" cy="316.7259" fill="#84BE84" rx="3" ry="3" style="stroke:#038048;stroke-width:1;"/><text fill="#000000" font-family="sans-serif" font-size="14" lengthAdjust="spacing" textLength="127.5107" x="560.88" y="320.0726">electionOnGoing()</text><ellipse cx="551.88" cy="333.0228" fill="#84BE84" rx="3" ry="3" style="stroke:#038048;stroke-width:1;"/><text fill="#000000" font-family="sans-serif" font-size="14" lengthAdjust="spacing" textLength="85.21" x="560.88" y="336.3695">startGame()</text><ellipse cx="551.88" cy="349.3197" fill="#84BE84" rx="3" ry="3" style="stroke:#038048;stroke-width:1;"/><text fill="#000000" font-family="sans-serif" font-size="14" lengthAdjust="spacing" textLength="421.3125" x="560.88" y="352.6664">getGameResults(): SnapshotStateList&lt;Pair&lt;String, Long&gt;&gt;</text><rect fill="#F24D5C" height="6" style="stroke:#C82930;stroke-width:1;" width="6" x="548.88" y="362.6166"/><text fill="#000000" font-family="sans-serif" font-size="14" lengthAdjust="spacing" textLength="130.874" x="560.88" y="368.9632">startButtonTimer()</text><rect fill="#F24D5C" height="6" style="stroke:#C82930;stroke-width:1;" width="6" x="548.88" y="378.9134"/><text fill="#000000" font-family="sans-serif" font-size="14" lengthAdjust="spacing" textLength="223.1113" x="560.88" y="385.2601">waitForAllMessagesOrTimeout()</text><ellipse cx="551.88" cy="398.2103" fill="#84BE84" rx="3" ry="3" style="stroke:#038048;stroke-width:1;"/><text fill="#000000" font-family="sans-serif" font-size="14" lengthAdjust="spacing" textLength="476.7383" x="560.88" y="401.557">endGameForDevice(device: BluetoothDevice, timeDifference: Long)</text><ellipse cx="551.88" cy="414.5072" fill="#84BE84" rx="3" ry="3" style="stroke:#038048;stroke-width:1;"/><text fill="#000000" font-family="sans-serif" font-size="14" lengthAdjust="spacing" textLength="520.249" x="560.88" y="417.8539">buttonGamePressed()    + getGameStatus(): MutableState&lt;GameStatus&gt;</text><text fill="#000000" font-family="sans-serif" font-size="14" lengthAdjust="spacing" textLength="4.4502" x="560.88" y="434.1507">&#160;</text><ellipse cx="551.88" cy="447.1009" fill="#84BE84" rx="3" ry="3" style="stroke:#038048;stroke-width:1;"/><text fill="#000000" font-family="sans-serif" font-size="14" lengthAdjust="spacing" textLength="332.5889" x="560.88" y="450.4476">getGameStatus(): MutableState&lt;GameStatus&gt;</text><ellipse cx="551.88" cy="463.3978" fill="#84BE84" rx="3" ry="3" style="stroke:#038048;stroke-width:1;"/><text fill="#000000" font-family="sans-serif" font-size="14" lengthAdjust="spacing" textLength="188.9521" x="560.88" y="466.7445">backToLobby(): AppRoute?</text></g><!--class BluetoothHandlerProvider--><g class="entity" data-entity="BluetoothHandlerProvider" data-source-line="58" data-uid="ent0011" id="entity_BluetoothHandlerProvider"><rect fill="#F1F1F1" height="40.2656" rx="2.5" ry="2.5" style="stroke:#181818;stroke-width:0.5;" width="213.2822" x="432.36" y="534.04"/><ellipse cx="447.36" cy="554.1728" fill="#ADD1B2" rx="11" ry="11" style="stroke:#181818;stroke-width:1;"/><path d="M450.3288,559.8134 Q449.7506,560.1103 449.11,560.2509 Q448.4694,560.4072 447.7663,560.4072 Q445.2663,560.4072 443.9381,558.7666 Q442.6256,557.1103 442.6256,553.9853 Q442.6256,550.8603 443.9381,549.2041 Q445.2663,547.5478 447.7663,547.5478 Q448.4694,547.5478 449.11,547.7041 Q449.7663,547.8603 450.3288,548.1572 L450.3288,550.8759 Q449.7038,550.2978 449.11,550.0322 Q448.5163,549.7509 447.8913,549.7509 Q446.5475,549.7509 445.86,550.8291 Q445.1725,551.8916 445.1725,553.9853 Q445.1725,556.0791 445.86,557.1572 Q446.5475,558.2197 447.8913,558.2197 Q448.5163,558.2197 449.11,557.9541 Q449.7038,557.6728 450.3288,557.0947 L450.3288,559.8134 Z " fill="#000000"/><text fill="#000000" font-family="sans-serif" font-size="12" font-style="italic" lengthAdjust="spacing" textLength="51.6621" x="526.1701" y="550.1787">&#171;object&#187;</text><text fill="#000000" font-family="sans-serif" font-size="14" lengthAdjust="spacing" textLength="181.2822" x="461.36" y="566.0039">BluetoothHandlerProvider</text></g><!--reverse link BaseController to LobbyController--><g class="link" data-entity-1="BaseController" data-entity-2="LobbyController" data-source-line="52" data-uid="lnk7" id="link_BaseController_LobbyController"><path codeLine="52" d="M303.842,147.6055 C299.382,168.5555 297.38,178 291.52,205.54" fill="none" id="BaseController-backto-LobbyController" style="stroke:#181818;stroke-width:1;"/><polygon fill="none" points="307.59,130,297.9735,146.3561,309.7105,148.8548,307.59,130" style="stroke:#181818;stroke-width:1;"/></g><!--reverse link BaseController to GameController--><g class="link" data-entity-1="BaseController" data-entity-2="GameController" data-source-line="53" data-uid="lnk8" id="link_BaseController_GameController"><path codeLine="53" d="M412.998,138.0721 C453.148,157.7821 488.08,174.94 540.64,200.74" fill="none" id="BaseController-backto-GameController" style="stroke:#181818;stroke-width:1;"/><polygon fill="none" points="396.84,130.14,410.354,143.4581,415.6421,132.6861,396.84,130.14" style="stroke:#181818;stroke-width:1;"/></g><!--reverse link MainController to LobbyController--><g class="link" data-entity-1="MainController" data-entity-2="LobbyController" data-source-line="54" data-uid="lnk9" id="link_MainController_LobbyController"><path codeLine="54" d="M640.0739,143.2552 C599.5639,161.3552 564.43,177.6 523,197.89 C517.52,200.57 511.98,203.31 506.4,206.08" fill="none" id="MainController-backto-LobbyController" style="stroke:#181818;stroke-width:1;"/><polygon fill="#181818" points="651.03,138.36,643.9202,137.1556,640.0739,143.2552,647.1837,144.4597,651.03,138.36" style="stroke:#181818;stroke-width:1;"/></g><!--reverse link MainController to GameController--><g class="link" data-entity-1="MainController" data-entity-2="GameController" data-source-line="55" data-uid="lnk10" id="link_MainController_GameController"><path codeLine="55" d="M773.8852,149.897 C777.6552,167.267 779.58,176.16 784.18,197.41" fill="none" id="MainController-backto-GameController" style="stroke:#181818;stroke-width:1;"/><polygon fill="#181818" points="771.34,138.17,768.7036,144.8819,773.8852,149.897,776.5216,143.1851,771.34,138.17" style="stroke:#181818;stroke-width:1;"/></g><!--link LobbyController to BluetoothHandlerProvider--><g class="link" data-entity-1="LobbyController" data-entity-2="BluetoothHandlerProvider" data-source-line="61" data-uid="lnk12" id="link_LobbyController_BluetoothHandlerProvider"><path codeLine="61" d="M428.34,466.17 C462.06,492.69 488.8227,513.7323 509.5227,530.0023" fill="none" id="LobbyController-to-BluetoothHandlerProvider" style="stroke:#181818;stroke-width:1;"/><polygon fill="#181818" points="514.24,533.71,509.6359,525.0035,510.3089,530.6202,504.6923,531.2932,514.24,533.71" style="stroke:#181818;stroke-width:1;"/></g><!--link GameController to BluetoothHandlerProvider--><g class="link" data-entity-1="GameController" data-entity-2="BluetoothHandlerProvider" data-source-line="62" data-uid="lnk13" id="link_GameController_BluetoothHandlerProvider"><path codeLine="62" d="M639.06,474.51 C609.4,497.83 586.9661,515.4608 568.4661,530.0108" fill="none" id="GameController-to-BluetoothHandlerProvider" style="stroke:#181818;stroke-width:1;"/><polygon fill="#181818" points="563.75,533.72,573.297,531.3003,567.6801,530.629,568.3514,525.0121,563.75,533.72" style="stroke:#181818;stroke-width:1;"/></g><!--SRC=[hLNRRjim37ttLmZTmvoj-G4ZI96aM3SWMOkcUnvecqcqoA8XCIc2hVy- -hB4Lj821VPYIE8X3oz7yaRdgB0e-Q0AB59qFl9RRKjmK2Y_WPoUjLsh5HYFKVHHpSYo8sFGgJaSq4KbP5jOexewMQxKxqWfI3qxo5Xb1hnNK_3OSQuGIdrG0j1xpOT4BK3RIRkhZP-LH_uE-vDNRBkxHFMC0t5wYUJJy5NXplY6ob2Q7henvls35hQ60hkekzw-1Na6nvKb3hY3c4VorEoGYNZp5Mn-Ofy6nzyierj1XgtRpnptEiC5M6cqE1tnjztpCAb4nGCr7AiVLdDhoyXwxHbjTfXjCDlEm9XKvfTKOxreQHqjyZEvROYgP_2QgNNLTaMkc1cDblt4vijUq-efLoUXVzzQjsdYb-ZseWAopM99miCpXy2OIxdnafs8zLZruEOyI2SkbST6je47tHw6nlUprjeMrAts6OddYTmIwzNX4I7N5hsFjQ_MSWccH0R11dhgg-yDEVrN9LLtO44vcaR-zRBDNq-A6P6Jx8797Sj2Wr8osNjxHzAI_WnxCrzZlNz4lpFiuq6YbXPAlo4MVJ3EHGgZ1z1kr3JtMYwANO_7lVdicCa-wQ8pk6VG_8NSn9Y5j5LgyVUkGj2EJqdQlA8MM5DqtFJah1dNYiNpLgzMw4IMcDGv_8kIrknLe0SdL9ZBPUjMLfMngmjRx1XIKn_Ww6GQHz5x7LfckPPFr8evKPEoV9JoyAQHJ1KrU6f7VuR32y_S9TJPCnUyefykHhe02XIhLFGYmAZz5GGgVN2qbz-Gv32Yz9T8Q3mMZKinuJiwb2lscdCKKBw5_Gi0]--></g></svg>