<svg xmlns="http://www.w3.org/2000/svg" xmlns:xlink="http://www.w3.org/1999/xlink" contentStyleType="text/css" data-diagram-type="CLASS" height="1037px" preserveAspectRatio="none" style="width:914px;height:1037px;background:#FFFFFF;" version="1.1" viewBox="0 0 914 1037" width="914px" zoomAndPan="magnify"><defs/><g><!--class DeviceStatus--><g id="elem_DeviceStatus"><rect codeLine="6" fill="#F1F1F1" height="137.7813" id="DeviceStatus" rx="2.5" ry="2.5" style="stroke:#181818;stroke-width:0.5;" width="143.5029" x="88.5" y="864.5"/><ellipse cx="112.0557" cy="880.5" fill="#EB937F" rx="11" ry="11" style="stroke:#181818;stroke-width:1;"/><path d="M116.1651,886.5 L108.4463,886.5 L108.4463,874.1094 L116.1651,874.1094 L116.1651,876.2656 L110.8995,876.2656 L110.8995,878.9375 L115.6651,878.9375 L115.6651,881.0938 L110.8995,881.0938 L110.8995,884.3438 L116.1651,884.3438 L116.1651,886.5 Z " fill="#000000"/><text fill="#000000" font-family="sans-serif" font-size="14" lengthAdjust="spacing" textLength="92.4902" x="127.957" y="885.3467">DeviceStatus</text><line style="stroke:#181818;stroke-width:0.5;" x1="89.5" x2="231.0029" y1="896.5" y2="896.5"/><text fill="#000000" font-family="sans-serif" font-size="14" lengthAdjust="spacing" textLength="119.1777" x="94.5" y="913.4951">NOT_INITIALIZED</text><text fill="#000000" font-family="sans-serif" font-size="14" lengthAdjust="spacing" textLength="112.335" x="94.5" y="929.792">DISCONNECTED</text><text fill="#000000" font-family="sans-serif" font-size="14" lengthAdjust="spacing" textLength="68.1816" x="94.5" y="946.0889">IN_LOBBY</text><text fill="#000000" font-family="sans-serif" font-size="14" lengthAdjust="spacing" textLength="47.4824" x="94.5" y="962.3857">READY</text><text fill="#000000" font-family="sans-serif" font-size="14" lengthAdjust="spacing" textLength="62.9521" x="94.5" y="978.6826">IN_GAME</text><text fill="#000000" font-family="sans-serif" font-size="14" lengthAdjust="spacing" textLength="131.5029" x="94.5" y="994.9795">IN_GAME_WAITING</text></g><!--class LobbyStatus--><g id="elem_LobbyStatus"><rect codeLine="15" fill="#F1F1F1" height="72.5938" id="LobbyStatus" rx="2.5" ry="2.5" style="stroke:#181818;stroke-width:0.5;" width="119.0352" x="686" y="675"/><ellipse cx="701" cy="691" fill="#EB937F" rx="11" ry="11" style="stroke:#181818;stroke-width:1;"/><path d="M705.1094,697 L697.3906,697 L697.3906,684.6094 L705.1094,684.6094 L705.1094,686.7656 L699.8438,686.7656 L699.8438,689.4375 L704.6094,689.4375 L704.6094,691.5938 L699.8438,691.5938 L699.8438,694.8438 L705.1094,694.8438 L705.1094,697 Z " fill="#000000"/><text fill="#000000" font-family="sans-serif" font-size="14" lengthAdjust="spacing" textLength="87.0352" x="715" y="695.8467">LobbyStatus</text><line style="stroke:#181818;stroke-width:0.5;" x1="687" x2="804.0352" y1="707" y2="707"/><text fill="#000000" font-family="sans-serif" font-size="14" lengthAdjust="spacing" textLength="66.1035" x="692" y="723.9951">CREATED</text><text fill="#000000" font-family="sans-serif" font-size="14" lengthAdjust="spacing" textLength="64.9209" x="692" y="740.292">STARTED</text></g><!--class Device--><g id="elem_Device"><rect codeLine="22" fill="#F1F1F1" height="129.4844" id="Device" rx="2.5" ry="2.5" style="stroke:#181818;stroke-width:0.5;" width="294.6045" x="284" y="647"/><ellipse cx="403.1128" cy="663" fill="#A9DCDF" rx="11" ry="11" style="stroke:#181818;stroke-width:1;"/><path d="M403.2222,658.3438 L402.0659,663.4219 L404.394,663.4219 L403.2222,658.3438 Z M401.7378,656.1094 L404.7222,656.1094 L408.0815,668.5 L405.6284,668.5 L404.8628,665.4375 L401.5815,665.4375 L400.8315,668.5 L398.394,668.5 L401.7378,656.1094 Z " fill="#000000"/><text fill="#000000" font-family="sans-serif" font-size="14" font-style="italic" lengthAdjust="spacing" textLength="47.8789" x="423.6128" y="667.8467">Device</text><line style="stroke:#181818;stroke-width:0.5;" x1="285" x2="577.6045" y1="679" y2="679"/><rect fill="transparent" height="6" style="stroke:#C82930;stroke-width:1;" width="6" x="292" y="689.6484"/><text fill="#000000" font-family="sans-serif" font-size="14" lengthAdjust="spacing" textLength="268.6045" x="304" y="695.9951">_status: MutableState&lt;DeviceStatus&gt;</text><line style="stroke:#181818;stroke-width:0.5;" x1="285" x2="577.6045" y1="703.2969" y2="703.2969"/><ellipse cx="295" cy="716.9453" fill="#84BE84" rx="3" ry="3" style="stroke:#038048;stroke-width:1;"/><text fill="#000000" font-family="sans-serif" font-size="14" lengthAdjust="spacing" textLength="116.9014" x="304" y="720.292">ready(): Boolean</text><ellipse cx="295" cy="733.2422" fill="#84BE84" rx="3" ry="3" style="stroke:#038048;stroke-width:1;"/><text fill="#000000" font-family="sans-serif" font-size="14" lengthAdjust="spacing" textLength="180.1816" x="304" y="736.5889">getStatus(): DeviceStatus</text><ellipse cx="295" cy="749.5391" fill="#84BE84" rx="3" ry="3" style="stroke:#038048;stroke-width:1;"/><text fill="#000000" font-family="sans-serif" font-size="14" lengthAdjust="spacing" textLength="221.6074" x="304" y="752.8857">setStatus(status: DeviceStatus)</text><ellipse cx="295" cy="765.8359" fill="#84BE84" rx="3" ry="3" style="stroke:#038048;stroke-width:1;"/><text fill="#000000" font-family="sans-serif" font-size="14" lengthAdjust="spacing" textLength="117.708" x="304" y="769.1826">toString(): String</text></g><!--class MyDevice--><g id="elem_MyDevice"><rect codeLine="31" fill="#F1F1F1" height="32" id="MyDevice" rx="2.5" ry="2.5" style="stroke:#181818;stroke-width:0.5;" width="100.2432" x="269.5" y="917.5"/><ellipse cx="284.5" cy="933.5" fill="#ADD1B2" rx="11" ry="11" style="stroke:#181818;stroke-width:1;"/><path d="M287.4688,939.1406 Q286.8906,939.4375 286.25,939.5781 Q285.6094,939.7344 284.9063,939.7344 Q282.4063,939.7344 281.0781,938.0938 Q279.7656,936.4375 279.7656,933.3125 Q279.7656,930.1875 281.0781,928.5313 Q282.4063,926.875 284.9063,926.875 Q285.6094,926.875 286.25,927.0313 Q286.9063,927.1875 287.4688,927.4844 L287.4688,930.2031 Q286.8438,929.625 286.25,929.3594 Q285.6563,929.0781 285.0313,929.0781 Q283.6875,929.0781 283,930.1563 Q282.3125,931.2188 282.3125,933.3125 Q282.3125,935.4063 283,936.4844 Q283.6875,937.5469 285.0313,937.5469 Q285.6563,937.5469 286.25,937.2813 Q286.8438,937 287.4688,936.4219 L287.4688,939.1406 Z " fill="#000000"/><text fill="#000000" font-family="sans-serif" font-size="14" lengthAdjust="spacing" textLength="68.2432" x="298.5" y="938.3467">MyDevice</text></g><!--class ExternalDevice--><g id="elem_ExternalDevice"><rect codeLine="33" fill="#F1F1F1" height="194.6719" id="ExternalDevice" rx="2.5" ry="2.5" style="stroke:#181818;stroke-width:0.5;" width="453.9844" x="405.5" y="836"/><ellipse cx="575.1372" cy="852" fill="#ADD1B2" rx="11" ry="11" style="stroke:#181818;stroke-width:1;"/><path d="M578.106,857.6406 Q577.5278,857.9375 576.8872,858.0781 Q576.2466,858.2344 575.5435,858.2344 Q573.0435,858.2344 571.7153,856.5938 Q570.4028,854.9375 570.4028,851.8125 Q570.4028,848.6875 571.7153,847.0313 Q573.0435,845.375 575.5435,845.375 Q576.2466,845.375 576.8872,845.5313 Q577.5435,845.6875 578.106,845.9844 L578.106,848.7031 Q577.481,848.125 576.8872,847.8594 Q576.2935,847.5781 575.6685,847.5781 Q574.3247,847.5781 573.6372,848.6563 Q572.9497,849.7188 572.9497,851.8125 Q572.9497,853.9063 573.6372,854.9844 Q574.3247,856.0469 575.6685,856.0469 Q576.2935,856.0469 576.8872,855.7813 Q577.481,855.5 578.106,854.9219 L578.106,857.6406 Z " fill="#000000"/><text fill="#000000" font-family="sans-serif" font-size="14" lengthAdjust="spacing" textLength="106.21" x="595.6372" y="856.8467">ExternalDevice</text><line style="stroke:#181818;stroke-width:0.5;" x1="406.5" x2="858.4844" y1="868" y2="868"/><rect fill="transparent" height="6" style="stroke:#C82930;stroke-width:1;" width="6" x="413.5" y="878.6484"/><text fill="#000000" font-family="sans-serif" font-size="14" lengthAdjust="spacing" textLength="280.1162" x="425.5" y="884.9951">communicationSocket: BluetoothSocket</text><rect fill="transparent" height="6" style="stroke:#C82930;stroke-width:1;" width="6" x="413.5" y="894.9453"/><text fill="#000000" font-family="sans-serif" font-size="14" lengthAdjust="spacing" textLength="391.9932" x="425.5" y="901.292">communicationChannel: CommunicationChannelThread</text><rect fill="transparent" height="6" style="stroke:#C82930;stroke-width:1;" width="6" x="413.5" y="911.2422"/><text fill="#000000" font-family="sans-serif" font-size="14" lengthAdjust="spacing" textLength="170.9941" x="425.5" y="917.5889">device: BluetoothDevice</text><line style="stroke:#181818;stroke-width:0.5;" x1="406.5" x2="858.4844" y1="924.8906" y2="924.8906"/><ellipse cx="416.5" cy="938.5391" fill="#84BE84" rx="3" ry="3" style="stroke:#038048;stroke-width:1;"/><text fill="#000000" font-family="sans-serif" font-size="14" lengthAdjust="spacing" textLength="206.8008" x="425.5" y="941.8857">getDevice(): BluetoothDevice</text><ellipse cx="416.5" cy="954.8359" fill="#84BE84" rx="3" ry="3" style="stroke:#038048;stroke-width:1;"/><text fill="#000000" font-family="sans-serif" font-size="14" lengthAdjust="spacing" textLength="427.9844" x="425.5" y="958.1826">getCommunicationChannel(): CommunicationChannelThread</text><ellipse cx="416.5" cy="971.1328" fill="#84BE84" rx="3" ry="3" style="stroke:#038048;stroke-width:1;"/><text fill="#000000" font-family="sans-serif" font-size="14" lengthAdjust="spacing" textLength="94.3428" x="425.5" y="974.4795">closeSocket()</text><ellipse cx="416.5" cy="987.4297" fill="#84BE84" rx="3" ry="3" style="stroke:#038048;stroke-width:1;"/><text fill="#000000" font-family="sans-serif" font-size="14" lengthAdjust="spacing" textLength="63.8135" x="425.5" y="990.7764">destroy()</text><ellipse cx="416.5" cy="1003.7266" fill="#84BE84" rx="3" ry="3" style="stroke:#038048;stroke-width:1;"/><text fill="#000000" font-family="sans-serif" font-size="14" lengthAdjust="spacing" textLength="252.2598" x="425.5" y="1007.0732">send(message: MessageComposed)</text><ellipse cx="416.5" cy="1020.0234" fill="#84BE84" rx="3" ry="3" style="stroke:#038048;stroke-width:1;"/><text fill="#000000" font-family="sans-serif" font-size="14" lengthAdjust="spacing" textLength="117.708" x="425.5" y="1023.3701">toString(): String</text></g><!--class Lobby--><g id="elem_Lobby"><rect codeLine="46" fill="#F1F1F1" height="259.8594" id="Lobby" rx="2.5" ry="2.5" style="stroke:#181818;stroke-width:0.5;" width="457.0879" x="316" y="327"/><ellipse cx="519.082" cy="343" fill="#ADD1B2" rx="11" ry="11" style="stroke:#181818;stroke-width:1;"/><path d="M522.0508,348.6406 Q521.4727,348.9375 520.832,349.0781 Q520.1914,349.2344 519.4883,349.2344 Q516.9883,349.2344 515.6602,347.5938 Q514.3477,345.9375 514.3477,342.8125 Q514.3477,339.6875 515.6602,338.0313 Q516.9883,336.375 519.4883,336.375 Q520.1914,336.375 520.832,336.5313 Q521.4883,336.6875 522.0508,336.9844 L522.0508,339.7031 Q521.4258,339.125 520.832,338.8594 Q520.2383,338.5781 519.6133,338.5781 Q518.2695,338.5781 517.582,339.6563 Q516.8945,340.7188 516.8945,342.8125 Q516.8945,344.9063 517.582,345.9844 Q518.2695,347.0469 519.6133,347.0469 Q520.2383,347.0469 520.832,346.7813 Q521.4258,346.5 522.0508,345.9219 L522.0508,348.6406 Z " fill="#000000"/><text fill="#000000" font-family="sans-serif" font-size="14" lengthAdjust="spacing" textLength="42.4238" x="539.582" y="347.8467">Lobby</text><line style="stroke:#181818;stroke-width:0.5;" x1="317" x2="772.0879" y1="359" y2="359"/><rect fill="transparent" height="6" style="stroke:#C82930;stroke-width:1;" width="6" x="324" y="369.6484"/><text fill="#000000" font-family="sans-serif" font-size="14" lengthAdjust="spacing" textLength="278.6533" x="336" y="375.9951">masterDevice: MutableState&lt;Device?&gt;</text><rect fill="transparent" height="6" style="stroke:#C82930;stroke-width:1;" width="6" x="324" y="385.9453"/><text fill="#000000" font-family="sans-serif" font-size="14" lengthAdjust="spacing" textLength="394.2969" x="336" y="392.292">connectedDevices: SnapshotStateList&lt;ExternalDevice&gt;</text><ellipse cx="327" cy="405.2422" fill="transparent" rx="3" ry="3" style="stroke:#038048;stroke-width:1;"/><text fill="#000000" font-family="sans-serif" font-size="14" lengthAdjust="spacing" textLength="139.2207" x="336" y="408.5889">status: LobbyStatus</text><ellipse cx="327" cy="421.5391" fill="transparent" rx="3" ry="3" style="stroke:#038048;stroke-width:1;"/><text fill="#000000" font-family="sans-serif" font-size="14" lengthAdjust="spacing" textLength="333.4434" x="336" y="424.8857">inGameDevices: State&lt;List&lt;ExternalDevice&gt;&gt;</text><ellipse cx="327" cy="437.8359" fill="transparent" rx="3" ry="3" style="stroke:#038048;stroke-width:1;"/><text fill="#000000" font-family="sans-serif" font-size="14" lengthAdjust="spacing" textLength="319.1221" x="336" y="441.1826">readyDevices: State&lt;List&lt;ExternalDevice&gt;&gt;</text><ellipse cx="327" cy="454.1328" fill="transparent" rx="3" ry="3" style="stroke:#038048;stroke-width:1;"/><text fill="#000000" font-family="sans-serif" font-size="14" lengthAdjust="spacing" textLength="372.3809" x="336" y="457.4795">disconnectedDevices: State&lt;List&lt;ExternalDevice&gt;&gt;</text><ellipse cx="327" cy="470.4297" fill="transparent" rx="3" ry="3" style="stroke:#038048;stroke-width:1;"/><text fill="#000000" font-family="sans-serif" font-size="14" lengthAdjust="spacing" textLength="334.1885" x="336" y="473.7764">inLobbyDevices: State&lt;List&lt;ExternalDevice&gt;&gt;</text><line style="stroke:#181818;stroke-width:0.5;" x1="317" x2="772.0879" y1="481.0781" y2="481.0781"/><ellipse cx="327" cy="494.7266" fill="#84BE84" rx="3" ry="3" style="stroke:#038048;stroke-width:1;"/><text fill="#000000" font-family="sans-serif" font-size="14" lengthAdjust="spacing" textLength="358.6543" x="336" y="498.0732">removeConnectedDevice(device: BluetoothDevice)</text><ellipse cx="327" cy="511.0234" fill="#84BE84" rx="3" ry="3" style="stroke:#038048;stroke-width:1;"/><text fill="#000000" font-family="sans-serif" font-size="14" lengthAdjust="spacing" textLength="183.374" x="336" y="514.3701">isReadyToStart(): Boolean</text><ellipse cx="327" cy="527.3203" fill="#84BE84" rx="3" ry="3" style="stroke:#038048;stroke-width:1;"/><text fill="#000000" font-family="sans-serif" font-size="14" lengthAdjust="spacing" textLength="176.0186" x="336" y="530.667">clearConnectedDevices()</text><ellipse cx="327" cy="543.6172" fill="#84BE84" rx="3" ry="3" style="stroke:#038048;stroke-width:1;"/><text fill="#000000" font-family="sans-serif" font-size="14" lengthAdjust="spacing" textLength="160.084" x="336" y="546.9639">removeMasterDevice()</text><ellipse cx="327" cy="559.9141" fill="#84BE84" rx="3" ry="3" style="stroke:#038048;stroke-width:1;"/><text fill="#000000" font-family="sans-serif" font-size="14" lengthAdjust="spacing" textLength="431.0879" x="336" y="563.2607">deviceStatusUpdate(deviceMac: String, status: DeviceStatus)</text><ellipse cx="327" cy="576.2109" fill="#84BE84" rx="3" ry="3" style="stroke:#038048;stroke-width:1;"/><text fill="#000000" font-family="sans-serif" font-size="14" lengthAdjust="spacing" textLength="376.1338" x="336" y="579.5576">getDeviceByMac(deviceMac: String): ExternalDevice?</text></g><!--class BluetoothDeviceManager--><g id="elem_BluetoothDeviceManager"><rect codeLine="62" fill="#F1F1F1" height="259.8594" id="BluetoothDeviceManager" rx="2.5" ry="2.5" style="stroke:#181818;stroke-width:0.5;" width="793.4365" x="7" y="7"/><ellipse cx="310.8643" cy="23" fill="#ADD1B2" rx="11" ry="11" style="stroke:#181818;stroke-width:1;"/><path d="M313.833,28.6406 Q313.2549,28.9375 312.6143,29.0781 Q311.9736,29.2344 311.2705,29.2344 Q308.7705,29.2344 307.4424,27.5938 Q306.1299,25.9375 306.1299,22.8125 Q306.1299,19.6875 307.4424,18.0313 Q308.7705,16.375 311.2705,16.375 Q311.9736,16.375 312.6143,16.5313 Q313.2705,16.6875 313.833,16.9844 L313.833,19.7031 Q313.208,19.125 312.6143,18.8594 Q312.0205,18.5781 311.3955,18.5781 Q310.0518,18.5781 309.3643,19.6563 Q308.6768,20.7188 308.6768,22.8125 Q308.6768,24.9063 309.3643,25.9844 Q310.0518,27.0469 311.3955,27.0469 Q312.0205,27.0469 312.6143,26.7813 Q313.208,26.5 313.833,25.9219 L313.833,28.6406 Z " fill="#000000"/><text fill="#000000" font-family="sans-serif" font-size="14" lengthAdjust="spacing" textLength="177.208" x="331.3643" y="27.8467">BluetoothDeviceManager</text><line style="stroke:#181818;stroke-width:0.5;" x1="8" x2="799.4365" y1="39" y2="39"/><rect fill="transparent" height="6" style="stroke:#C82930;stroke-width:1;" width="6" x="15" y="49.6484"/><text fill="#000000" font-family="sans-serif" font-size="14" lengthAdjust="spacing" textLength="407.1074" x="27" y="55.9951">discoveredDevices: SnapshotStateList&lt;BluetoothDevice&gt;</text><rect fill="transparent" height="6" style="stroke:#C82930;stroke-width:1;" width="6" x="15" y="65.9453"/><text fill="#000000" font-family="sans-serif" font-size="14" lengthAdjust="spacing" textLength="90.1045" x="27" y="72.292">lobby: Lobby</text><ellipse cx="18" cy="85.2422" fill="transparent" rx="3" ry="3" style="stroke:#038048;stroke-width:1;"/><text fill="#000000" font-family="sans-serif" font-size="14" lengthAdjust="spacing" textLength="99.6611" x="27" y="88.5889">me: MyDevice</text><line style="stroke:#181818;stroke-width:0.5;" x1="8" x2="799.4365" y1="95.8906" y2="95.8906"/><ellipse cx="18" cy="109.5391" fill="#84BE84" rx="3" ry="3" style="stroke:#038048;stroke-width:1;"/><text fill="#000000" font-family="sans-serif" font-size="14" lengthAdjust="spacing" textLength="442.9141" x="27" y="112.8857">getDiscoveredDevices(): SnapshotStateList&lt;BluetoothDevice&gt;</text><ellipse cx="18" cy="125.8359" fill="#84BE84" rx="3" ry="3" style="stroke:#038048;stroke-width:1;"/><text fill="#000000" font-family="sans-serif" font-size="14" lengthAdjust="spacing" textLength="367.5957" x="27" y="129.1826">getInGameDevices(): State&lt;List&lt;ExternalDevice&gt;&gt;</text><ellipse cx="18" cy="142.1328" fill="#84BE84" rx="3" ry="3" style="stroke:#038048;stroke-width:1;"/><text fill="#000000" font-family="sans-serif" font-size="14" lengthAdjust="spacing" textLength="357.0068" x="27" y="145.4795">getReadyDevices(): State&lt;List&lt;ExternalDevice&gt;&gt;</text><ellipse cx="18" cy="158.4297" fill="#84BE84" rx="3" ry="3" style="stroke:#038048;stroke-width:1;"/><text fill="#000000" font-family="sans-serif" font-size="14" lengthAdjust="spacing" textLength="430.2881" x="27" y="161.7764">getConnectedDevices(): SnapshotStateList&lt;ExternalDevice&gt;</text><ellipse cx="18" cy="174.7266" fill="#84BE84" rx="3" ry="3" style="stroke:#038048;stroke-width:1;"/><text fill="#000000" font-family="sans-serif" font-size="14" lengthAdjust="spacing" textLength="431.6074" x="27" y="178.0732">updateDeviceStatus(deviceMac: String, status: DeviceStatus)</text><ellipse cx="18" cy="191.0234" fill="#84BE84" rx="3" ry="3" style="stroke:#038048;stroke-width:1;"/><text fill="#000000" font-family="sans-serif" font-size="14" lengthAdjust="spacing" textLength="767.4365" x="27" y="194.3701">addNewConnection(socket: BluetoothSocket, communicationChannelThread: CommunicationChannelThread)</text><ellipse cx="18" cy="207.3203" fill="#84BE84" rx="3" ry="3" style="stroke:#038048;stroke-width:1;"/><text fill="#000000" font-family="sans-serif" font-size="14" lengthAdjust="spacing" textLength="85.21" x="27" y="210.667">startGame()</text><ellipse cx="18" cy="223.6172" fill="#84BE84" rx="3" ry="3" style="stroke:#038048;stroke-width:1;"/><text fill="#000000" font-family="sans-serif" font-size="14" lengthAdjust="spacing" textLength="78.9756" x="27" y="226.9639">endGame()</text><ellipse cx="18" cy="239.9141" fill="#84BE84" rx="3" ry="3" style="stroke:#038048;stroke-width:1;"/><text fill="#000000" font-family="sans-serif" font-size="14" lengthAdjust="spacing" textLength="384.0703" x="27" y="243.2607">sendBroadcastMessage(message: MessageComposed)</text><ellipse cx="18" cy="256.2109" fill="#84BE84" rx="3" ry="3" style="stroke:#038048;stroke-width:1;"/><text fill="#000000" font-family="sans-serif" font-size="14" lengthAdjust="spacing" textLength="447.8086" x="27" y="259.5576">sendMessage(deviceMac: String, message: MessageComposed)</text></g><!--reverse link Device to MyDevice--><g id="link_Device_MyDevice"><path codeLine="79" d="M390.9358,792.172 C366.1358,840.902 341.92,888.45 327.29,917.2 " fill="transparent" id="Device-backto-MyDevice" style="stroke:#181818;stroke-width:1;"/><polygon fill="transparent" points="399.1,776.13,385.5885,789.4506,396.2831,794.8934,399.1,776.13" style="stroke:#181818;stroke-width:1;"/></g><!--reverse link Device to ExternalDevice--><g id="link_Device_ExternalDevice"><path codeLine="80" d="M501.7779,789.4218 C518.8179,808.0818 525.71,815.62 544.19,835.84 " fill="transparent" id="Device-backto-ExternalDevice" style="stroke:#181818;stroke-width:1;"/><polygon fill="transparent" points="489.64,776.13,497.3473,793.4678,506.2085,785.3759,489.64,776.13" style="stroke:#181818;stroke-width:1;"/></g><!--reverse link Device to DeviceStatus--><g id="link_Device_DeviceStatus"><path codeLine="81" d="M320.7186,782.9441 C294.1486,801.1941 275.97,815.05 251.5,836 C241.27,844.76 230.96,854.56 221.14,864.46 " fill="transparent" id="Device-backto-DeviceStatus" style="stroke:#181818;stroke-width:1;"/><polygon fill="transparent" points="330.61,776.15,323.3996,776.2499,320.7186,782.9441,327.929,782.8442,330.61,776.15" style="stroke:#181818;stroke-width:1;"/></g><!--reverse link BluetoothDeviceManager to Lobby--><g id="link_BluetoothDeviceManager_Lobby"><path codeLine="83" d="M465.7117,278.311 C474.4017,297.921 478.51,307.17 487.2,326.77 " fill="transparent" id="BluetoothDeviceManager-backto-Lobby" style="stroke:#181818;stroke-width:1;"/><polygon fill="#181818" points="460.85,267.34,459.6238,274.4461,465.7117,278.311,466.9379,271.2049,460.85,267.34" style="stroke:#181818;stroke-width:1;"/></g><!--reverse link BluetoothDeviceManager to MyDevice--><g id="link_BluetoothDeviceManager_MyDevice"><path codeLine="84" d="M317.6053,277.8735 C308.0753,297.3935 304.78,306.94 298.5,327 C238.73,517.93 233.98,578.6 266.5,776 C275.36,829.78 300.26,889.94 312.51,917.38 " fill="transparent" id="BluetoothDeviceManager-backto-MyDevice" style="stroke:#181818;stroke-width:1;"/><polygon fill="#181818" points="322.87,267.09,316.6432,270.7268,317.6053,277.8735,323.8322,274.2366,322.87,267.09" style="stroke:#181818;stroke-width:1;"/></g><!--link BluetoothDeviceManager to DeviceStatus--><g id="link_BluetoothDeviceManager_DeviceStatus"><path codeLine="85" d="M274.88,267.25 C261.14,286.17 248.8,306.29 239.5,327 C158.15,508.08 153.3646,742.2126 156.7546,858.1226 " fill="transparent" id="BluetoothDeviceManager-to-DeviceStatus" style="stroke:#181818;stroke-width:1;stroke-dasharray:7.0,7.0;"/><polygon fill="#181818" points="156.93,864.12,160.6652,855.0069,156.7838,859.1221,152.6686,855.2408,156.93,864.12" style="stroke:#181818;stroke-width:1;"/></g><!--link BluetoothDeviceManager to ExternalDevice--><g id="link_BluetoothDeviceManager_ExternalDevice"><path codeLine="86" d="M734.75,267.17 C755.9,284.75 774.91,304.6 790.5,327 C904.79,491.2 907.88,595.07 822.5,776 C812.1,798.03 801.1115,813.7169 783.7815,831.4669 " fill="transparent" id="BluetoothDeviceManager-to-ExternalDevice" style="stroke:#181818;stroke-width:1;stroke-dasharray:7.0,7.0;"/><polygon fill="#181818" points="779.59,835.76,788.7394,832.1147,783.083,832.1824,783.0152,826.5259,779.59,835.76" style="stroke:#181818;stroke-width:1;"/></g><!--reverse link Lobby to LobbyStatus--><g id="link_Lobby_LobbyStatus"><path codeLine="88" d="M654.834,596.5983 C680.524,628.8683 698.53,651.5 717.09,674.82 " fill="transparent" id="Lobby-backto-LobbyStatus" style="stroke:#181818;stroke-width:1;"/><polygon fill="transparent" points="647.36,587.21,647.9676,594.3955,654.834,596.5983,654.2264,589.4128,647.36,587.21" style="stroke:#181818;stroke-width:1;"/></g><!--reverse link Lobby to ExternalDevice--><g id="link_Lobby_ExternalDevice"><path codeLine="89" d="M585.6257,598.6626 C590.7557,618.6326 592.6,627.48 596.5,647 C608.94,709.34 617.91,780.25 623.78,835.8 " fill="transparent" id="Lobby-backto-ExternalDevice" style="stroke:#181818;stroke-width:1;"/><polygon fill="transparent" points="582.64,587.04,580.2586,593.8465,585.6257,598.6626,588.0071,591.8561,582.64,587.04" style="stroke:#181818;stroke-width:1;"/><text fill="#000000" font-family="sans-serif" font-size="13" lengthAdjust="spacing" textLength="23.0356" x="599.2339" y="824.8302">0..*</text></g><!--reverse link Lobby to Device--><g id="link_Lobby_Device"><path codeLine="90" d="M481.7765,598.1624 C472.4865,618.9124 468.15,628.6 459.97,646.89 " fill="transparent" id="Lobby-backto-Device" style="stroke:#181818;stroke-width:1;"/><polygon fill="transparent" points="486.68,587.21,480.5774,591.0517,481.7765,598.1624,487.879,594.3207,486.68,587.21" style="stroke:#181818;stroke-width:1;"/></g><!--SRC=[bLLBRwCm4BxpAwnUcZuIxRcgMkMb2YbGASbgrRr43im6LB0ZnhIBTllVTsn3UPIWx0NPy_ncvlCGnI4mI8-gO2caUyZGmTTO77d6KuOH3-LxB0xi5qyG7CUvP4kHf-W0VTa2tk80Degh7DaVXp7_URjpVNVhJbVkp-M290jtCt_s_ULyQwwklrizpsOlT5mlfuiNAtgQUilwjFinfGZ-a_FXs3GhkTyNZInpShNXDjlfMfy-3B8PHs11mX417Rv7bV50MK49rRYFTsXYtJ4lLtoVc0BWlbdC0vdTPC33OdHrnsPI9i25bXr0MGijRtfe9NuggmHDYojjekH6PTHFxMvF6ljb1G_pVONVmlOAgt7A-_AtWapmf5bE8DCq5t70LIp5HWQle0XpaeEIKaLMyCLk7d4X8BbZynxfDjArQv_Gv6c4A-7OLjYBQL6llY-sjXxCUHCa4i727fccXK2Zb8Mz88Xmb08YFn0kpnueu96Smi4UUroGQSRQ7JRaierCEL9t5sN9FUHuVB1z9Bo1Wj0AQSmRmOyOIJDzMCMexjjpCdIgED5WinR7uecdK8SowVfYr9myrpYCiGVhi4yi3BxpyQJoZThVoZ8wmHepdHZNkeOj3ObdglEy0ZfadMXevsupUOqHLUIedzZtOqXeo_GU3whvtxAJ3_AJnRE27Bww4hvstO-QJ9OwdV8gVXakcTw_GJR8aau0mwv4jxzaYGQOQYeMxMVNZMsOVavqxUqs2MVVoE28oMNTODrv7bzdUEOhoSq8csFwht7oCFJXlSnEosM4_VlmbWKdTz3GVhegNtAcT1Cj0saXrHUzdcQPv650J2stq_2wqXwLOK-ffttDKbj3Ob1Y51_HANyBzt_7uveqJM6xuvLAagRrCtDEKFkQ32qp1mm-4v-mcKmUsja6x3fu7RkjPGMZ351BBxvD9jSNNRTQRmN_0000]--></g></svg>