<svg xmlns="http://www.w3.org/2000/svg" xmlns:xlink="http://www.w3.org/1999/xlink" contentStyleType="text/css" data-diagram-type="CLASS" height="818px" preserveAspectRatio="none" style="width:1147px;height:818px;background:#FFFFFF;" version="1.1" viewBox="0 0 1147 818" width="1147px" zoomAndPan="magnify"><defs/><g><!--cluster Messages--><g class="cluster" data-entity="Messages" data-source-line="1" data-uid="ent0002" id="cluster_Messages"><path d="M8.5,6 L86.8896,6 A3.75,3.75 0 0 1 89.3896,8.5 L96.3896,28.2969 L1137.5,28.2969 A2.5,2.5 0 0 1 1140,30.7969 L1140,808.81 A2.5,2.5 0 0 1 1137.5,811.31 L8.5,811.31 A2.5,2.5 0 0 1 6,808.81 L6,8.5 A2.5,2.5 0 0 1 8.5,6" fill="none" style="stroke:#000000;stroke-width:1.5;"/><line style="stroke:#000000;stroke-width:1.5;" x1="6" x2="96.3896" y1="28.2969" y2="28.2969"/><text fill="#000000" font-family="sans-serif" font-size="14" font-weight="bold" lengthAdjust="spacing" textLength="77.3896" x="10" y="20.9951">Messages</text></g><!--class MessageComposed--><g class="entity" data-entity="MessageComposed" data-source-line="2" data-uid="ent0003" id="entity_MessageComposed"><rect fill="#F1F1F1" height="129.4844" rx="2.5" ry="2.5" style="stroke:#181818;stroke-width:0.5;" width="210.543" x="21.73" y="280.08"/><ellipse cx="56.0615" cy="296.08" fill="#ADD1B2" rx="11" ry="11" style="stroke:#181818;stroke-width:1;"/><path d="M59.0303,301.7206 Q58.4522,302.0175 57.8115,302.1581 Q57.1709,302.3144 56.4678,302.3144 Q53.9678,302.3144 52.6397,300.6737 Q51.3272,299.0175 51.3272,295.8925 Q51.3272,292.7675 52.6397,291.1112 Q53.9678,289.455 56.4678,289.455 Q57.1709,289.455 57.8115,289.6112 Q58.4678,289.7675 59.0303,290.0644 L59.0303,292.7831 Q58.4053,292.205 57.8115,291.9394 Q57.2178,291.6581 56.5928,291.6581 Q55.249,291.6581 54.5615,292.7362 Q53.874,293.7987 53.874,295.8925 Q53.874,297.9862 54.5615,299.0644 Q55.249,300.1269 56.5928,300.1269 Q57.2178,300.1269 57.8115,299.8612 Q58.4053,299.58 59.0303,299.0019 L59.0303,301.7206 Z " fill="#000000"/><text fill="#000000" font-family="sans-serif" font-size="14" lengthAdjust="spacing" textLength="135.584" x="74.3574" y="300.9267">MessageComposed</text><line style="stroke:#181818;stroke-width:0.5;" x1="22.73" x2="231.273" y1="312.08" y2="312.08"/><rect fill="none" height="6" style="stroke:#C82930;stroke-width:1;" width="6" x="29.73" y="322.7284"/><text fill="#000000" font-family="sans-serif" font-size="14" lengthAdjust="spacing" textLength="147.4717" x="41.73" y="329.0751">JSONObject message</text><rect fill="none" height="6" style="stroke:#C82930;stroke-width:1;" width="6" x="29.73" y="339.0253"/><text fill="#000000" font-family="sans-serif" font-size="14" lengthAdjust="spacing" textLength="79.5771" x="41.73" y="345.372">int purpose</text><line style="stroke:#181818;stroke-width:0.5;" x1="22.73" x2="231.273" y1="352.6737" y2="352.6737"/><ellipse cx="32.73" cy="366.3222" fill="#84BE84" rx="3" ry="3" style="stroke:#038048;stroke-width:1;"/><text fill="#000000" font-family="sans-serif" font-size="14" lengthAdjust="spacing" textLength="184.543" x="41.73" y="369.6689">getMessage(): JSONObject</text><ellipse cx="32.73" cy="382.6191" fill="#84BE84" rx="3" ry="3" style="stroke:#038048;stroke-width:1;"/><text fill="#000000" font-family="sans-serif" font-size="14" lengthAdjust="spacing" textLength="117.7627" x="41.73" y="385.9657">getPurpose(): int</text><ellipse cx="32.73" cy="398.9159" fill="#84BE84" rx="3" ry="3" style="stroke:#038048;stroke-width:1;"/><text fill="#000000" font-family="sans-serif" font-size="14" lengthAdjust="spacing" textLength="117.708" x="41.73" y="402.2626">toString(): String</text></g><!--class MessageBuilder--><g class="entity" data-entity="MessageBuilder" data-source-line="10" data-uid="ent0004" id="entity_MessageBuilder"><rect fill="#F1F1F1" height="162.0781" rx="2.5" ry="2.5" style="stroke:#181818;stroke-width:0.5;" width="467.7041" x="29.15" y="584.34"/><ellipse cx="203.316" cy="600.34" fill="#ADD1B2" rx="11" ry="11" style="stroke:#181818;stroke-width:1;"/><path d="M206.2848,605.9806 Q205.7066,606.2775 205.066,606.4181 Q204.4254,606.5744 203.7223,606.5744 Q201.2223,606.5744 199.8941,604.9337 Q198.5816,603.2775 198.5816,600.1525 Q198.5816,597.0275 199.8941,595.3712 Q201.2223,593.715 203.7223,593.715 Q204.4254,593.715 205.066,593.8712 Q205.7223,594.0275 206.2848,594.3244 L206.2848,597.0431 Q205.6598,596.465 205.066,596.1994 Q204.4723,595.9181 203.8473,595.9181 Q202.5035,595.9181 201.816,596.9962 Q201.1285,598.0587 201.1285,600.1525 Q201.1285,602.2462 201.816,603.3244 Q202.5035,604.3869 203.8473,604.3869 Q204.4723,604.3869 205.066,604.1212 Q205.6598,603.84 206.2848,603.2619 L206.2848,605.9806 Z " fill="#000000"/><text fill="#000000" font-family="sans-serif" font-size="14" lengthAdjust="spacing" textLength="110.8721" x="223.816" y="605.1867">MessageBuilder</text><line style="stroke:#181818;stroke-width:0.5;" x1="30.15" x2="495.8541" y1="616.34" y2="616.34"/><rect fill="none" height="6" style="stroke:#C82930;stroke-width:1;" width="6" x="37.15" y="626.9884"/><text fill="#000000" font-family="sans-serif" font-size="14" lengthAdjust="spacing" textLength="147.4717" x="49.15" y="633.3351">JSONObject message</text><rect fill="none" height="6" style="stroke:#C82930;stroke-width:1;" width="6" x="37.15" y="643.2853"/><text fill="#000000" font-family="sans-serif" font-size="14" lengthAdjust="spacing" textLength="79.5771" x="49.15" y="649.632">int purpose</text><line style="stroke:#181818;stroke-width:0.5;" x1="30.15" x2="495.8541" y1="656.9337" y2="656.9337"/><ellipse cx="40.15" cy="670.5822" fill="#84BE84" rx="3" ry="3" style="stroke:#038048;stroke-width:1;"/><text fill="#000000" font-family="sans-serif" font-size="14" lengthAdjust="spacing" textLength="441.7041" x="49.15" y="673.9289">addMessageParameter(String key, Any value): MessageBuilder</text><ellipse cx="40.15" cy="686.8791" fill="#84BE84" rx="3" ry="3" style="stroke:#038048;stroke-width:1;"/><text fill="#000000" font-family="sans-serif" font-size="14" lengthAdjust="spacing" textLength="366.1465" x="49.15" y="690.2257">addMessage(JSONObject message): MessageBuilder</text><ellipse cx="40.15" cy="703.1759" fill="#84BE84" rx="3" ry="3" style="stroke:#038048;stroke-width:1;"/><text fill="#000000" font-family="sans-serif" font-size="14" lengthAdjust="spacing" textLength="288.3672" x="49.15" y="706.5226">setPurpose(int purpose): MessageBuilder</text><ellipse cx="40.15" cy="719.4728" fill="#84BE84" rx="3" ry="3" style="stroke:#038048;stroke-width:1;"/><text fill="#000000" font-family="sans-serif" font-size="14" lengthAdjust="spacing" textLength="190.1006" x="49.15" y="722.8195">build(): MessageComposed</text><ellipse cx="40.15" cy="735.7697" fill="#84BE84" rx="3" ry="3" style="stroke:#038048;stroke-width:1;"/><text fill="#000000" font-family="sans-serif" font-size="14" lengthAdjust="spacing" textLength="322.2666" x="49.15" y="739.1164">fromString(String jsonString): MessageBuilder</text></g><!--class MessageFactory--><g class="entity" data-entity="MessageFactory" data-source-line="20" data-uid="ent0005" id="entity_MessageFactory"><rect fill="#F1F1F1" height="227.2656" rx="2.5" ry="2.5" style="stroke:#181818;stroke-width:0.5;" width="651.1943" x="267.4" y="231.19"/><ellipse cx="531.8551" cy="247.19" fill="#ADD1B2" rx="11" ry="11" style="stroke:#181818;stroke-width:1;"/><path d="M534.8238,252.8306 Q534.2457,253.1275 533.6051,253.2681 Q532.9645,253.4244 532.2613,253.4244 Q529.7613,253.4244 528.4332,251.7837 Q527.1207,250.1275 527.1207,247.0025 Q527.1207,243.8775 528.4332,242.2212 Q529.7613,240.565 532.2613,240.565 Q532.9645,240.565 533.6051,240.7212 Q534.2613,240.8775 534.8238,241.1744 L534.8238,243.8931 Q534.1988,243.315 533.6051,243.0494 Q533.0113,242.7681 532.3863,242.7681 Q531.0426,242.7681 530.3551,243.8462 Q529.6676,244.9087 529.6676,247.0025 Q529.6676,249.0962 530.3551,250.1744 Q531.0426,251.2369 532.3863,251.2369 Q533.0113,251.2369 533.6051,250.9712 Q534.1988,250.69 534.8238,250.1119 L534.8238,252.8306 Z " fill="#000000"/><text fill="#000000" font-family="sans-serif" font-size="14" lengthAdjust="spacing" textLength="113.7842" x="552.3551" y="252.0367">MessageFactory</text><line style="stroke:#181818;stroke-width:0.5;" x1="268.4" x2="917.5943" y1="263.19" y2="263.19"/><line style="stroke:#181818;stroke-width:0.5;" x1="268.4" x2="917.5943" y1="271.19" y2="271.19"/><ellipse cx="278.4" cy="284.8384" fill="#84BE84" rx="3" ry="3" style="stroke:#038048;stroke-width:1;"/><text fill="#000000" font-family="sans-serif" font-size="14" lengthAdjust="spacing" text-decoration="underline" textLength="421.5723" x="287.4" y="288.1851">createReadyMessage(boolean isReady): MessageComposed</text><ellipse cx="278.4" cy="301.1353" fill="#84BE84" rx="3" ry="3" style="stroke:#038048;stroke-width:1;"/><text fill="#000000" font-family="sans-serif" font-size="14" lengthAdjust="spacing" text-decoration="underline" textLength="532.5264" x="287.4" y="304.482">createConfigurationMessage(List&lt;String&gt; devicesMac): MessageComposed</text><ellipse cx="278.4" cy="317.4322" fill="#84BE84" rx="3" ry="3" style="stroke:#038048;stroke-width:1;"/><text fill="#000000" font-family="sans-serif" font-size="14" lengthAdjust="spacing" text-decoration="underline" textLength="317.6455" x="287.4" y="320.7789">createElectionMessage(): MessageComposed</text><ellipse cx="278.4" cy="333.7291" fill="#84BE84" rx="3" ry="3" style="stroke:#038048;stroke-width:1;"/><text fill="#000000" font-family="sans-serif" font-size="14" lengthAdjust="spacing" text-decoration="underline" textLength="618.5293" x="287.4" y="337.0757">createInfoSharingMessage(String masterAddress, boolean isReady): MessageComposed</text><ellipse cx="278.4" cy="350.0259" fill="#84BE84" rx="3" ry="3" style="stroke:#038048;stroke-width:1;"/><text fill="#000000" font-family="sans-serif" font-size="14" lengthAdjust="spacing" text-decoration="underline" textLength="410.8057" x="287.4" y="353.3726">createElectionAcknowledgeMessage(): MessageComposed</text><ellipse cx="278.4" cy="366.3228" fill="#84BE84" rx="3" ry="3" style="stroke:#038048;stroke-width:1;"/><text fill="#000000" font-family="sans-serif" font-size="14" lengthAdjust="spacing" text-decoration="underline" textLength="446.9951" x="287.4" y="369.6695">createConsistencyCheckRequestMessage(): MessageComposed</text><ellipse cx="278.4" cy="382.6197" fill="#84BE84" rx="3" ry="3" style="stroke:#038048;stroke-width:1;"/><text fill="#000000" font-family="sans-serif" font-size="14" lengthAdjust="spacing" text-decoration="underline" textLength="625.1943" x="287.4" y="385.9664">createConsistencyCheckReplyMessage(List&lt;String&gt; macAddresses): MessageComposed</text><ellipse cx="278.4" cy="398.9166" fill="#84BE84" rx="3" ry="3" style="stroke:#038048;stroke-width:1;"/><text fill="#000000" font-family="sans-serif" font-size="14" lengthAdjust="spacing" text-decoration="underline" textLength="337.6611" x="287.4" y="402.2632">createGameStartMessage(): MessageComposed</text><ellipse cx="278.4" cy="415.2134" fill="#84BE84" rx="3" ry="3" style="stroke:#038048;stroke-width:1;"/><text fill="#000000" font-family="sans-serif" font-size="14" lengthAdjust="spacing" text-decoration="underline" textLength="421.4629" x="287.4" y="418.5601">createBackToLobbyGameListMessage(): MessageComposed</text><ellipse cx="278.4" cy="431.5103" fill="#84BE84" rx="3" ry="3" style="stroke:#038048;stroke-width:1;"/><text fill="#000000" font-family="sans-serif" font-size="14" lengthAdjust="spacing" text-decoration="underline" textLength="430.6982" x="287.4" y="434.857">createElectionInGameFinishedMessage(): MessageComposed</text><ellipse cx="278.4" cy="447.8072" fill="#84BE84" rx="3" ry="3" style="stroke:#038048;stroke-width:1;"/><text fill="#000000" font-family="sans-serif" font-size="14" lengthAdjust="spacing" text-decoration="underline" textLength="472.9648" x="287.4" y="451.1539">createEndGameMessage(Long timeDifference): MessageComposed</text></g><!--class MessageHandler--><g class="entity" data-entity="MessageHandler" data-source-line="34" data-uid="ent0006" id="entity_MessageHandler"><rect fill="#F1F1F1" height="113.1875" rx="2.5" ry="2.5" style="stroke:#181818;stroke-width:0.5;" width="280.4199" x="432.79" y="41"/><ellipse cx="510.5078" cy="57" fill="#ADD1B2" rx="11" ry="11" style="stroke:#181818;stroke-width:1;"/><path d="M513.4765,62.6406 Q512.8984,62.9375 512.2578,63.0781 Q511.6171,63.2344 510.914,63.2344 Q508.414,63.2344 507.0859,61.5938 Q505.7734,59.9375 505.7734,56.8125 Q505.7734,53.6875 507.0859,52.0313 Q508.414,50.375 510.914,50.375 Q511.6171,50.375 512.2578,50.5313 Q512.914,50.6875 513.4765,50.9844 L513.4765,53.7031 Q512.8515,53.125 512.2578,52.8594 Q511.664,52.5781 511.039,52.5781 Q509.6953,52.5781 509.0078,53.6563 Q508.3203,54.7188 508.3203,56.8125 Q508.3203,58.9063 509.0078,59.9844 Q509.6953,61.0469 511.039,61.0469 Q511.664,61.0469 512.2578,60.7813 Q512.8515,60.5 513.4765,59.9219 L513.4765,62.6406 Z " fill="#000000"/><text fill="#000000" font-family="sans-serif" font-size="14" lengthAdjust="spacing" textLength="116.4844" x="531.0078" y="61.8467">MessageHandler</text><line style="stroke:#181818;stroke-width:0.5;" x1="433.79" x2="712.2099" y1="73" y2="73"/><rect fill="none" height="6" style="stroke:#C82930;stroke-width:1;" width="6" x="440.79" y="83.6484"/><text fill="#000000" font-family="sans-serif" font-size="14" lengthAdjust="spacing" textLength="211.1963" x="452.79" y="89.9951">MainController mainController</text><rect fill="none" height="6" style="stroke:#C82930;stroke-width:1;" width="6" x="440.79" y="99.9453"/><text fill="#000000" font-family="sans-serif" font-size="14" lengthAdjust="spacing" textLength="249.9082" x="452.79" y="106.292">BluetoothHandler bluetoothHandler</text><rect fill="none" height="6" style="stroke:#C82930;stroke-width:1;" width="6" x="440.79" y="116.2422"/><text fill="#000000" font-family="sans-serif" font-size="14" lengthAdjust="spacing" textLength="241.2607" x="452.79" y="122.5889">CoroutineScope backgroundScope</text><line style="stroke:#181818;stroke-width:0.5;" x1="433.79" x2="712.2099" y1="129.8906" y2="129.8906"/><ellipse cx="443.79" cy="143.5391" fill="#84BE84" rx="3" ry="3" style="stroke:#038048;stroke-width:1;"/><text fill="#000000" font-family="sans-serif" font-size="14" lengthAdjust="spacing" textLength="254.4199" x="452.79" y="146.8857">handleMessage(Message msg): void</text></g><!--class Purposes--><g class="entity" data-entity="Purposes" data-source-line="41" data-uid="ent0007" id="entity_Purposes"><rect fill="#F1F1F1" height="259.8594" rx="2.5" ry="2.5" style="stroke:#181818;stroke-width:0.5;" width="310.5527" x="531.72" y="535.45"/><ellipse cx="650.8841" cy="551.45" fill="#EB937F" rx="11" ry="11" style="stroke:#181818;stroke-width:1;"/><path d="M654.9934,557.45 L647.2747,557.45 L647.2747,545.0594 L654.9934,545.0594 L654.9934,547.2156 L649.7278,547.2156 L649.7278,549.8875 L654.4934,549.8875 L654.4934,552.0437 L649.7278,552.0437 L649.7278,555.2937 L654.9934,555.2937 L654.9934,557.45 Z " fill="#000000"/><text fill="#000000" font-family="sans-serif" font-size="14" lengthAdjust="spacing" textLength="63.7246" x="671.3841" y="556.2967">Purposes</text><line style="stroke:#181818;stroke-width:0.5;" x1="532.72" x2="841.2727" y1="567.45" y2="567.45"/><ellipse cx="542.72" cy="581.0984" fill="none" rx="3" ry="3" style="stroke:#038048;stroke-width:1;"/><text fill="#000000" font-family="sans-serif" font-size="14" lengthAdjust="spacing" text-decoration="underline" textLength="164.1309" x="551.72" y="584.4451">NETWORK_ACK: int = 1</text><ellipse cx="542.72" cy="597.3953" fill="none" rx="3" ry="3" style="stroke:#038048;stroke-width:1;"/><text fill="#000000" font-family="sans-serif" font-size="14" lengthAdjust="spacing" text-decoration="underline" textLength="245.3076" x="551.72" y="600.742">UPDATE_CONNECTED_LIST: int = 2</text><ellipse cx="542.72" cy="613.6922" fill="none" rx="3" ry="3" style="stroke:#038048;stroke-width:1;"/><text fill="#000000" font-family="sans-serif" font-size="14" lengthAdjust="spacing" text-decoration="underline" textLength="104.4395" x="551.72" y="617.0389">READY: int = 3</text><ellipse cx="542.72" cy="629.9891" fill="none" rx="3" ry="3" style="stroke:#038048;stroke-width:1;"/><text fill="#000000" font-family="sans-serif" font-size="14" lengthAdjust="spacing" text-decoration="underline" textLength="174.9795" x="551.72" y="633.3357">CONFIGURATION: int = 4</text><ellipse cx="542.72" cy="646.2859" fill="none" rx="3" ry="3" style="stroke:#038048;stroke-width:1;"/><text fill="#000000" font-family="sans-serif" font-size="14" lengthAdjust="spacing" text-decoration="underline" textLength="199.5205" x="551.72" y="649.6326">ELECTION_REQUEST: int = 5</text><ellipse cx="542.72" cy="662.5828" fill="none" rx="3" ry="3" style="stroke:#038048;stroke-width:1;"/><text fill="#000000" font-family="sans-serif" font-size="14" lengthAdjust="spacing" text-decoration="underline" textLength="161.7998" x="551.72" y="665.9295">INFO_SHARING: int = 6</text><ellipse cx="542.72" cy="678.8797" fill="none" rx="3" ry="3" style="stroke:#038048;stroke-width:1;"/><text fill="#000000" font-family="sans-serif" font-size="14" lengthAdjust="spacing" text-decoration="underline" textLength="161.9297" x="551.72" y="682.2264">ELECTION_ACK: int = 7</text><ellipse cx="542.72" cy="695.1766" fill="none" rx="3" ry="3" style="stroke:#038048;stroke-width:1;"/><text fill="#000000" font-family="sans-serif" font-size="14" lengthAdjust="spacing" text-decoration="underline" textLength="284.5527" x="551.72" y="698.5232">CONSISTENCY_CHECK_REQUEST: int = 8</text><ellipse cx="542.72" cy="711.4734" fill="none" rx="3" ry="3" style="stroke:#038048;stroke-width:1;"/><text fill="#000000" font-family="sans-serif" font-size="14" lengthAdjust="spacing" text-decoration="underline" textLength="261.7959" x="551.72" y="714.8201">CONSISTENCY_CHECK_REPLY: int = 9</text><ellipse cx="542.72" cy="727.7703" fill="none" rx="3" ry="3" style="stroke:#038048;stroke-width:1;"/><text fill="#000000" font-family="sans-serif" font-size="14" lengthAdjust="spacing" text-decoration="underline" textLength="159.5098" x="551.72" y="731.117">GAME_START: int = 10</text><ellipse cx="542.72" cy="744.0672" fill="none" rx="3" ry="3" style="stroke:#038048;stroke-width:1;"/><text fill="#000000" font-family="sans-serif" font-size="14" lengthAdjust="spacing" text-decoration="underline" textLength="261.8711" x="551.72" y="747.4139">BACK_TO_LOBBY_GAMELIST: int = 11</text><ellipse cx="542.72" cy="760.3641" fill="none" rx="3" ry="3" style="stroke:#038048;stroke-width:1;"/><text fill="#000000" font-family="sans-serif" font-size="14" lengthAdjust="spacing" text-decoration="underline" textLength="144.3135" x="551.72" y="763.7107">END_GAME: int = 12</text><ellipse cx="542.72" cy="776.6609" fill="none" rx="3" ry="3" style="stroke:#038048;stroke-width:1;"/><text fill="#000000" font-family="sans-serif" font-size="14" lengthAdjust="spacing" text-decoration="underline" textLength="271.0791" x="551.72" y="780.0076">ELECTION_INGAME_FINISHED: int = 13</text><line style="stroke:#181818;stroke-width:0.5;" x1="532.72" x2="841.2727" y1="787.3094" y2="787.3094"/></g><!--reverse link MessageComposed to MessageBuilder--><g class="link" data-entity-1="MessageComposed" data-entity-2="MessageBuilder" data-source-line="58" data-uid="lnk8" id="link_MessageComposed_MessageBuilder"><path codeLine="58" d="M75.0926,424.2547 C60.1326,453.9047 57.69,474.93 72,505.45 C86.1,535.53 109,561.89 134.12,584.05" fill="none" id="MessageComposed-backto-MessageBuilder" style="stroke:#181818;stroke-width:1;"/><ellipse cx="78.6963" cy="417.1124" fill="#FFFFFF" rx="8" ry="8" style="stroke:#181818;stroke-width:1;"/><line style="stroke:#181818;stroke-width:1;" x1="75.0926" x2="82.3" y1="424.2547" y2="409.97"/><line style="stroke:#181818;stroke-width:1;" x1="71.5539" x2="85.8387" y1="413.5087" y2="420.7161"/><text fill="#000000" font-family="sans-serif" font-size="13" lengthAdjust="spacing" textLength="150.0586" x="73" y="501.5169">contains as companion</text></g><!--link MessageBuilder to MessageComposed--><g class="link" data-entity-1="MessageBuilder" data-entity-2="MessageComposed" data-source-line="59" data-uid="lnk9" id="link_MessageBuilder_MessageComposed"><path codeLine="59" d="M254.25,583.87 C249.05,553.15 240.86,518.35 228,488.45 C216.13,460.86 201.9113,438.0914 184.5413,414.6414" fill="none" id="MessageBuilder-to-MessageComposed" style="stroke:#181818;stroke-width:1;stroke-dasharray:7.0,7.0;"/><polygon fill="#181818" points="180.97,409.82,183.1127,419.4329,183.9461,413.8378,189.5412,414.6712,180.97,409.82" style="stroke:#181818;stroke-width:1;"/><text fill="#000000" font-family="sans-serif" font-size="13" lengthAdjust="spacing" textLength="48.3247" x="234" y="501.5169">creates</text></g><!--link MessageFactory to MessageBuilder--><g class="link" data-entity-1="MessageFactory" data-entity-2="MessageBuilder" data-source-line="60" data-uid="lnk10" id="link_MessageFactory_MessageBuilder"><path codeLine="60" d="M550.11,458.69 C540.98,475.38 530.3,491.6 518,505.45 C491.32,535.48 462.6501,558.5492 428.5701,580.7092" fill="none" id="MessageFactory-to-MessageBuilder" style="stroke:#181818;stroke-width:1;stroke-dasharray:7.0,7.0;"/><polygon fill="#181818" points="423.54,583.98,433.2657,582.4273,427.7318,581.2544,428.9047,575.7204,423.54,583.98" style="stroke:#181818;stroke-width:1;"/><text fill="#000000" font-family="sans-serif" font-size="13" lengthAdjust="spacing" textLength="29.7832" x="530" y="501.5169">uses</text></g><!--link MessageHandler to MessageComposed--><g class="link" data-entity-1="MessageHandler" data-entity-2="MessageComposed" data-source-line="61" data-uid="lnk11" id="link_MessageHandler_MessageComposed"><path codeLine="61" d="M432.59,143.92 C373.85,165.95 306.3,195.46 250,231.19 C228.49,244.84 211.6407,258.3424 193.0007,275.5324" fill="none" id="MessageHandler-to-MessageComposed" style="stroke:#181818;stroke-width:1;"/><polygon fill="#181818" points="188.59,279.6,197.9178,276.4391,192.2656,276.2103,192.4943,270.5581,188.59,279.6" style="stroke:#181818;stroke-width:1;"/><text fill="#000000" font-family="sans-serif" font-size="13" lengthAdjust="spacing" textLength="65.0127" x="334" y="197.2569">processes</text></g><!--link MessageComposed to Purposes--><g class="link" data-entity-1="MessageComposed" data-entity-2="Purposes" data-source-line="62" data-uid="lnk12" id="link_MessageComposed_Purposes"><path codeLine="62" d="M188.69,409.88 C207.33,427.07 228.56,444.68 250,458.45 C295.08,487.4 309.77,489.77 361,505.45 C427.26,525.74 450.64,507.38 514,535.45 C519.82,538.03 520.3008,538.0832 526.0808,541.0732" fill="none" id="MessageComposed-to-Purposes" style="stroke:#181818;stroke-width:1;stroke-dasharray:7.0,7.0;"/><polygon fill="#181818" points="531.41,543.83,525.2541,536.142,526.969,541.5327,521.5784,543.2476,531.41,543.83" style="stroke:#181818;stroke-width:1;"/><text fill="#000000" font-family="sans-serif" font-size="13" lengthAdjust="spacing" textLength="147.5195" x="362" y="501.5169">uses for message type</text></g><!--link MessageFactory to Purposes--><g class="link" data-entity-1="MessageFactory" data-entity-2="Purposes" data-source-line="63" data-uid="lnk13" id="link_MessageFactory_Purposes"><path codeLine="63" d="M626.27,458.58 C633.59,483.37 639.6917,504.0554 647.1817,529.4354" fill="none" id="MessageFactory-to-Purposes" style="stroke:#181818;stroke-width:1;stroke-dasharray:7.0,7.0;"/><polygon fill="#181818" points="648.88,535.19,650.169,525.4259,647.4648,530.3945,642.4962,527.6902,648.88,535.19" style="stroke:#181818;stroke-width:1;"/><text fill="#000000" font-family="sans-serif" font-size="13" lengthAdjust="spacing" textLength="147.5195" x="641" y="501.5169">uses for message type</text></g><!--link MessageHandler to Purposes--><g class="link" data-entity-1="MessageHandler" data-entity-2="Purposes" data-source-line="64" data-uid="lnk14" id="link_MessageHandler_Purposes"><path codeLine="64" d="M713.46,111.3 C792.83,126.51 885.92,159.57 936,231.19 C993.89,313.96 979.01,367.06 936,458.45 C915.34,502.36 884.8482,536.2938 847.3882,567.0338" fill="none" id="MessageHandler-to-Purposes" style="stroke:#181818;stroke-width:1;stroke-dasharray:7.0,7.0;"/><polygon fill="#181818" points="842.75,570.84,852.2448,568.2229,846.6152,567.6682,847.1699,562.0386,842.75,570.84" style="stroke:#181818;stroke-width:1;"/><text fill="#000000" font-family="sans-serif" font-size="13" lengthAdjust="spacing" textLength="133.8086" x="975" y="349.3869">dispatches based on</text></g><!--SRC=[fLLTRzem57tlhx3wnDHIhUq-gwrI285cXOGbgQO-HOvZm2MncUrqYgh-zpaV1cf0Wkq1aLoVU-wv9xxs4g85d65mEiP2g0Tn2bvE040P50AqCPlbIoPmMgy0qFqH-fwVF64aGTuWcZYX4YmBNc7hmDaCovQYy-u6hDDMgvC6NQsgv2OiMIWveRCgs3of-AlwcR9w1SbIp8zM1TEqPPX03dCiCUyqXS02b-V0eYLuXbc1bO2tfSpypdRDFJbYtUk6dZtWf7hfh1Ur_ytgbBEyTQXL_IGORHvt4UwoRW2HPBnihJjx4H9AWbu1uXXA762Obhh5XB4CGmg8gCFxL1aKDgDJCYkuYZ6ggKP4o6-Dq5kGucU2i1X3T22baocRDzWEJ7Ffb8LpM1NLcQrjEHJgqrjfobNy7FnRergLXHQK_SbmEiD72bHM2MKCfgYqvnWj0loxm4B-DyioAtSQdqFKzep5WUH3DIMXXFnOKJrrk4Hin9Aah2Wg6KSoQ7jTMX4C22LYZjDZIMXQPQ_SOEhZIvBZFfbECLUMuPr4kmRd3j8qMvyvOqYeSbvobbNH_Crh0-cfWqGo9kSwDJ423Sncd1MIK1mYjiGWKSxDL8IczNlJrhnEq6sq_o0NrTW_Cz9ehg6O5Zbe3nonDUMU4_toW_lOik_hSnTy1vS6v67Ijo8djdtFS-p8wSSZDumq-Ce01uxLVzIBryQYeXYumuV0YbpVqw0F1iWPgIfgFGwSdm_Ekj970-Tw0pyExwp0zOOQysaVrqPxdxT5XQeXnxCVO_lEiU_DmbyEI9YCLar_DU13Q-p4OMG5AyBBzmQaf-J5aH-F_5xlCQuIDYs-D3-8u_Lhq0fmjQzjPKrLVU1wRdZdz5S9r_NsK1l4lDNFkbtZrhW1IErYjPa5W48zvqj8rH2U61VlnSMjEJOtxSY94-EcsS2kYXHYZTFJqUtku5noXkhpQajxHQltUKC8fephonZ8KitE3YK7fcXHRrDI8fPGehbAJ60bWj6_]--></g></svg>