<svg xmlns="http://www.w3.org/2000/svg" xmlns:xlink="http://www.w3.org/1999/xlink" contentStyleType="text/css" data-diagram-type="DESCRIPTION" height="591px" preserveAspectRatio="none" style="width:1301px;height:591px;background:#FFFFFF;" version="1.1" viewBox="0 0 1301 591" width="1301px" zoomAndPan="magnify"><defs/><g><!--cluster High Noon Blitz--><g class="cluster" data-entity="High Noon Blitz" data-source-line="7" data-uid="ent0004" id="cluster_High Noon Blitz"><rect fill="none" height="166" rx="2.5" ry="2.5" style="stroke:#181818;stroke-width:1;" width="1147.83" x="147.81" y="328"/><text fill="#000000" font-family="sans-serif" font-size="14" font-weight="bold" lengthAdjust="spacing" textLength="122.2813" x="660.5844" y="342.9951">High Noon Blitz</text></g><g class="entity" data-entity="UC1" data-source-line="8" data-uid="ent0005" id="entity_UC1"><ellipse cx="234.1323" cy="444.0045" fill="#F1F1F1" rx="70.3223" ry="16.4645" style="stroke:#181818;stroke-width:0.5;"/><text fill="#000000" font-family="sans-serif" font-size="14" lengthAdjust="spacing" textLength="93.7002" x="184.2822" y="447.752">Create Lobby</text></g><g class="entity" data-entity="UC2" data-source-line="9" data-uid="ent0006" id="entity_UC2"><ellipse cx="587.0532" cy="461.9986" fill="#F1F1F1" rx="65.8932" ry="15.5786" style="stroke:#181818;stroke-width:0.5;"/><text fill="#000000" font-family="sans-serif" font-size="14" lengthAdjust="spacing" textLength="81.3682" x="543.3691" y="465.7462">Start Match</text></g><g class="entity" data-entity="UC3" data-source-line="10" data-uid="ent0007" id="entity_UC3"><ellipse cx="905.7312" cy="382.9962" fill="#F1F1F1" rx="86.9812" ry="19.7962" style="stroke:#181818;stroke-width:0.5;"/><text fill="#000000" font-family="sans-serif" font-size="14" lengthAdjust="spacing" textLength="134.873" x="838.2947" y="385.8429">Press Game Button</text></g><g class="entity" data-entity="UC4" data-source-line="11" data-uid="ent0008" id="entity_UC4"><ellipse cx="1197.6833" cy="383.0027" fill="#F1F1F1" rx="81.9633" ry="18.7927" style="stroke:#181818;stroke-width:0.5;"/><text fill="#000000" font-family="sans-serif" font-size="14" lengthAdjust="spacing" textLength="123.2314" x="1135.1167" y="386.165">Go Back to Lobby</text></g><g class="entity" data-entity="UC5" data-source-line="12" data-uid="ent0009" id="entity_UC5"><ellipse cx="234.1331" cy="377.9986" fill="#F1F1F1" rx="62.8431" ry="14.9686" style="stroke:#181818;stroke-width:0.5;"/><text fill="#000000" font-family="sans-serif" font-size="14" lengthAdjust="spacing" textLength="72.3311" x="194.9675" y="381.7462">Join Lobby</text></g><g class="entity" data-entity="UC6" data-source-line="13" data-uid="ent0010" id="entity_UC6"><ellipse cx="587.0476" cy="386.9995" fill="#F1F1F1" rx="108.6976" ry="24.1395" style="stroke:#181818;stroke-width:0.5;"/><text fill="#000000" font-family="sans-serif" font-size="14" lengthAdjust="spacing" textLength="183.0596" x="495.5178" y="389.8462">Become Ready/Not Ready</text></g><!--entity Server--><g class="entity" data-entity="Server" data-source-line="4" data-uid="ent0002" id="entity_Server"><ellipse cx="28.9551" cy="455.35" fill="#F1F1F1" rx="8" ry="8" style="stroke:#181818;stroke-width:0.5;"/><path d="M28.9551,463.35 L28.9551,490.35 M15.9551,471.35 L41.9551,471.35 M28.9551,490.35 L15.9551,505.35 M28.9551,490.35 L41.9551,505.35" fill="none" style="stroke:#181818;stroke-width:0.5;"/><text fill="#000000" font-family="sans-serif" font-size="14" lengthAdjust="spacing" textLength="45.9102" x="6" y="519.8451">Server</text></g><!--entity Client--><g class="entity" data-entity="Client" data-source-line="5" data-uid="ent0003" id="entity_Client"><ellipse cx="28.9551" cy="83.35" fill="#F1F1F1" rx="8" ry="8" style="stroke:#181818;stroke-width:0.5;"/><path d="M28.9551,91.35 L28.9551,118.35 M15.9551,99.35 L41.9551,99.35 M28.9551,118.35 L15.9551,133.35 M28.9551,118.35 L41.9551,133.35" fill="none" style="stroke:#181818;stroke-width:0.5;"/><text fill="#000000" font-family="sans-serif" font-size="14" lengthAdjust="spacing" textLength="40.5303" x="8.69" y="147.8451">Client</text></g><g class="entity" data-entity="N1" data-source-line="32" data-uid="ent0023" id="entity_N1"><path d="M112.91,271.87 L112.91,312.1356 L355.3543,312.1356 L355.3543,281.87 L345.3543,271.87 L112.91,271.87" fill="#FEFFDD" style="stroke:#181818;stroke-width:0.5;"/><path d="M345.3543,271.87 L345.3543,281.87 L355.3543,281.87 L345.3543,271.87" fill="#FEFFDD" style="stroke:#181818;stroke-width:1;"/><text fill="#000000" font-family="sans-serif" font-size="13" lengthAdjust="spacing" textLength="221.4443" x="118.91" y="288.9369">Only server can start match when</text><text fill="#000000" font-family="sans-serif" font-size="13" lengthAdjust="spacing" textLength="128.6289" x="118.91" y="304.0697">all clients are ready</text></g><!--reverse link UC1 to UC2--><g class="link" data-entity-1="UC1" data-entity-2="UC2" data-source-line="16" data-uid="lnk11" id="link_UC1_UC2"><path d="M309.2021,447.7973 C372.5821,451.0473 460.35,455.55 522.3,458.73" fill="none" id="UC1-backto-UC2" style="stroke:#181818;stroke-width:1;stroke-dasharray:7.0,7.0;"/><polygon fill="#181818" points="303.21,447.49,311.9933,451.9456,308.2034,447.7461,312.403,443.9561,303.21,447.49" style="stroke:#181818;stroke-width:1;"/><text fill="#000000" font-family="sans-serif" font-size="13" lengthAdjust="spacing" textLength="61.1851" x="386.35" y="448.0669">&#171;extend&#187;</text></g><!--reverse link UC2 to UC3--><g class="link" data-entity-1="UC2" data-entity-2="UC3" data-source-line="17" data-uid="lnk12" id="link_UC2_UC3"><path d="M639.5817,449.148 C695.5117,435.198 784.48,413 845.82,397.7" fill="none" id="UC2-backto-UC3" style="stroke:#181818;stroke-width:1;stroke-dasharray:7.0,7.0;"/><polygon fill="#181818" points="633.76,450.6,643.4605,452.3031,638.6114,449.39,641.5245,444.5409,633.76,450.6" style="stroke:#181818;stroke-width:1;"/><text fill="#000000" font-family="sans-serif" font-size="13" lengthAdjust="spacing" textLength="61.1851" x="726.75" y="410.0669">&#171;extend&#187;</text></g><!--reverse link UC3 to UC4--><g class="link" data-entity-1="UC3" data-entity-2="UC4" data-source-line="18" data-uid="lnk13" id="link_UC3_UC4"><path d="M998.94,383 C1037.67,383 1077.13,383 1115.27,383" fill="none" id="UC3-backto-UC4" style="stroke:#181818;stroke-width:1;stroke-dasharray:7.0,7.0;"/><polygon fill="#181818" points="992.94,383,1001.94,387,997.94,383,1001.94,379,992.94,383" style="stroke:#181818;stroke-width:1;"/><text fill="#000000" font-family="sans-serif" font-size="13" lengthAdjust="spacing" textLength="61.1851" x="1023.71" y="379.0669">&#171;extend&#187;</text></g><!--reverse link UC5 to UC6--><g class="link" data-entity-1="UC5" data-entity-2="UC6" data-source-line="19" data-uid="lnk14" id="link_UC5_UC6"><path d="M303.058,379.7442 C353.238,381.0342 419.12,382.72 478.64,384.25" fill="none" id="UC5-backto-UC6" style="stroke:#181818;stroke-width:1;stroke-dasharray:7.0,7.0;"/><polygon fill="#181818" points="297.06,379.59,305.9542,383.82,302.0583,379.7185,306.1598,375.8226,297.06,379.59" style="stroke:#181818;stroke-width:1;"/><text fill="#000000" font-family="sans-serif" font-size="13" lengthAdjust="spacing" textLength="61.1851" x="386.35" y="378.0669">&#171;extend&#187;</text></g><!--link Server to UC1--><g class="link" data-entity-1="Server" data-entity-2="UC1" data-source-line="22" data-uid="lnk15" id="link_Server_UC1"><path d="M52.09,480.53 C82.53,474.39 132.3985,464.3267 174.0285,455.9267" fill="none" id="Server-to-UC1" style="stroke:#181818;stroke-width:1;"/><polygon fill="#181818" points="179.91,454.74,170.2966,452.5991,175.0088,455.729,171.879,460.4411,179.91,454.74" style="stroke:#181818;stroke-width:1;"/></g><!--link Server to UC2--><g class="link" data-entity-1="Server" data-entity-2="UC2" data-source-line="23" data-uid="lnk16" id="link_Server_UC2"><path d="M52.06,484.89 C104.65,484.54 241.33,483.18 355.35,478 C412.71,475.4 471.9882,471.1776 518.4282,467.5476" fill="none" id="Server-to-UC2" style="stroke:#181818;stroke-width:1;"/><polygon fill="#181818" points="524.41,467.08,515.1257,463.7935,519.4252,467.4696,515.7491,471.7692,524.41,467.08" style="stroke:#181818;stroke-width:1;"/></g><!--link Server to UC3--><g class="link" data-entity-1="Server" data-entity-2="UC3" data-source-line="24" data-uid="lnk17" id="link_Server_UC3"><path d="M31.02,446.79 C34.82,393.34 50.52,297.88 112.91,254 C361.83,78.91 757.5312,293.5827 869.6212,361.1427" fill="none" id="Server-to-UC3" style="stroke:#181818;stroke-width:1;"/><polygon fill="#181818" points="874.76,364.24,869.1167,356.1682,870.4777,361.6589,864.987,363.0199,874.76,364.24" style="stroke:#181818;stroke-width:1;"/></g><!--link Server to UC4--><g class="link" data-entity-1="Server" data-entity-2="UC4" data-source-line="25" data-uid="lnk18" id="link_Server_UC4"><path d="M52.29,504.32 C87.96,533.13 161.13,584 233.13,584 C233.13,584 233.13,584 906.73,584 C1033.83,584 1141.7696,456.7422 1179.4696,406.7022" fill="none" id="Server-to-UC4" style="stroke:#181818;stroke-width:1;"/><polygon fill="#181818" points="1183.08,401.91,1174.4696,406.6913,1180.0713,405.9035,1180.8592,411.5052,1183.08,401.91" style="stroke:#181818;stroke-width:1;"/></g><!--link Client to UC3--><g class="link" data-entity-1="Client" data-entity-2="UC3" data-source-line="27" data-uid="lnk19" id="link_Client_UC3"><path d="M49.56,109.49 C59.54,108.12 71.87,107.08 82.91,108 C358.15,130.97 439.74,107.37 695.75,211 C780.03,245.12 852.3851,321.3832 884.6051,358.8032" fill="none" id="Client-to-UC3" style="stroke:#181818;stroke-width:1;"/><polygon fill="#181818" points="888.52,363.35,885.6788,353.9199,885.2575,359.561,879.6164,359.1398,888.52,363.35" style="stroke:#181818;stroke-width:1;"/></g><!--link Client to UC4--><g class="link" data-entity-1="Client" data-entity-2="UC4" data-source-line="28" data-uid="lnk20" id="link_Client_UC4"><path d="M49.48,94.36 C83.74,63.71 158.18,6 233.13,6 C233.13,6 233.13,6 906.73,6 C1089.21,6 1171.2396,281.143 1190.6596,357.973" fill="none" id="Client-to-UC4" style="stroke:#181818;stroke-width:1;"/><polygon fill="#181818" points="1192.13,363.79,1193.8025,354.0842,1190.9047,358.9425,1186.0464,356.0447,1192.13,363.79" style="stroke:#181818;stroke-width:1;"/></g><!--link Client to UC5--><g class="link" data-entity-1="Client" data-entity-2="UC5" data-source-line="29" data-uid="lnk21" id="link_Client_UC5"><path d="M35.09,151.38 C43.39,199.14 64.08,280.44 112.91,330 C132.15,349.53 154.5964,359.6822 178.8564,366.7022" fill="none" id="Client-to-UC5" style="stroke:#181818;stroke-width:1;"/><polygon fill="#181818" points="184.62,368.37,177.0865,362.026,179.817,366.9802,174.8628,369.7107,184.62,368.37" style="stroke:#181818;stroke-width:1;"/></g><!--link Client to UC6--><g class="link" data-entity-1="Client" data-entity-2="UC6" data-source-line="30" data-uid="lnk22" id="link_Client_UC6"><path d="M49.38,120.51 C100.39,140.44 242.04,197.02 355.35,254 C425.57,289.31 499.149,333.2272 544.099,360.8672" fill="none" id="Client-to-UC6" style="stroke:#181818;stroke-width:1;"/><polygon fill="#181818" points="549.21,364.01,543.6386,355.8884,544.9508,361.391,539.4482,362.7031,549.21,364.01" style="stroke:#181818;stroke-width:1;"/></g><!--link N1 to UC2--><g class="link" data-entity-1="N1" data-entity-2="UC2" data-source-line="33" data-uid="lnk24" id="link_N1_UC2"><path d="M355.81,309.21 C388.9,318.81 422.68,333.75 448.35,357 C474.05,380.27 452.68,405.71 478.35,429 C492.33,441.68 511.08,449.49 529.01,454.3" fill="none" id="N1-UC2" style="stroke:#181818;stroke-width:1;stroke-dasharray:7.0,7.0;"/></g><!--SRC=[PP9FJm8n4CNl_HGlU_641dRXO0Y7nGHZT3KIRrvA6Q5XQKaxYAlnkzlz8zc6f8U-_5vdClDQqWU3BPpUR1bhxKYnjaRudJO7wUGU1wbsSaDBhaf2ZQNPb2I4L6mTbkG-oNLYNceoBCJPXUG-r4LXhK5UQlvEy2E0eoSbVQ1pHv89ZtQrgX98ZxVviC-NB1tZIRBQTdZKno-ElCT2xWdvaTcQpfJsJGkBF8nG3zdla_Kz3rQRY8xxD2TbGujNaklgfh3StZhd93Z3kS8T7SYioIXD7YlY4v6fQw0kueCbp8RfzNKz16undT8NXmUpMOD67KelKTgXx1ADEpI9qQyGRIuO36RDJYCvYcKQoqo8DiSpZcGMot4i9q8O6n9DdarPmRTrbJJmJPBxEacSjcJUZInBgEQjXtJrr_fVQZ4KnH3jflu0]--></g></svg>